<svg width="32" height="32" viewBox="0 0 32 32" fill="none" xmlns="http://www.w3.org/2000/svg">
<path d="M26.6666 6.66666H5.33329C3.85933 6.66666 2.66663 7.85937 2.66663 9.33333V22.6667C2.66663 24.1406 3.85933 25.3333 5.33329 25.3333H26.6666C28.1406 25.3333 29.3333 24.1406 29.3333 22.6667V9.33333C29.3333 7.85937 28.1406 6.66666 26.6666 6.66666ZM20.6666 9.33333C22.5104 9.33333 24 10.8229 24 12.6667C24 14.5104 22.5104 16 20.6666 16C18.8229 16 17.3333 14.5104 17.3333 12.6667C17.3333 10.8229 18.8229 9.33333 20.6666 9.33333ZM10.6666 17.3333H5.33329V13.3333H10.6666V17.3333ZM26.6666 22.6667H14.6666V21.3333C14.6666 19.125 16.9791 17.5 18.6666 17.3333H22.6666C24.2708 17.5 26.6666 19.125 26.6666 21.3333V22.6667Z" fill="white"/>
</svg>
