<svg width="32" height="32" viewBox="0 0 32 32" fill="none" xmlns="http://www.w3.org/2000/svg">
<path d="M21 4.00003H20C19.447 4.00003 19 4.44803 19 5.00003C19 6.65403 17.654 8.00003 16 8.00003C14.346 8.00003 13 6.65403 13 5.00003C13 4.44803 12.553 4.00003 12 4.00003H11C6.037 4.00003 2 8.03803 2 13V17C2 17.552 2.447 18 3 18H7V29C7 29.552 7.447 30 8 30H24C24.553 30 25 29.552 25 29V18H29C29.553 18 30 17.552 30 17V13C30 8.03803 25.963 4.00003 21 4.00003ZM28 16H25V13C25 12.448 24.553 12 24 12C23.447 12 23 12.448 23 13V28H9V13C9 12.448 8.553 12 8 12C7.447 12 7 12.448 7 13V16H4V13C4 9.28203 6.96 6.00003 11.101 6.00003C11.566 8.27903 13.585 10 16 10C18.415 10 20.435 8.27903 20.899 6.00003C25.039 6.00003 28 9.28103 28 13V16Z" fill="#92278F"/>
</svg>
