<svg width="32" height="32" viewBox="0 0 32 32" fill="none" xmlns="http://www.w3.org/2000/svg">
<path d="M8 26C9.06086 26 10.0783 25.5786 10.8284 24.8285C11.5786 24.0783 12 23.0609 12 22C12 20.9392 11.5786 19.9217 10.8284 19.1716C10.0783 18.4215 9.06086 18 8 18C6.93913 18 5.92172 18.4215 5.17157 19.1716C4.42143 19.9217 4 20.9392 4 22C4 23.0609 4.42143 24.0783 5.17157 24.8285C5.92172 25.5786 6.93913 26 8 26ZM8 28C7.21207 28 6.43185 27.8448 5.7039 27.5433C4.97595 27.2418 4.31451 26.7998 3.75736 26.2427C3.20021 25.6855 2.75825 25.0241 2.45672 24.2961C2.15519 23.5682 2 22.788 2 22C2 21.2121 2.15519 20.4319 2.45672 19.7039C2.75825 18.976 3.20021 18.3145 3.75736 17.7574C4.31451 17.2002 4.97595 16.7583 5.7039 16.4568C6.43185 16.1552 7.21207 16 8 16C9.5913 16 11.1174 16.6322 12.2426 17.7574C13.3679 18.8826 14 20.4087 14 22C14 23.5913 13.3679 25.1175 12.2426 26.2427C11.1174 27.3679 9.5913 28 8 28Z" fill="#92278F"/>
<path d="M9 21H19C19.6667 21 20 21.3334 20 22C20 22.6667 19.6667 23 19 23H9C8.33333 23 8 22.6667 8 22C8 21.3334 8.33333 21 9 21Z" fill="#92278F"/>
<path d="M24 26C25.0609 26 26.0783 25.5786 26.8284 24.8285C27.5786 24.0783 28 23.0609 28 22C28 20.9392 27.5786 19.9217 26.8284 19.1716C26.0783 18.4215 25.0609 18 24 18C22.9391 18 21.9217 18.4215 21.1716 19.1716C20.4214 19.9217 20 20.9392 20 22C20 23.0609 20.4214 24.0783 21.1716 24.8285C21.9217 25.5786 22.9391 26 24 26ZM24 28C23.2121 28 22.4319 27.8448 21.7039 27.5433C20.9759 27.2418 20.3145 26.7998 19.7574 26.2427C19.2002 25.6855 18.7583 25.0241 18.4567 24.2961C18.1552 23.5682 18 22.788 18 22C18 21.2121 18.1552 20.4319 18.4567 19.7039C18.7583 18.976 19.2002 18.3145 19.7574 17.7574C20.3145 17.2002 20.9759 16.7583 21.7039 16.4568C22.4319 16.1552 23.2121 16 24 16C25.5913 16 27.1174 16.6322 28.2426 17.7574C29.3679 18.8826 30 20.4087 30 22C30 23.5913 29.3679 25.1175 28.2426 26.2427C27.1174 27.3679 25.5913 28 24 28Z" fill="#92278F"/>
<path d="M15 6.00003C14.7348 6.00003 14.4804 5.89467 14.2929 5.70714C14.1054 5.5196 14 5.26525 14 5.00003C14 4.73481 14.1054 4.48046 14.2929 4.29292C14.4804 4.10539 14.7348 4.00003 15 4.00003H20C20.2231 4.00009 20.4397 4.07473 20.6155 4.21208C20.7912 4.34943 20.916 4.5416 20.97 4.75803L23.97 16.758C24.0273 17.0129 23.9827 17.28 23.8456 17.5024C23.7085 17.7247 23.4899 17.8846 23.2365 17.9478C22.983 18.0111 22.7149 17.9726 22.4894 17.8407C22.264 17.7088 22.0991 17.4939 22.03 17.242L19.22 6.00003H15ZM3 12C2.73478 12 2.48043 11.8947 2.29289 11.7071C2.10536 11.5196 2 11.2653 2 11C2 10.7348 2.10536 10.4805 2.29289 10.2929C2.48043 10.1054 2.73478 10 3 10H7C7.20979 10.0002 7.41422 10.0663 7.58436 10.1891C7.75449 10.3118 7.88171 10.485 7.948 10.684L9.948 16.684C9.99535 16.8099 10.0168 16.9441 10.0111 17.0785C10.0054 17.2129 9.97262 17.3448 9.91475 17.4662C9.85689 17.5876 9.77512 17.6961 9.67434 17.7852C9.57356 17.8743 9.45584 17.9422 9.32823 17.9847C9.20061 18.0273 9.06573 18.0436 8.93165 18.0328C8.79757 18.022 8.66705 17.9842 8.54789 17.9218C8.42874 17.8594 8.32341 17.7736 8.2382 17.6695C8.153 17.5654 8.08966 17.4452 8.052 17.316L6.28 12H3Z" fill="#92278F"/>
<path d="M11.668 18.744L10.332 17.256L20.332 8.25603L21.668 9.74403L11.668 18.744Z" fill="#92278F"/>
</svg>
