<svg width="32" height="32" viewBox="0 0 32 32" fill="none" xmlns="http://www.w3.org/2000/svg">
<path d="M15.9121 1.00199C14.2904 1.04952 13.0004 2.37767 13 4.00004V5.06058C8.44662 5.56967 5.00245 9.41829 5 14V21H4C2.34315 21 1 22.3432 1 24V30C1 30.5523 1.44772 31 2 31H30C30.5523 31 31 30.5523 31 30V24C31 22.3432 29.6569 21 28 21H27V14C26.9975 9.41829 23.5534 5.56967 19 5.06058V4.00004C18.9998 3.18926 18.6715 2.41308 18.0898 1.8483C17.5081 1.28352 16.7225 0.978239 15.9121 1.00199ZM16 3.00004C16.5523 3.00004 17 3.44775 17 4.00004V5.00004H15V4.00004C15 3.44775 15.4477 3.00004 16 3.00004ZM14 7.00004H18C21.866 7.00004 25 10.134 25 14V29H23V24C23 22.3432 21.6569 21 20 21H12C10.3431 21 9 22.3432 9 24V29H7V14C7 10.134 10.134 7.00004 14 7.00004ZM11 12C10.4477 12 10 12.4478 10 13C10 13.5523 10.4477 14 11 14H18V15C18 15.5523 18.4477 16 19 16C19.5523 16 20 15.5523 20 15V14H21C21.5523 14 22 13.5523 22 13C22 12.4478 21.5523 12 21 12H11ZM4 23H5V29H3V24C3 23.4478 3.44772 23 4 23ZM12 23H20C20.5523 23 21 23.4478 21 24V29H11V24C11 23.4478 11.4477 23 12 23ZM27 23H28C28.5523 23 29 23.4478 29 24V29H27V23Z" fill="#ED1C24"/>
</svg>
