<svg width="16" height="16" viewBox="0 0 16 16" fill="none" xmlns="http://www.w3.org/2000/svg">
<path d="M8.00002 5.33334C6.52669 5.33334 5.33335 6.52667 5.33335 8C5.33335 9.47334 6.52669 10.6667 8.00002 10.6667C9.47335 10.6667 10.6667 9.47334 10.6667 8C10.6667 6.52667 9.47335 5.33334 8.00002 5.33334ZM13.96 7.33334C13.809 5.98142 13.2028 4.72103 12.2409 3.75913C11.279 2.79724 10.0186 2.19101 8.66669 2.04V1.33334C8.66669 0.966672 8.36669 0.666672 8.00002 0.666672C7.63335 0.666672 7.33335 0.966672 7.33335 1.33334V2.04C5.98143 2.19101 4.72105 2.79724 3.75915 3.75913C2.79725 4.72103 2.19103 5.98142 2.04002 7.33334H1.33335C0.966687 7.33334 0.666687 7.63334 0.666687 8C0.666687 8.36667 0.966687 8.66667 1.33335 8.66667H2.04002C2.19103 10.0186 2.79725 11.279 3.75915 12.2409C4.72105 13.2028 5.98143 13.809 7.33335 13.96V14.6667C7.33335 15.0333 7.63335 15.3333 8.00002 15.3333C8.36669 15.3333 8.66669 15.0333 8.66669 14.6667V13.96C10.0186 13.809 11.279 13.2028 12.2409 12.2409C13.2028 11.279 13.809 10.0186 13.96 8.66667H14.6667C15.0334 8.66667 15.3334 8.36667 15.3334 8C15.3334 7.63334 15.0334 7.33334 14.6667 7.33334H13.96ZM8.00002 12.6667C5.42002 12.6667 3.33335 10.58 3.33335 8C3.33335 5.42 5.42002 3.33334 8.00002 3.33334C10.58 3.33334 12.6667 5.42 12.6667 8C12.6667 10.58 10.58 12.6667 8.00002 12.6667Z" fill="#00AEEF"/>
</svg>
