<svg width="16" height="16" viewBox="0 0 16 16" fill="none" xmlns="http://www.w3.org/2000/svg">
<path d="M8 1.33333C6.68146 1.33333 5.39252 1.72432 4.2962 2.45686C3.19987 3.18941 2.34539 4.2306 1.8408 5.44877C1.33622 6.66695 1.20419 8.00739 1.46143 9.3006C1.71866 10.5938 2.3536 11.7817 3.28595 12.714C4.2183 13.6464 5.40619 14.2813 6.6994 14.5386C7.9926 14.7958 9.33305 14.6638 10.5512 14.1592C11.7694 13.6546 12.8106 12.8001 13.5431 11.7038C14.2757 10.6075 14.6667 9.31854 14.6667 8C14.6667 7.12452 14.4942 6.25761 14.1592 5.44877C13.8242 4.63993 13.3331 3.90501 12.714 3.28595C12.095 2.66689 11.3601 2.17583 10.5512 1.8408C9.74238 1.50577 8.87548 1.33333 8 1.33333ZM8 13.3333C6.94516 13.3333 5.91402 13.0205 5.03696 12.4345C4.15989 11.8485 3.47631 11.0155 3.07264 10.041C2.66897 9.06643 2.56336 7.99408 2.76914 6.95951C2.97493 5.92495 3.48288 4.97464 4.22876 4.22876C4.97464 3.48288 5.92495 2.97493 6.95952 2.76914C7.99408 2.56335 9.06644 2.66897 10.041 3.07264C11.0155 3.47631 11.8485 4.15989 12.4345 5.03695C13.0205 5.91402 13.3333 6.94516 13.3333 8C13.3333 9.41448 12.7714 10.771 11.7712 11.7712C10.771 12.7714 9.41449 13.3333 8 13.3333Z" fill="#647178"/>
<path d="M9.80665 6.19332C9.74467 6.13084 9.67094 6.08124 9.5897 6.0474C9.50846 6.01355 9.42132 5.99612 9.33332 5.99612C9.24531 5.99612 9.15817 6.01355 9.07693 6.0474C8.99569 6.08124 8.92196 6.13084 8.85998 6.19332L7.99998 7.05999L7.13998 6.19332C7.01445 6.06779 6.84418 5.99726 6.66665 5.99726C6.48911 5.99726 6.31885 6.06779 6.19332 6.19332C6.06778 6.31886 5.99725 6.48912 5.99725 6.66666C5.99725 6.84419 6.06778 7.01445 6.19332 7.13999L7.05998 7.99999L6.19332 8.85999C6.13083 8.92196 6.08123 8.9957 6.04739 9.07694C6.01354 9.15818 5.99612 9.24532 5.99612 9.33332C5.99612 9.42133 6.01354 9.50847 6.04739 9.58971C6.08123 9.67095 6.13083 9.74468 6.19332 9.80666C6.25529 9.86914 6.32902 9.91874 6.41026 9.95258C6.4915 9.98643 6.57864 10.0039 6.66665 10.0039C6.75466 10.0039 6.84179 9.98643 6.92303 9.95258C7.00427 9.91874 7.07801 9.86914 7.13998 9.80666L7.99998 8.93999L8.85998 9.80666C8.92196 9.86914 8.99569 9.91874 9.07693 9.95258C9.15817 9.98643 9.24531 10.0039 9.33332 10.0039C9.42132 10.0039 9.50846 9.98643 9.5897 9.95258C9.67094 9.91874 9.74467 9.86914 9.80665 9.80666C9.86913 9.74468 9.91873 9.67095 9.95258 9.58971C9.98642 9.50847 10.0038 9.42133 10.0038 9.33332C10.0038 9.24532 9.98642 9.15818 9.95258 9.07694C9.91873 8.9957 9.86913 8.92196 9.80665 8.85999L8.93998 7.99999L9.80665 7.13999C9.86913 7.07801 9.91873 7.00428 9.95258 6.92304C9.98642 6.8418 10.0038 6.75466 10.0038 6.66666C10.0038 6.57865 9.98642 6.49151 9.95258 6.41027C9.91873 6.32903 9.86913 6.2553 9.80665 6.19332Z" fill="#647178"/>
</svg>
