<svg width="32" height="32" viewBox="0 0 32 32" fill="none" xmlns="http://www.w3.org/2000/svg">
<path d="M14.3879 4.07403C15.0479 2.73603 16.9559 2.73603 17.6159 4.07403L20.6579 10.238L27.4609 11.226C28.9369 11.441 29.5269 13.256 28.4579 14.296L23.5359 19.095L24.6979 25.87C24.9499 27.34 23.4069 28.461 22.0859 27.767L16.0019 24.568L9.91791 27.768C8.59791 28.461 7.05391 27.34 7.30591 25.87L8.46791 19.095L3.54591 14.297C2.47691 13.255 3.06591 11.441 4.54291 11.227L11.3459 10.237L14.3879 4.07403ZM16.0019 5.32203L13.0919 11.217C12.9628 11.4788 12.772 11.7052 12.536 11.8768C12.2999 12.0484 12.0257 12.16 11.7369 12.202L5.23191 13.147L9.93891 17.736C10.1479 17.9397 10.3043 18.1911 10.3945 18.4686C10.4847 18.7461 10.5062 19.0414 10.4569 19.329L9.34591 25.809L15.1639 22.749C15.4223 22.6131 15.7099 22.5421 16.0019 22.5421C16.2939 22.5421 16.5815 22.6131 16.8399 22.749L22.6579 25.809L21.5479 19.329C21.4985 19.0415 21.5198 18.7462 21.6099 18.4687C21.6999 18.1912 21.8561 17.9398 22.0649 17.736L26.7719 13.147L20.2669 12.202C19.9779 12.1601 19.7035 12.0486 19.4673 11.877C19.231 11.7054 19.0401 11.4789 18.9109 11.217L16.0019 5.32203Z" fill="#FFCB05"/>
<path d="M25.293 9.57703C25.1055 9.3895 25.0002 9.13519 25.0002 8.87003C25.0002 8.60487 25.1055 8.35056 25.293 8.16303L28.293 5.16303C28.3852 5.06752 28.4956 4.99134 28.6176 4.93893C28.7396 4.88652 28.8708 4.85893 29.0036 4.85778C29.1363 4.85663 29.268 4.88193 29.3909 4.93221C29.5138 4.98249 29.6255 5.05674 29.7194 5.15064C29.8132 5.24453 29.8875 5.35618 29.9378 5.47908C29.9881 5.60197 30.0134 5.73365 30.0122 5.86643C30.0111 5.99921 29.9835 6.13043 29.9311 6.25244C29.8787 6.37444 29.8025 6.48478 29.707 6.57703L26.707 9.57703C26.5194 9.7645 26.2651 9.86982 26 9.86982C25.7348 9.86982 25.4805 9.7645 25.293 9.57703ZM2.29296 23.163C2.20005 23.2559 2.12633 23.3661 2.07603 23.4874C2.02572 23.6088 1.9998 23.7388 1.99976 23.8702C1.99971 24.0015 2.02553 24.1316 2.07576 24.253C2.12598 24.3743 2.19961 24.4846 2.29246 24.5775C2.3853 24.6704 2.49554 24.7442 2.61687 24.7945C2.7382 24.8448 2.86826 24.8707 2.9996 24.8707C3.13095 24.8708 3.26102 24.845 3.38239 24.7947C3.50376 24.7445 3.61405 24.6709 3.70696 24.578L6.70696 21.578C6.79987 21.4852 6.87358 21.375 6.92389 21.2536C6.9742 21.1323 7.00011 21.0022 7.00016 20.8709C7.00021 20.7395 6.97438 20.6095 6.92416 20.4881C6.87394 20.3667 6.8003 20.2564 6.70746 20.1635C6.61461 20.0706 6.50438 19.9969 6.38305 19.9466C6.26171 19.8963 6.13166 19.8704 6.00031 19.8703C5.86896 19.8703 5.73889 19.8961 5.61752 19.9463C5.49616 19.9966 5.38587 20.0702 5.29296 20.163L2.29296 23.163ZM2.29296 5.16303C2.48049 4.97556 2.73479 4.87024 2.99996 4.87024C3.26512 4.87024 3.51943 4.97556 3.70696 5.16303L6.70696 8.16303C6.88912 8.35163 6.98991 8.60424 6.98763 8.86643C6.98535 9.12863 6.88019 9.37944 6.69478 9.56485C6.50937 9.75026 6.25856 9.85543 5.99636 9.8577C5.73416 9.85998 5.48156 9.75919 5.29296 9.57703L2.29296 6.57703C2.10549 6.3895 2.00017 6.13519 2.00017 5.87003C2.00017 5.60487 2.10549 5.35056 2.29296 5.16303ZM26.707 20.163C26.5193 19.9755 26.2649 19.8702 25.9996 19.8703C25.7343 19.8704 25.48 19.9759 25.2925 20.1635C25.1049 20.3512 24.9997 20.6056 24.9998 20.8709C24.9998 21.1362 25.1053 21.3905 25.293 21.578L28.293 24.578C28.4806 24.7655 28.735 24.8708 29.0003 24.8707C29.2656 24.8706 29.52 24.7652 29.7075 24.5775C29.895 24.3899 30.0003 24.1354 30.0002 23.8702C30.0001 23.6049 29.8946 23.3505 29.707 23.163L26.707 20.163Z" fill="#FFCB05"/>
</svg>
