<svg width="81" height="108" viewBox="0 0 81 108" fill="none" xmlns="http://www.w3.org/2000/svg">
<path d="M81 40.5C81 58.9359 56.3203 91.7578 45.4992 105.3C42.9047 108.527 38.0953 108.527 35.5008 105.3C24.4898 91.7578 0 58.9359 0 40.5C0 18.1322 18.1322 0 40.5 0C62.8594 0 81 18.1322 81 40.5Z" fill="#39B54A"/>
<circle cx="40.4839" cy="39.1144" r="22.5" fill="white"/>
<g clip-path="url(#clip0_44_31)">
<path fill-rule="evenodd" clip-rule="evenodd" d="M40.525 26.5L54.875 30.325L56.5 31.5V48.35L55.575 49.55L40.25 53.775L24.9 49.55L24 48.35V31.5L25.525 30.325L39.85 26.5H40.525ZM40.3 29L30.3 31.5L31.675 32L40.25 34.25L47.75 32.225L50.125 31.5L40.3 29V29ZM26.5 47.4L39 50.825V36.5L26.5 33.15V47.4ZM41.5 36.5V50.825L54 47.4V33.075L48.95 34.4575V40.875L46.45 41.525V35.1425L41.5 36.5Z" fill="#647178"/>
<ellipse cx="51" cy="30.5" rx="9" ry="8.5" fill="white"/>
<path d="M45 31.8L49 36L57 27" stroke="#647178" stroke-width="1.5" stroke-linecap="round" stroke-linejoin="round"/>
</g>
<defs>
<clipPath id="clip0_44_31">
<rect width="40" height="40" fill="white" transform="translate(19 19)"/>
</clipPath>
</defs>
</svg>
