<svg width="32" height="32" viewBox="0 0 32 32" fill="none" xmlns="http://www.w3.org/2000/svg">
<path d="M9.99991 3.00003C7.80491 3.00003 6.20291 4.60503 5.28091 6.50003C4.35991 8.39503 3.96091 10.68 3.99991 12.688C4.04691 15.02 5.06291 17.375 5.06291 17.375L5.34291 18H13.7499L13.9689 17.25C13.9689 17.25 14.7579 14.309 14.9689 11.5C15.0509 10.395 15.0159 8.47303 14.4059 6.65603C14.1019 5.74603 13.6599 4.85603 12.9369 4.15603C12.2159 3.45703 11.1879 3.00003 9.99991 3.00003ZM21.9999 3.00003C20.8119 3.00003 19.7849 3.45703 19.0619 4.15603C18.3399 4.85603 17.8979 5.74603 17.5939 6.65603C16.9839 8.47303 16.9489 10.395 17.0309 11.5C17.2419 14.309 18.0309 17.25 18.0309 17.25L18.2499 18H26.6559L26.9379 17.375C26.9379 17.375 27.9529 15.02 27.9999 12.687C28.0399 10.68 27.6399 8.39503 26.7189 6.50003C25.7969 4.60503 24.1949 3.00003 21.9999 3.00003ZM9.99991 5.00003C10.7029 5.00003 11.1289 5.20303 11.5309 5.59403C11.9339 5.98403 12.2929 6.60503 12.5309 7.31203C13.0039 8.72703 13.0619 10.527 12.9999 11.375C12.8359 13.551 12.3159 15.371 12.1559 16H6.71991C6.47791 15.316 6.02791 13.984 6.00091 12.656C5.96591 10.961 6.35591 8.89503 7.09491 7.37503C7.83191 5.85503 8.76991 5.00003 9.99991 5.00003ZM21.9999 5.00003C23.2299 5.00003 24.1679 5.85503 24.9059 7.37503C25.6449 8.89503 26.0309 10.961 25.9999 12.656C25.9729 13.984 25.5229 15.316 25.2809 16H19.8439C19.6839 15.371 19.1639 13.55 18.9999 11.375C18.9369 10.527 18.9959 8.72703 19.4689 7.31203C19.7069 6.60503 20.0659 5.98403 20.4689 5.59403C20.8699 5.20403 21.2969 5.00003 21.9999 5.00003ZM4.99991 21V22C4.98791 23.379 5.12091 24.988 5.81291 26.406C6.50191 27.824 7.95691 29 9.99991 29C12.2619 29 13.9799 26.785 13.9999 24C14.0039 23.355 13.9769 22.598 13.7499 21.75L13.5619 21H4.99991ZM18.4379 21L18.2499 21.75C18.0229 22.598 17.9959 23.355 17.9999 24C18.0199 26.785 19.7379 29 21.9999 29C24.0429 29 25.4959 27.824 26.1879 26.406C26.8779 24.988 27.0119 23.379 26.9999 22V21H18.4379ZM7.15491 23H11.9049C11.9399 23.328 12.0029 23.664 11.9989 24C11.9829 26.023 10.9289 27 9.99891 27C8.61991 27 8.04891 26.465 7.59291 25.531C7.26491 24.863 7.22591 23.902 7.15491 23ZM20.0929 23H24.8429C24.7729 23.902 24.7329 24.863 24.4049 25.531C23.9499 26.465 23.3799 27 21.9999 27C21.0699 27 20.0159 26.023 19.9999 24C19.9959 23.664 20.0589 23.328 20.0939 23H20.0929Z" fill="#A70E13"/>
</svg>
