<svg width="32" height="32" viewBox="0 0 32 32" fill="none" xmlns="http://www.w3.org/2000/svg">
<path d="M26.6667 5.33333H30.1511C31.1644 5.33333 32 6.16889 32 7.18222V30.1511C32 31.1644 31.1644 32 30.1511 32H7.18222C6.16889 32 5.33333 31.1644 5.33333 30.1511V26.6667H1.84889C0.835556 26.6667 0 25.8311 0 24.8178V1.84889C0 0.835556 0.835556 0 1.84889 0H24.8178C25.8311 0 26.6667 0.835556 26.6667 1.84889V5.33333ZM3.55556 23.1111H23.1111V3.55556H3.55556V23.1111ZM12.4444 8C12.4444 6.52444 11.2533 5.33333 9.77778 5.33333C8.30222 5.33333 7.11111 6.52444 7.11111 8C7.11111 9.47556 8.30222 10.6667 9.77778 10.6667C11.2533 10.6667 12.4444 9.47556 12.4444 8ZM16 16C16 16 17.7778 7.11111 21.3333 7.11111V21.3333H5.33333V10.6667C8.88889 10.6667 8.88889 16 8.88889 16C8.88889 16 9.47556 12.4444 12.4444 12.4444C15.4133 12.4444 16 16 16 16ZM28.4444 28.4444V8.88889H26.6667V24.8178C26.6667 25.8311 25.8311 26.6667 24.8178 26.6667H8.88889V28.4444H28.4444Z" fill="#39B54A"/>
</svg>
