<svg width="32" height="32" viewBox="0 0 32 32" fill="none" xmlns="http://www.w3.org/2000/svg">
<g clip-path="url(#clip0_168_302)">
<path d="M21.5654 11.0867L21.4967 11.1592L21.569 11.228L22.293 11.917L22.3655 11.986L22.4345 11.9134C23.378 10.9196 24.5033 10.1158 25.7494 9.54551C27.3817 8.80448 29.1722 8.47956 30.9607 8.5998L31.0607 8.60652L31.0672 8.50651L31.1322 7.50651L31.1387 7.40683L31.039 7.40024C29.0523 7.26897 27.0638 7.63077 25.2506 8.45346L25.2504 8.45358C23.8647 9.08722 22.6138 9.98113 21.5654 11.0867Z" fill="#009444" stroke="#009444" stroke-width="0.2"/>
<path d="M23.8976 6.50009L23.8587 6.4081L23.7667 6.44688C22.8141 6.84823 21.9235 7.38293 21.1214 8.03493L21.1211 8.03523C19.74 9.16874 18.652 10.618 17.9491 12.2607L17.9099 12.3524L18.0014 12.3919L18.9194 12.7879L19.0115 12.8276L19.051 12.7353C19.6777 11.2694 20.6475 9.97562 21.8788 8.96294C22.5925 8.3828 23.3853 7.90744 24.2332 7.55122L24.3257 7.5124L24.2866 7.42008L23.8976 6.50009Z" fill="#009444" stroke="#009444" stroke-width="0.2"/>
<path d="M17.293 6.41697L17.3655 6.48599L17.4345 6.41339C18.378 5.41958 19.5033 4.61579 20.7494 4.04552C22.3817 3.30449 24.1722 2.97957 25.9607 3.09981L26.0607 3.10653L26.0672 3.00652L26.1322 2.00652L26.1387 1.90681L26.039 1.90025C24.0522 1.76958 22.0638 2.13172 20.2506 2.95447L20.2504 2.95459C18.8648 3.58793 17.6139 4.48149 16.5654 5.58671L16.4967 5.65914L16.569 5.72797L17.293 6.41697Z" fill="#009444" stroke="#009444" stroke-width="0.2"/>
<path d="M16.879 3.46479C17.5926 2.88472 18.3854 2.40941 19.2332 2.05323L19.3256 2.01444L19.2866 1.92216L18.8976 1.00016L18.8588 0.908067L18.7667 0.946878C17.8142 1.34823 16.9235 1.88293 16.1214 2.53493L16.1211 2.53523C14.74 3.66874 13.652 5.11805 12.9491 6.76069L12.9099 6.85236L13.0014 6.89185L13.9194 7.28785L14.0115 7.32758L14.051 7.23537C14.6779 5.7701 15.6479 4.47694 16.879 3.46479Z" fill="#009444" stroke="#009444" stroke-width="0.2"/>
<path d="M27.9 18.1V22C27.9 23.436 29.0641 24.6 30.5 24.6C30.8314 24.6 31.1 24.3314 31.1 24V16.5V16.4997C31.0974 15.6173 30.3827 14.9027 29.5003 14.9H29.5L27 18.5M27.9 18.1H27.0813C27.0939 18.233 27.1001 18.3665 27.1 18.5001M27.9 18.1H28V22C28 23.3807 29.1193 24.5 30.5 24.5C30.7761 24.5 31 24.2762 31 24V16.5M27.1 18.5001L27 18.5M27.1 18.5001V18.5H27M27.1 18.5001V23.5C27.1 23.8314 26.8314 24.1 26.5 24.1H25.1M27 18.5V23.5C27 23.7762 26.7761 24 26.5 24H25.1V24.1M25.1 24.1H25V28.75C24.9263 30.0595 23.8099 31.0642 22.5 31L22.5049 31.0999C22.5033 31.1 22.5016 31.1001 22.5 31.1001C23.8627 31.1643 25.0231 30.1183 25.0998 28.7556L25.1 28.7557V28.75V24.1Z" fill="#009444" stroke="#009444" stroke-width="0.2"/>
<path d="M14 16.883C13.5592 16.4888 12.928 16.3903 12.3881 16.6315C11.8482 16.8728 11.5004 17.4087 11.5 18L13.7 20.9C13.8778 21.0334 14.1222 21.0334 14.3 20.9L14.36 20.98C14.36 20.98 14.36 20.98 14.36 20.98C14.5457 20.8408 15.1011 20.4092 15.611 19.8611C15.866 19.587 16.1118 19.2815 16.2944 18.9666C16.4765 18.6527 16.6 18.3221 16.6 18C16.6 17.1164 15.8837 16.4 15 16.4M14 16.883C14.2739 16.6367 14.6291 16.5004 14.9973 16.5H14.9V16.4031M14 16.883L14.0667 16.8085C14.0448 16.789 14.0225 16.7701 13.9998 16.7519M14 16.883L13.9331 16.8087C13.9549 16.7891 13.9771 16.7702 13.9998 16.7519M14.9 16.4031C14.9332 16.401 14.9666 16.4 15 16.4M14.9 16.4031V16.4H15M14.9 16.4031C14.5712 16.4235 14.2566 16.5453 13.9998 16.7519M15 16.4C15 16.4 15.0001 16.4 15.0001 16.4L15 16.5L13.9998 16.7519M14 19.7334C13.6421 19.4322 13.2975 19.0944 13.0387 18.7831C12.9016 18.6181 12.7902 18.4626 12.7136 18.3256C12.6356 18.1858 12.6 18.0762 12.6 18C12.6 17.7791 12.7791 17.6 13 17.6C13.2209 17.6 13.4 17.7791 13.4 18C13.4 18.3314 13.6686 18.6 14 18.6C14.3314 18.6 14.6 18.3314 14.6 18C14.6 17.7791 14.7791 17.6 15 17.6C15.2209 17.6 15.4 17.7791 15.4 18C15.4 18.0762 15.3644 18.1858 15.2864 18.3256C15.2098 18.4626 15.0984 18.6181 14.9613 18.7831C14.7025 19.0944 14.3579 19.4322 14 19.7334Z" fill="#009444" stroke="#009444" stroke-width="0.2"/>
<path d="M21 16.883C20.5592 16.4888 19.928 16.3903 19.3881 16.6315C18.8482 16.8728 18.5004 17.4087 18.5 18L20.7 20.9C20.8778 21.0334 21.1222 21.0334 21.3 20.9L21.36 20.98C21.36 20.98 21.36 20.98 21.36 20.98C21.5457 20.8408 22.1011 20.4092 22.611 19.8611C22.866 19.587 23.1118 19.2815 23.2944 18.9666C23.4765 18.6527 23.6 18.3221 23.6 18C23.6 17.1164 22.8837 16.4 22 16.4M21 16.883C21.2739 16.6367 21.6291 16.5004 21.9973 16.5H21.9V16.4031M21 16.883L21.0667 16.8085C21.0448 16.789 21.0225 16.7701 20.9998 16.7519M21 16.883L20.9331 16.8087C20.9549 16.7891 20.9771 16.7702 20.9998 16.7519M21.9 16.4031C21.9332 16.401 21.9666 16.4 22 16.4M21.9 16.4031V16.4H22M21.9 16.4031C21.5712 16.4235 21.2566 16.5453 20.9998 16.7519M22 16.4C22 16.4 22.0001 16.4 22.0001 16.4L22 16.5L20.9998 16.7519M21 19.7334C20.6421 19.4322 20.2975 19.0944 20.0387 18.7831C19.9016 18.6181 19.7902 18.4626 19.7136 18.3256C19.6356 18.1858 19.6 18.0762 19.6 18C19.6 17.7791 19.7791 17.6 20 17.6C20.2209 17.6 20.4 17.7791 20.4 18C20.4 18.3314 20.6686 18.6 21 18.6C21.3314 18.6 21.6 18.3314 21.6 18C21.6 17.7791 21.7791 17.6 22 17.6C22.2209 17.6 22.4 17.7791 22.4 18C22.4 18.0762 22.3644 18.1858 22.2864 18.3256C22.2098 18.4626 22.0984 18.6181 21.9613 18.7831C21.7025 19.0944 21.3579 19.4322 21 19.7334Z" fill="#009444" stroke="#009444" stroke-width="0.2"/>
<path d="M7.5 16.883C7.05924 16.4888 6.428 16.3903 5.8881 16.6315C5.3482 16.8728 5.00041 17.4087 5 18L7.2 20.9C7.37778 21.0334 7.62222 21.0334 7.8 20.9L7.85998 20.98C7.85999 20.98 7.85999 20.98 7.86 20.98C8.04573 20.8408 8.6011 20.4092 9.11103 19.8611C9.36599 19.587 9.61184 19.2815 9.79444 18.9666C9.97648 18.6527 10.1 18.3221 10.1 18C10.1 17.1164 9.38366 16.4 8.5 16.4M7.5 16.883C7.77387 16.6367 8.12908 16.5004 8.49734 16.5H8.4V16.4031M7.5 16.883L7.56667 16.8085C7.54482 16.789 7.52253 16.7701 7.49984 16.7519M7.5 16.883L7.43313 16.8087C7.4549 16.7891 7.47714 16.7702 7.49984 16.7519M8.4 16.4031C8.4332 16.401 8.46655 16.4 8.5 16.4M8.4 16.4031V16.4H8.5M8.4 16.4031C8.07123 16.4235 7.75665 16.5453 7.49984 16.7519M8.5 16.4C8.50003 16.4 8.50006 16.4 8.50009 16.4L8.5 16.5L7.49984 16.7519M7.5 19.7334C7.14206 19.4322 6.79752 19.0944 6.53871 18.7831C6.40156 18.6181 6.29018 18.4626 6.21361 18.3256C6.13556 18.1858 6.1 18.0762 6.1 18C6.1 17.7791 6.27909 17.6 6.5 17.6C6.72091 17.6 6.9 17.7791 6.9 18C6.9 18.3314 7.16863 18.6 7.5 18.6C7.83137 18.6 8.1 18.3314 8.1 18C8.1 17.7791 8.27909 17.6 8.5 17.6C8.72091 17.6 8.9 17.7791 8.9 18C8.9 18.0762 8.86444 18.1858 8.78639 18.3256C8.70982 18.4626 8.59844 18.6181 8.46129 18.7831C8.20248 19.0944 7.85794 19.4322 7.5 19.7334Z" fill="#009444" stroke="#009444" stroke-width="0.2"/>
<path d="M8.10981 6.40973C7.8443 6.33913 7.64048 6.12553 7.58266 5.85651L7.5609 5.75529L7.4605 5.78055L6.4905 6.02455L6.39537 6.04848L6.41746 6.14405C6.57431 6.8225 7.08484 7.35885 7.74579 7.55316L7.7406 7.56093L7.8886 7.58925C7.99488 7.60958 8.10286 7.61972 8.21107 7.61953V7.61956L8.21369 7.61949C9.08483 7.59512 9.83905 7.00743 10.0756 6.16868L10.1025 6.07358L10.0077 6.04562L9.0487 5.76262L8.94914 5.73324L8.92349 5.83382C8.83018 6.19973 8.48518 6.44337 8.10981 6.40973Z" fill="#009444" stroke="#009444" stroke-width="0.2"/>
</g>
<defs>
<clipPath id="clip0_168_302">
<rect width="32" height="32" fill="white"/>
</clipPath>
</defs>
</svg>
