<svg width="32" height="32" viewBox="0 0 32 32" fill="none" xmlns="http://www.w3.org/2000/svg">
<path d="M27.8161 21.5709L29 17.1313V14.5C28.4915 8.62547 23.5042 4.00003 17.5 4.00003H15.5V14.5H8.25988L7.14463 9.57703C7.04635 9.13124 6.79923 8.7322 6.44394 8.44557C6.08865 8.15894 5.64636 8.0018 5.18988 8.00003H1V10H5.18988L7.71956 21.1669C6.81686 21.406 5.99918 21.8932 5.35913 22.5732C4.71909 23.2532 4.28226 24.0989 4.09815 25.0144C3.91403 25.9299 3.98998 26.8786 4.31738 27.7532C4.64479 28.6278 5.21058 29.3932 5.95065 29.9627C6.69071 30.5322 7.57548 30.8831 8.50473 30.9756C9.43397 31.0681 10.3706 30.8985 11.2084 30.4861C12.0462 30.0736 12.7518 29.4348 13.2451 28.6419C13.7385 27.8491 14 26.9339 14 26C14 25.8313 13.9917 25.6646 13.975 25.5H20.525C20.5085 25.6645 20.5002 25.8312 20.5 26C20.4996 26.8867 20.735 27.7575 21.1821 28.5232C21.6292 29.2889 22.2719 29.922 23.0442 30.3575C23.8166 30.793 24.6908 31.0153 25.5774 31.0015C26.464 30.9878 27.3309 30.7386 28.0894 30.2794C28.8479 29.8202 29.4707 29.1676 29.8938 28.3884C30.317 27.6092 30.5254 26.7315 30.4975 25.8453C30.4697 24.959 30.2067 24.0961 29.7355 23.345C29.2643 22.5939 28.6019 21.9816 27.8161 21.5709ZM17.5 6.00003C22.4007 6.00003 26.4466 9.72991 26.9478 14.5H17.5V6.00003ZM9 29C8.40666 29 7.82664 28.8241 7.33329 28.4944C6.83994 28.1648 6.45542 27.6963 6.22836 27.1481C6.0013 26.5999 5.94189 25.9967 6.05764 25.4148C6.1734 24.8328 6.45912 24.2983 6.87868 23.8787C7.29824 23.4592 7.83279 23.1734 8.41473 23.0577C8.99667 22.9419 9.59987 23.0013 10.1481 23.2284C10.6962 23.4555 11.1648 23.84 11.4944 24.3333C11.8241 24.8267 12 25.4067 12 26C11.9991 26.7954 11.6827 27.5579 11.1203 28.1203C10.5579 28.6828 9.79537 28.9991 9 29ZM21.1727 23.5H13.3273C12.9514 22.8503 12.4344 22.2933 11.8143 21.8703C11.1943 21.4472 10.4871 21.1688 9.74506 21.0558L8.713 16.5H27V16.8688L25.8937 21.0168C25.7628 21.006 25.6314 21.0004 25.5 20.9998C24.6228 21.0005 23.7612 21.2319 23.0017 21.6707C22.2422 22.1096 21.6114 22.7404 21.1727 23.5ZM25.5 29C24.9067 29 24.3266 28.8241 23.8333 28.4944C23.3399 28.1648 22.9554 27.6963 22.7284 27.1481C22.5013 26.5999 22.4419 25.9967 22.5576 25.4148C22.6734 24.8328 22.9591 24.2983 23.3787 23.8787C23.7982 23.4592 24.3328 23.1734 24.9147 23.0577C25.4967 22.9419 26.0999 23.0013 26.6481 23.2284C27.1962 23.4555 27.6648 23.84 27.9944 24.3333C28.3241 24.8267 28.5 25.4067 28.5 26C28.4991 26.7954 28.1827 27.5579 27.6203 28.1203C27.0579 28.6828 26.2954 28.9991 25.5 29Z" fill="#EC008C"/>
</svg>
