<svg width="24" height="24" viewBox="0 0 24 24" fill="none" xmlns="http://www.w3.org/2000/svg">
<path d="M5.14219 1.33594C3.42656 1.33594 2.56875 2.19375 2.56875 3.05156C2.56875 3.90937 3.42656 4.76719 4.28438 4.76719C2.56875 4.76719 1.71094 5.625 1.71094 6.48281C1.71094 7.34063 2.56875 8.19844 3.42656 8.19844C1.71094 8.19844 0.853125 9.05625 0.853125 9.91406C0.853125 10.7719 1.71563 11.625 2.57344 11.625C0.857813 11.625 0 12.4781 0 13.3359C0 14.1937 0.857812 15.0516 1.71562 15.0516H8.57344C8.14687 16.7672 7.71563 18.4781 7.71563 19.3359C7.71563 21.0516 8.57344 22.7625 9 23.1937C9.00938 23.2031 9.42656 23.6203 10.2844 23.6203C11.5687 23.6203 11.5688 22.3359 11.5688 22.3359C11.5688 22.3125 11.9953 20.1937 11.9953 19.3359C11.9953 18.4781 13.7109 15.0516 14.5687 14.1937L15.4266 13.7672V1.76719L14.5687 1.34063H5.14219V1.33594ZM17.0578 0.5625L16.2844 2.19375V13.3359L17.1422 14.1937H23.8828C23.9531 13.6312 24 13.0594 24 12.4781C24 7.37344 21.2016 2.925 17.0578 0.5625Z" fill="white"/>
</svg>
