<svg width="81" height="108" viewBox="0 0 81 108" fill="none" xmlns="http://www.w3.org/2000/svg">
<path d="M81 40.5C81 58.9359 56.3203 91.7578 45.4992 105.3C42.9047 108.527 38.0953 108.527 35.5008 105.3C24.4898 91.7578 0 58.9359 0 40.5C0 18.1322 18.1322 0 40.5 0C62.8594 0 81 18.1322 81 40.5Z" fill="#39B54A"/>
<circle cx="40.4839" cy="39.1144" r="22.5" fill="white"/>
<g clip-path="url(#clip0_44_26)">
<path d="M53.75 51.6256L52.6785 49.2004C52.5442 48.8965 52.415 48.3598 52.3964 48.0283L52.3111 46.5179C52.2905 46.1537 52.2737 38.7733 52.2737 38.7733C52.2739 38.2447 51.9394 37.7936 51.3163 37.773L48.6693 37.6577C48.3312 37.6428 47.7804 37.786 47.6422 38.4873L47.1611 41.5461C47.132 41.7311 46.9422 41.8959 46.7549 41.8988L44.6624 41.9309C44.167 41.9384 43.7538 42.2649 43.7215 42.6739C43.7072 42.8543 43.7697 43.0326 43.8972 43.1759C44.0591 43.3577 44.3094 43.4677 44.5838 43.4779L47.622 43.5903L47.6144 44.2754L46.274 47.7764C46.132 48.1473 45.9899 48.7477 45.9507 49.1434L45.6674 51.9992C45.6413 52.2622 45.7217 52.512 45.8938 52.7026C46.0658 52.8933 46.3061 52.9987 46.5704 52.9997L46.6899 53.0001C46.69 53.0001 46.69 53.0001 46.69 53.0001C47.2067 53.0001 47.6741 52.5825 47.7321 52.0692L47.9972 49.7205C48.0329 49.4051 48.2165 48.8955 48.3901 48.6299L49.7682 46.5225L50.3351 48.884C50.4254 49.2601 50.6375 49.8486 50.8078 50.1959L51.8072 52.2329C51.992 52.6095 52.4091 52.8626 52.8452 52.8626C52.9307 52.8626 53.0148 52.8525 53.0952 52.8326L53.1673 52.8147C53.4244 52.7508 53.6351 52.5853 53.7453 52.3606C53.8555 52.1358 53.857 51.8679 53.75 51.6256ZM46.6897 52.6963V52.6964V52.6963Z" fill="#647178"/>
<path d="M45.7469 41.2621C46.2373 41.2621 46.6639 40.8641 46.698 40.375L46.8901 37.6144C46.9071 37.3685 46.8257 37.1355 46.6608 36.9584C46.4959 36.7813 46.2693 36.6835 46.0227 36.683L42.2278 36.6764C41.7374 36.6764 41.3107 37.0744 41.2767 37.5635L41.0846 40.324C41.0675 40.5699 41.1489 40.8029 41.3138 40.98C41.4788 41.1572 41.7054 41.255 41.9519 41.2554L45.7453 41.2621H45.7469V41.2621Z" fill="#647178"/>
<path d="M46.8634 33.9229C46.9836 34.2509 47.3359 34.5277 47.683 34.5668L48.2421 34.6299C48.2117 35.0246 48.2843 35.4223 48.4594 35.7892C48.723 36.3418 49.1861 36.7586 49.7632 36.9628C50.0103 37.0504 50.2677 37.0948 50.528 37.0948C50.5281 37.0948 50.5281 37.0948 50.5282 37.0948C51.4969 37.0948 52.3652 36.4808 52.6887 35.5671C52.893 34.9901 52.8604 34.368 52.5967 33.8154C52.3331 33.2628 51.8701 32.8459 51.2929 32.6416C51.0457 32.5541 50.7884 32.5098 50.5282 32.5098C50.0798 32.5098 49.653 32.6415 49.2917 32.8733L47.2801 32.6819C47.256 32.6796 47.2324 32.6785 47.2097 32.6785C47.0132 32.6785 46.8422 32.7617 46.7409 32.9069C46.6368 33.0558 46.6181 33.2527 46.6893 33.4473L46.8634 33.9229Z" fill="#647178"/>
<path d="M38.0563 26H27.8389C27.4706 26 27.171 26.2996 27.171 26.6679V43.746C27.171 44.1142 27.4706 44.4138 27.8389 44.4138H38.0563C38.4246 44.4138 38.7242 44.1142 38.7242 43.746V26.6679C38.7242 26.2996 38.4246 26 38.0563 26ZM30.7241 38.2235H28.6193V37.2062H30.7241V38.2235H30.7241ZM36.8496 34.3932H29.0457V27.9448H36.8496V34.3932Z" fill="#647178"/>
</g>
<defs>
<clipPath id="clip0_44_26">
<rect width="27" height="27" fill="white" transform="translate(27 26)"/>
</clipPath>
</defs>
</svg>
