<svg width="32" height="32" viewBox="0 0 32 32" fill="none" xmlns="http://www.w3.org/2000/svg">
<path d="M10 5.33334C7.4385 5.33334 5.33337 7.43847 5.33337 10C5.33337 12.5615 7.4385 14.6667 10 14.6667C12.5616 14.6667 14.6667 12.5615 14.6667 10C14.6667 7.43847 12.5616 5.33334 10 5.33334ZM21.5808 5.89063L8.24744 24.5573L10.4193 26.1094L23.7526 7.44271L21.5808 5.89063ZM10 8C11.1204 8 12 8.87964 12 10C12 11.1204 11.1204 12 10 12C8.87968 12 8.00004 11.1204 8.00004 10C8.00004 8.87964 8.87968 8 10 8ZM22 17.3333C19.4385 17.3333 17.3334 19.4385 17.3334 22C17.3334 24.5615 19.4385 26.6667 22 26.6667C24.5616 26.6667 26.6667 24.5615 26.6667 22C26.6667 19.4385 24.5616 17.3333 22 17.3333ZM22 20C23.1204 20 24 20.8796 24 22C24 23.1204 23.1204 24 22 24C20.8797 24 20 23.1204 20 22C20 20.8796 20.8797 20 22 20Z" fill="#39B54A"/>
</svg>
