<svg width="81" height="108" viewBox="0 0 81 108" fill="none" xmlns="http://www.w3.org/2000/svg">
<path d="M81 40.5C81 58.9359 56.3203 91.7578 45.4992 105.3C42.9047 108.527 38.0953 108.527 35.5008 105.3C24.4898 91.7578 0 58.9359 0 40.5C0 18.1322 18.1322 0 40.5 0C62.8594 0 81 18.1322 81 40.5Z" fill="#39B54A"/>
<circle cx="40.4839" cy="39.1144" r="22.5" fill="white"/>
<path fill-rule="evenodd" clip-rule="evenodd" d="M41.525 26.5L55.875 30.325L57.5 31.5V48.35L56.575 49.55L41.25 53.775L25.9 49.55L25 48.35V31.5L26.525 30.325L40.85 26.5H41.525ZM41.3 29L31.3 31.5L32.675 32L41.25 34.25L48.75 32.225L51.125 31.5L41.3 29V29ZM27.5 47.4L40 50.825V36.5L27.5 33.15V47.4ZM42.5 36.5V50.825L55 47.4V33.075L49.95 34.4575V40.875L47.45 41.525V35.1425L42.5 36.5Z" fill="#647178"/>
</svg>
