<svg width="8" height="8" viewBox="0 0 8 8" fill="none" xmlns="http://www.w3.org/2000/svg">
<path d="M7.09461 2.7586L5.11102 2.47032L4.2243 0.672665C4.20008 0.623447 4.16024 0.583603 4.11102 0.559384C3.98758 0.498446 3.83758 0.549228 3.77586 0.672665L2.88914 2.47032L0.905545 2.7586C0.850857 2.76642 0.800857 2.7922 0.762576 2.83126C0.716296 2.87883 0.690793 2.94282 0.691672 3.00918C0.692551 3.07554 0.71974 3.13884 0.767263 3.18517L2.20242 4.58439L1.86336 6.56017C1.85541 6.60613 1.86049 6.6534 1.87804 6.69662C1.89559 6.73983 1.92489 6.77727 1.96263 6.80468C2.00037 6.83209 2.04504 6.84838 2.09156 6.8517C2.13809 6.85501 2.18461 6.84523 2.22586 6.82345L4.00008 5.89064L5.7743 6.82345C5.82274 6.84923 5.87899 6.85783 5.93289 6.84845C6.06883 6.82501 6.16024 6.69611 6.1368 6.56017L5.79774 4.58439L7.2329 3.18517C7.27196 3.14689 7.29774 3.09689 7.30555 3.0422C7.32665 2.90548 7.23133 2.77892 7.09461 2.7586Z" fill="black"/>
</svg>
