<svg width="24" height="24" viewBox="0 0 24 24" fill="none" xmlns="http://www.w3.org/2000/svg">
<g clip-path="url(#clip0_35_129)">
<path d="M3 4.5C2.17157 4.5 1.5 5.17157 1.5 6C1.5 6.82843 2.17157 7.5 3 7.5C3.82843 7.5 4.5 6.82843 4.5 6C4.5 5.17157 3.82843 4.5 3 4.5ZM8 5C7.448 5 7 5.448 7 6C7 6.552 7.448 7 8 7H21C21.552 7 22 6.552 22 6C22 5.448 21.552 5 21 5H8ZM3 10.5C2.17157 10.5 1.5 11.1716 1.5 12C1.5 12.8284 2.17157 13.5 3 13.5C3.82843 13.5 4.5 12.8284 4.5 12C4.5 11.1716 3.82843 10.5 3 10.5ZM8 11C7.448 11 7 11.448 7 12C7 12.552 7.448 13 8 13H13.1055C14.3675 11.764 16.094 11 18 11L8 11ZM18.002 13C15.292 13 13 15.292 13 18.002C13 20.801 15.2 23 18 23C19 23 20.0008 22.6992 20.8008 22.1992L22.3105 23.7109C22.6975 24.0979 23.3239 24.0979 23.7109 23.7109C24.0979 23.3239 24.0979 22.6975 23.7109 22.3105L22.1992 20.8008C22.6992 20.0008 23 19 23 18C23 15.2 20.801 13 18.002 13L18.002 13ZM18 15C19.7 15 21 16.3 21 18C21 19.7 19.7 21 18 21C16.3 21 15 19.7 15 18C15 16.3 16.3 15 18 15ZM3 16.5C2.17157 16.5 1.5 17.1716 1.5 18C1.5 18.8284 2.17157 19.5 3 19.5C3.82843 19.5 4.5 18.8284 4.5 18C4.5 17.1716 3.82843 16.5 3 16.5ZM8 17C7.448 17 7 17.448 7 18C7 18.552 7.448 19 8 19H11.0801C11.0331 18.673 11 18.34 11 18C11 17.66 11.0331 17.327 11.0801 17H8Z" fill="black"/>
</g>
<defs>
<clipPath id="clip0_35_129">
<rect width="24" height="24" fill="white"/>
</clipPath>
</defs>
</svg>
