<svg width="16" height="16" viewBox="0 0 16 16" fill="none" xmlns="http://www.w3.org/2000/svg">
<path d="M3.66669 10C4.2498 9.99827 4.81084 9.7769 5.23802 9.38L9.41136 11.7647C9.27153 12.3111 9.33317 12.8896 9.585 13.3942C9.83683 13.8989 10.262 14.296 10.7827 14.5128C11.3033 14.7296 11.8847 14.7516 12.4203 14.5749C12.9559 14.3981 13.4099 14.0343 13.6992 13.5502C13.9885 13.066 14.0938 12.4939 13.9957 11.9384C13.8976 11.383 13.6028 10.8815 13.1652 10.5257C12.7276 10.1699 12.1764 9.98357 11.6127 10.0009C11.049 10.0182 10.5103 10.238 10.0954 10.62L5.92202 8.23533C5.96602 8.06867 5.99002 7.896 5.99402 7.72333L10.094 5.38C10.4888 5.73918 10.9951 5.95167 11.528 5.98181C12.0609 6.01195 12.5879 5.85791 13.0207 5.54554C13.4534 5.23317 13.7656 4.78147 13.9048 4.26621C14.044 3.75096 14.0018 3.2035 13.7852 2.71569C13.5687 2.22787 13.1909 1.82938 12.7154 1.58706C12.2398 1.34474 11.6954 1.27334 11.1734 1.38484C10.6515 1.49634 10.1838 1.78394 9.84872 2.19941C9.51368 2.61488 9.33172 3.13294 9.33336 3.66667C9.33602 3.85867 9.36202 4.05 9.41136 4.23533L5.62202 6.4C5.40228 6.06004 5.09787 5.7831 4.7387 5.59638C4.37954 5.40967 3.97798 5.3196 3.57348 5.33503C3.16897 5.35047 2.77544 5.47087 2.43155 5.68441C2.08766 5.89795 1.80523 6.19728 1.61203 6.55299C1.41882 6.90871 1.32148 7.30857 1.32957 7.71328C1.33765 8.118 1.45089 8.51365 1.65815 8.86137C1.86542 9.20908 2.15957 9.49689 2.51172 9.69652C2.86387 9.89615 3.26189 10.0007 3.66669 10Z" fill="white"/>
</svg>
