<svg width="81" height="108" viewBox="0 0 81 108" fill="none" xmlns="http://www.w3.org/2000/svg">
<path d="M81 40.5C81 58.9359 56.3203 91.7578 45.4992 105.3C42.9047 108.527 38.0953 108.527 35.5008 105.3C24.4898 91.7578 0 58.9359 0 40.5C0 18.1322 18.1322 0 40.5 0C62.8594 0 81 18.1322 81 40.5Z" fill="#39B54A"/>
<circle cx="40.4839" cy="39.1144" r="22.5" fill="white"/>
<path d="M54.5499 36.8158L53.6435 33.1904C53.8913 33.1377 54.0772 32.9179 54.0772 32.6545V32.07C54.0772 30.8008 53.0447 29.7683 51.7756 29.7683H47.6472V28.5626C47.6472 27.938 47.1392 27.43 46.5146 27.43H25.4707C24.8462 27.43 24.3382 27.938 24.3382 28.5626V38.5C24.3382 38.8026 24.5835 39.048 24.8862 39.048C25.1888 39.048 25.4342 38.8027 25.4342 38.5V28.5626C25.4342 28.5424 25.4506 28.5261 25.4707 28.5261H46.5146C46.5347 28.5261 46.5511 28.5424 46.5511 28.5626V38.5001C46.5511 38.8027 46.7964 39.0481 47.0991 39.0481C47.4017 39.0481 47.6471 38.8028 47.6471 38.5001V37.8789H54.1118C54.1124 37.8789 54.1128 37.879 54.1133 37.879C54.1138 37.879 54.1143 37.8789 54.1148 37.8789C54.9103 37.8795 55.5857 38.4016 55.8177 39.1211H54.1137C53.811 39.1211 53.5656 39.3664 53.5656 39.6691V40.8382C53.5656 41.785 54.3359 42.5553 55.2827 42.5553H55.9039V44.9666H54.4709C54.0002 43.6074 52.7081 42.6283 51.1909 42.6283C49.6737 42.6283 48.3815 43.6074 47.9109 44.9666H47.647V40.8381C47.647 40.5355 47.4017 40.2901 47.099 40.2901C46.7963 40.2901 46.5509 40.5354 46.5509 40.8381V44.9664H35.1808C34.7101 43.6072 33.4181 42.6282 31.9008 42.6282C30.3836 42.6282 29.0915 43.6072 28.6208 44.9664H25.4707C25.4506 44.9664 25.4342 44.9501 25.4342 44.9299V43.7243H27.809C28.1116 43.7243 28.357 43.4789 28.357 43.1762C28.357 42.8735 28.1117 42.6282 27.809 42.6282H22.548C22.2454 42.6282 22 42.8735 22 43.1762C22 43.4789 22.2453 43.7243 22.548 43.7243H24.3382V44.9299C24.3382 45.5545 24.8463 46.0625 25.4708 46.0625H28.431C28.4309 46.0747 28.4301 46.0868 28.4301 46.099C28.4301 48.0128 29.9871 49.5697 31.9008 49.5697C33.8146 49.5697 35.3716 48.0128 35.3716 46.099C35.3716 46.0867 35.3708 46.0747 35.3706 46.0625H47.7211C47.721 46.0747 47.7201 46.0868 47.7201 46.099C47.7201 48.0128 49.2772 49.5697 51.1909 49.5697C53.1046 49.5697 54.6616 48.0128 54.6616 46.099C54.6616 46.0867 54.6608 46.0747 54.6607 46.0625H56.4519C56.7545 46.0625 56.9999 45.8172 56.9999 45.5145V39.669C57 38.2258 55.9352 37.0267 54.5499 36.8158ZM47.6472 30.8643H51.7756C52.4404 30.8643 52.9812 31.4052 52.9812 32.07V32.1065H47.6472V30.8643ZM47.6472 36.7829V33.2025H52.5168L53.4119 36.7829H47.6472ZM31.9008 48.4739C30.5914 48.4739 29.5261 47.4086 29.5261 46.0991C29.5261 44.7897 30.5914 43.7244 31.9008 43.7244C33.2103 43.7244 34.2756 44.7897 34.2756 46.0991C34.2756 47.4086 33.2103 48.4739 31.9008 48.4739ZM51.191 48.4739C49.8816 48.4739 48.8163 47.4086 48.8163 46.0991C48.8163 44.7897 49.8816 43.7244 51.191 43.7244C52.5004 43.7244 53.5658 44.7897 53.5658 46.0991C53.5658 47.4086 52.5004 48.4739 51.191 48.4739ZM55.904 41.4592H55.2829C54.9404 41.4592 54.6618 41.1806 54.6618 40.8381V40.217H55.9039V41.4592H55.904Z" fill="#647178"/>
<path d="M31.9008 44.9666C31.2763 44.9666 30.7682 45.4747 30.7682 46.0992C30.7682 46.7237 31.2763 47.2318 31.9008 47.2318C32.5254 47.2318 33.0334 46.7237 33.0334 46.0992C33.0334 45.4747 32.5254 44.9666 31.9008 44.9666Z" fill="#647178"/>
<path d="M51.191 44.9666C50.5665 44.9666 50.0584 45.4747 50.0584 46.0992C50.0584 46.7237 50.5665 47.2318 51.191 47.2318C51.8156 47.2318 52.3236 46.7237 52.3236 46.0992C52.3236 45.4747 51.8156 44.9666 51.191 44.9666Z" fill="#647178"/>
<path d="M44.7609 42.6284H36.5772C36.2746 42.6284 36.0292 42.8738 36.0292 43.1765C36.0292 43.4792 36.2745 43.7245 36.5772 43.7245H44.7609C45.0635 43.7245 45.309 43.4792 45.309 43.1765C45.309 42.8738 45.0636 42.6284 44.7609 42.6284Z" fill="#647178"/>
<path d="M30.7317 40.2902H23.7171C23.4145 40.2902 23.1691 40.5356 23.1691 40.8383C23.1691 41.141 23.4144 41.3863 23.7171 41.3863H30.7317C31.0344 41.3863 31.2798 41.141 31.2798 40.8383C31.2798 40.5356 31.0344 40.2902 30.7317 40.2902Z" fill="#647178"/>
<path d="M41.0566 32.8514C40.8426 32.6375 40.4956 32.6375 40.2816 32.8515L35.4081 37.7249L32.8729 35.1897C32.6589 34.9756 32.3119 34.9756 32.0979 35.1897C31.8839 35.4037 31.8839 35.7506 32.0979 35.9647L35.0207 38.8874C35.1277 38.9945 35.2679 39.0479 35.4081 39.0479C35.5483 39.0479 35.6887 38.9945 35.7956 38.8874L41.0565 33.6265C41.2706 33.4124 41.2706 33.0655 41.0566 32.8514Z" fill="#647178"/>
</svg>
