<svg width="32" height="32" viewBox="0 0 32 32" fill="none" xmlns="http://www.w3.org/2000/svg">
<g clip-path="url(#clip0_168_295)">
<path d="M7.77506 15.9001H7.07813C6.08377 15.9 5.275 16.7089 5.275 17.7032V29.2969C5.275 30.2912 6.08377 31.1 7.07813 31.1H7.08065H7.08329H7.08603H7.08888H7.09184H7.0949H7.09807H7.10134H7.10472H7.10821H7.1118H7.11549H7.11928H7.12318H7.12718H7.13128H7.13549H7.13979H7.1442H7.1487H7.15331H7.15801H7.16281H7.16771H7.17271H7.17781H7.183H7.18829H7.19367H7.19915H7.20473H7.2104H7.21616H7.22202H7.22797H7.23401H7.24015H7.24638H7.2527H7.25911H7.26561H7.2722H7.27888H7.28565H7.29251H7.29945H7.30649H7.31361H7.32082H7.32811H7.33549H7.34296H7.35051H7.35814H7.36586H7.37367H7.38155H7.38952H7.39757H7.40571H7.41392H7.42222H7.43059H7.43905H7.44759H7.4562H7.46489H7.47367H7.48251H7.49144H7.50044H7.50952H7.51868H7.52791H7.53722H7.5466H7.55605H7.56558H7.57518H7.58486H7.59461H7.60442H7.61431H7.62428H7.63431H7.64441H7.65458H7.66482H7.67513H7.68551H7.69595H7.70646H7.71704H7.72769H7.7384H7.74917H7.76001H7.77092H7.78189H7.79292H7.80402H7.81518H7.8264H7.83769H7.84903H7.86044H7.8719H7.88343H7.89502H7.90666H7.91837H7.93013H7.94195H7.95382H7.96576H7.97775H7.98979H8.0019H8.01405H8.02626H8.03853H8.05085H8.06322H8.07564H8.08812H8.10065H8.11323H8.12586H8.13854H8.15127H8.16405H8.17688H8.18976H8.20269H8.21566H8.22869H8.24176H8.25487H8.26803H8.28124H8.29449H8.30778H8.32112H8.33451H8.34793H8.3614H8.37492H8.38847H8.40206H8.4157H8.42938H8.44309H8.45685H8.47064H8.48448H8.49835H8.51226H8.5262H8.54019H8.55421H8.56826H8.58235H8.59648H8.61064H8.62483H8.63906H8.65332H8.66762H8.68194H8.6963H8.71069H8.72511H8.73956H8.75404H8.76855H8.78309H8.79766H8.81225H8.82688H8.84153H8.85621H8.87091H8.88564H8.9004H8.91518H8.92998H8.94481H8.95966H8.97454H8.98944H9.00436H9.0193H9.03426H9.04925H9.06425H9.07928H9.09432H9.10939H9.12447H9.13957H9.15469H9.16982H9.18497H9.20014H9.21532H9.23052H9.24574H9.26097H9.27621H9.29147H9.30674H9.32202H9.33731H9.35262H9.36794H9.38327H9.39861H9.41396H9.42931H9.44468H9.46006H9.47544H9.49083H9.50623H9.52164H9.53705H9.55247H9.56789H9.58332H9.59876H9.61419H9.62963H9.64508H9.66052H9.67597H9.69142H9.70687H9.72233H9.73778H9.75323H9.76869H9.78414H9.79959H9.81504H9.83048H9.84592H9.86136H9.8768H9.89223H9.90766H9.92308H9.9385H9.95391H9.96931H9.98471H10.0001H10.0155H10.0309H10.0462H10.0616H10.0769H10.0923H10.1076H10.1229H10.1382H10.1535H10.1688H10.184H10.1993H10.2145H10.2298H10.245H10.2602H10.2754H10.2905H10.3057H10.3208H10.3359H10.351H10.3661H10.3811H10.3962H10.4112H10.4262H10.4412H10.4561H10.4711H10.486H10.5009H10.5158H10.5306H10.5454H10.5602H10.575H10.5898H10.6045H10.6192H10.6338H10.6485H10.6631H10.6777H10.6923H10.7068H10.7213H10.7358H10.7502H10.7646H10.779H10.7934H10.8077H10.822H10.8362H10.8504H10.8646H10.8788H10.8929H10.907H10.921H10.935H10.949H10.9629H10.9768H10.9907H11.0045H11.0183H11.0321H11.0458H11.0594H11.0731H11.0867H11.1002H11.1137H11.1272H11.1406H11.1539H11.1673H11.1806H11.1938H11.207H11.2201H11.2333H11.2463H11.2593H11.2723H11.2852H11.2981H11.3109H11.3237H11.3364H11.349H11.3617H11.3742H11.3868H11.3992H11.4116H11.424H11.4363H11.4485H11.4607H11.4729H11.485H11.497H11.509H11.5209H11.5328H11.5446H11.5563H11.568H11.5796H11.5912H11.6027H11.6142H11.6256H11.6369H11.6482H11.6594H11.6705H11.6816H11.6926H11.7036H11.7145H11.7253H11.7361H11.7468H11.7574H11.768H11.7785H11.7889H11.7992H11.8095H11.8198H11.8299H11.84H11.85H11.86H11.8698H11.8796H11.8894H11.899H11.9086H11.9181H11.9276H11.9369H11.9462H11.9554H11.9646H11.9736H11.9826H11.9915H12.0003H12.0091H12.0178H12.0264H12.0349H12.0433H12.0517H12.06H12.0682H12.0763H12.0843H12.0923H12.1001H12.1079H12.1156H12.1232H12.1308H12.1382H12.1456H12.1528H12.16H12.1671H12.1741H12.1811H12.1879H12.1946H12.2013H12.2079H12.2144H12.2207H12.227H12.2333H12.2394H12.2454H12.2513H12.2572H12.2629H12.2685H12.2741H12.2796H12.2849H12.2902H12.2954H12.3004H12.3054H12.3103H12.3151H12.3197H12.3243H12.3288H12.3332H12.3375H12.3416H12.3457H12.3497H12.3536H12.3573H12.361H12.3646H12.368H12.3714H12.3746H12.3778H12.3808H12.3838H12.3866H12.3893H12.3919H12.3944H12.3968H12.3991H12.4013H12.4033H12.4053H12.4071H12.4088H12.4105H12.4118H12.412H12.4132H12.4134H12.4145H12.4146H12.4157H12.4158H12.4168H12.4169H12.4178H12.4178H12.4186H12.4193H12.4199H12.4204H12.4204H12.4207H12.421H12.4211V31.1C13.0238 31.0928 13.3467 30.3975 12.985 29.9312C12.5694 29.3234 12.35 28.6134 12.35 27.875C12.35 25.8625 13.9875 24.225 16 24.225C18.0125 24.225 19.65 25.8625 19.65 27.875C19.65 28.6251 19.4235 29.346 18.9949 29.9601L18.9949 29.9601C18.6611 30.4387 19.0021 31.1 19.5894 31.1H24.9218C25.9161 31.1 26.7249 30.2912 26.7249 29.2969V17.7032C26.725 16.7089 25.9162 15.9 24.9219 15.9H24.8983L7.77506 15.9001ZM7.77506 15.9001C7.77504 15.9332 7.77502 15.9666 7.775 16L7.875 16.0001V15.9001H7.77506ZM7.97356 8.78909C7.92587 8.86347 7.89969 8.93516 7.885 9.01691L24.225 15.9C24.225 15.9332 24.225 15.9665 24.225 16L24.125 16C24.1239 9.14782 24.1316 9.07952 24.1162 9.01687C24.1152 9.01259 24.114 9.00835 24.1127 9.00197C24.0922 8.89953 24.0461 8.80535 23.9829 8.72822C23.9613 8.70204 21.7677 6.50864 19.4168 4.15797C18.4003 3.14159 17.3544 2.09581 16.442 1.18309C16.1979 0.93903 15.8022 0.93903 15.5581 1.18309C8.04656 8.69513 8.00079 8.73038 7.97998 8.77682C7.97855 8.78003 7.97723 8.78329 7.97356 8.78909ZM7.88938 8.73512C7.88906 8.73562 7.88873 8.73613 7.88841 8.73663C7.88734 8.73904 7.8878 8.738 7.88814 8.7373C7.88873 8.73614 7.88913 8.73551 7.88902 8.73568L7.97353 8.78907L7.88938 8.73512ZM10.2503 8.40003L16 2.65033L21.7496 8.40003H10.2503ZM9.225 9.85003H22.775V15.9H9.225V9.85003ZM10.9 27.875C10.9 28.4875 11.0082 29.0865 11.2178 29.65H7.07812C6.88348 29.65 6.725 29.4916 6.725 29.2969V17.7032C6.725 17.5085 6.88348 17.35 7.07812 17.35H7.08398H7.08996H7.09607H7.10229H7.10864H7.1151H7.12168H7.12839H7.13521H7.14215H7.14921H7.15639H7.16368H7.17109H7.17861H7.18625H7.19401H7.20187H7.20986H7.21795H7.22616H7.23448H7.24292H7.25146H7.26012H7.26889H7.27776H7.28675H7.29585H7.30505H7.31436H7.32378H7.33331H7.34294H7.35268H7.36253H7.37248H7.38254H7.3927H7.40296H7.41333H7.4238H7.43437H7.44504H7.45582H7.4667H7.47767H7.48875H7.49993H7.5112H7.52258H7.53405H7.54562H7.55729H7.56905H7.58091H7.59287H7.60492H7.61706H7.6293H7.64164H7.65406H7.66658H7.67919H7.6919H7.70469H7.71758H7.73056H7.74362H7.75678H7.77002H7.78335H7.79678H7.81028H7.82388H7.83756H7.85133H7.86518H7.87912H7.89315H7.90725H7.92144H7.93572H7.95008H7.96452H7.97904H7.99364H8.00832H8.02309H8.03793H8.05285H8.06785H8.08293H8.09809H8.11333H8.12864H8.14403H8.15949H8.17503H8.19065H8.20634H8.2221H8.23794H8.25385H8.26983H8.28589H8.30202H8.31821H8.33448H8.35082H8.36723H8.38371H8.40026H8.41687H8.43355H8.45031H8.46712H8.48401H8.50096H8.51797H8.53505H8.5522H8.56941H8.58668H8.60401H8.62141H8.63887H8.65639H8.67397H8.69162H8.70932H8.72708H8.74491H8.76279H8.78073H8.79872H8.81678H8.83489H8.85306H8.87128H8.88956H8.90789H8.92628H8.94472H8.96322H8.98177H9.00037H9.01902H9.03772H9.05648H9.07528H9.09414H9.11305H9.132H9.151H9.17006H9.18916H9.2083H9.22749H9.24673H9.26602H9.28535H9.30472H9.32414H9.34361H9.36311H9.38266H9.40226H9.42189H9.44157H9.46128H9.48104H9.50084H9.52067H9.54055H9.56046H9.58041H9.6004H9.62043H9.6405H9.66059H9.68073H9.7009H9.72111H9.74135H9.76162H9.78193H9.80227H9.82264H9.84304H9.86348H9.88394H9.90444H9.92497H9.94552H9.96611H9.98672H10.0074H10.028H10.0487H10.0694H10.0902H10.111H10.1318H10.1526H10.1734H10.1943H10.2152H10.2361H10.2571H10.278H10.299H10.32H10.341H10.3621H10.3831H10.4042H10.4253H10.4465H10.4676H10.4887H10.5099H10.5311H10.5523H10.5735H10.5947H10.616H10.6372H10.6585H10.6798H10.7011H10.7224H10.7437H10.7651H10.7864H10.8078H10.8291H10.8505H10.8719H10.8932H10.9146H10.936H10.9574H10.9788H11.0003H11.0217H11.0431H11.0645H11.086H11.1074H11.1289H11.1503H11.1717H11.1932H11.2146H11.2361H11.2575H11.279H11.3004H11.3218H11.3433H11.3647H11.3862H11.4076H11.429H11.4504H11.4718H11.4933H11.5147H11.5361H11.5575H11.5788H11.6002H11.6216H11.6429H11.6643H11.6856H11.707H11.7283H11.7496H11.7709H11.7922H11.8134H11.8347H11.8559H11.8771H11.8984H11.9196H11.9407H11.9619H11.9831H12.0042H12.0253H12.0464H12.0675H12.0885H12.1096H12.1306H12.1516H12.1726H12.1935H12.2145H12.2354H12.2563H12.2771H12.298H12.3188H12.3396H12.3604H12.3811H12.4018H12.4225H12.4432H12.4638H12.4844H12.505H12.5255H12.5461H12.5666H12.587H12.6074H12.6278H12.6482H12.6685H12.6888H12.7091H12.7293H12.7495H12.7697H12.7898H12.8099H12.83H12.85H12.87H12.8899H12.9098H12.9297H12.9495H12.9693H12.9891H13.0088H13.0284H13.0481H13.0676H13.0872H13.1067H13.1261H13.1455H13.1649H13.1842H13.2035H13.2227H13.2419H13.2611H13.2801H13.2992H13.3182H13.3371H13.356H13.3749H13.3937H13.4124H13.4311H13.4497H13.4683H13.4869H13.5054H13.5238H13.5422H13.5605H13.5788H13.597H13.6151H13.6332H13.6513H13.6692H13.6872H13.705H13.7229H13.7406H13.7583H13.7759H13.7935H13.811H13.8284H13.8458H13.8632H13.8804H13.8976H13.9147H13.9318H13.9488H13.9657H13.9826H13.9994H14.0162H14.0328H14.0494H14.066H14.0824H14.0988H14.1151H14.1314H14.1476H14.1637H14.1797H14.1957H14.2116H14.2274H14.2432H14.2588H14.2744H14.29H14.3054H14.3208H14.3361H14.3513H14.3664H14.3815H14.3965H14.4114H14.4262H14.441H14.4556H14.4702H14.4847H14.4991H14.5135H14.5277H14.5419H14.556H14.57H14.5839H14.5978H14.6115H14.6252H14.6388H14.6522H14.6657H14.679H14.6922H14.7053H14.7184H14.7313H14.7442H14.757H14.7697H14.7823H14.7948H14.8072H14.8195H14.8317H14.8438H14.8558H14.8678H14.8796H14.8914H14.903H14.9146H14.926H14.9374H14.9486H14.9598H14.9708H14.9818H14.9926H15.0034H15.0141H15.0246H15.0351H15.0454H15.0556H15.0658H15.0758H15.0857H15.0956H15.1053H15.1149H15.1244H15.1338H15.1431H15.1523H15.1613H15.1703H15.1792H15.1879H15.1965H15.2051H15.2135H15.2218H15.2299H15.238H15.246H15.2538H15.2616H15.2692H15.275V22.828C12.8052 23.1813 10.9 25.3089 10.9 27.875ZM25.275 29.2969C25.275 29.4916 25.1165 29.65 24.9219 29.65H20.7822C20.9918 29.0865 21.1 28.4875 21.1 27.875C21.1 25.3089 19.1948 23.1813 16.725 22.828V17.35H16.7308H16.7384H16.7462H16.754H16.762H16.77H16.7782H16.7865H16.7949H16.8034H16.8121H16.8208H16.8297H16.8386H16.8477H16.8569H16.8662H16.8756H16.8851H16.8947H16.9044H16.9142H16.9241H16.9342H16.9443H16.9546H16.9649H16.9753H16.9859H16.9965H17.0073H17.0182H17.0291H17.0402H17.0513H17.0626H17.0739H17.0854H17.0969H17.1086H17.1203H17.1322H17.1441H17.1561H17.1682H17.1805H17.1928H17.2052H17.2177H17.2303H17.243H17.2557H17.2686H17.2816H17.2946H17.3077H17.321H17.3343H17.3477H17.3612H17.3747H17.3884H17.4022H17.416H17.4299H17.4439H17.458H17.4722H17.4864H17.5008H17.5152H17.5297H17.5443H17.5589H17.5737H17.5885H17.6034H17.6184H17.6335H17.6486H17.6638H17.6791H17.6945H17.7099H17.7255H17.7411H17.7567H17.7725H17.7883H17.8042H17.8202H17.8362H17.8523H17.8685H17.8848H17.9011H17.9175H17.9339H17.9505H17.9671H17.9837H18.0005H18.0173H18.0341H18.0511H18.0681H18.0851H18.1023H18.1195H18.1367H18.1541H18.1714H18.1889H18.2064H18.224H18.2416H18.2593H18.277H18.2948H18.3127H18.3306H18.3486H18.3667H18.3848H18.4029H18.4211H18.4394H18.4577H18.4761H18.4945H18.513H18.5315H18.5501H18.5688H18.5875H18.6062H18.625H18.6438H18.6627H18.6817H18.7007H18.7197H18.7388H18.7579H18.7771H18.7964H18.8156H18.8349H18.8543H18.8737H18.8932H18.9127H18.9322H18.9518H18.9714H18.9911H19.0108H19.0305H19.0503H19.0702H19.09H19.1099H19.1299H19.1499H19.1699H19.1899H19.21H19.2301H19.2503H19.2705H19.2907H19.311H19.3313H19.3516H19.372H19.3924H19.4128H19.4333H19.4538H19.4743H19.4948H19.5154H19.536H19.5567H19.5773H19.598H19.6187H19.6395H19.6602H19.681H19.7019H19.7227H19.7436H19.7645H19.7854H19.8063H19.8273H19.8482H19.8692H19.8903H19.9113H19.9324H19.9534H19.9745H19.9957H20.0168H20.0379H20.0591H20.0803H20.1015H20.1227H20.1439H20.1652H20.1864H20.2077H20.229H20.2503H20.2716H20.2929H20.3142H20.3356H20.3569H20.3783H20.3996H20.421H20.4424H20.4638H20.4852H20.5066H20.528H20.5494H20.5708H20.5922H20.6137H20.6351H20.6565H20.678H20.6994H20.7209H20.7423H20.7638H20.7852H20.8066H20.8281H20.8495H20.871H20.8924H20.9139H20.9353H20.9567H20.9781H20.9996H21.021H21.0424H21.0638H21.0852H21.1066H21.128H21.1494H21.1707H21.1921H21.2134H21.2348H21.2561H21.2774H21.2987H21.32H21.3413H21.3626H21.3838H21.4051H21.4263H21.4475H21.4687H21.4899H21.5111H21.5322H21.5534H21.5745H21.5956H21.6167H21.6377H21.6588H21.6798H21.7008H21.7218H21.7428H21.7637H21.7846H21.8055H21.8264H21.8472H21.8681H21.8889H21.9096H21.9304H21.9511H21.9718H21.9925H22.0131H22.0337H22.0543H22.0749H22.0954H22.1159H22.1364H22.1568H22.1772H22.1976H22.2179H22.2382H22.2585H22.2787H22.2989H22.3191H22.3392H22.3593H22.3794H22.3994H22.4194H22.4394H22.4593H22.4792H22.499H22.5188H22.5386H22.5583H22.578H22.5976H22.6172H22.6367H22.6562H22.6757H22.6951H22.7145H22.7338H22.7531H22.7724H22.7915H22.8107H22.8298H22.8488H22.8678H22.8868H22.9057H22.9246H22.9434H22.9621H22.9808H22.9995H23.0181H23.0366H23.0551H23.0736H23.092H23.1103H23.1286H23.1468H23.165H23.1831H23.2011H23.2191H23.2371H23.255H23.2728H23.2905H23.3082H23.3259H23.3435H23.361H23.3785H23.3959H23.4132H23.4305H23.4477H23.4648H23.4819H23.4989H23.5159H23.5327H23.5496H23.5663H23.583H23.5996H23.6162H23.6326H23.6491H23.6654H23.6817H23.6979H23.714H23.73H23.746H23.7619H23.7778H23.7935H23.8092H23.8249H23.8404H23.8559H23.8712H23.8866H23.9018H23.917H23.932H23.947H23.962H23.9768H23.9916H24.0063H24.0209H24.0354H24.0498H24.0642H24.0785H24.0926H24.1068H24.1208H24.1347H24.1486H24.1623H24.176H24.1896H24.2031H24.2166H24.2299H24.2431H24.2563H24.2694H24.2823H24.2952H24.308H24.3207H24.3333H24.3459H24.3583H24.3706H24.3829H24.395H24.4071H24.419H24.4309H24.4426H24.4543H24.4659H24.4774H24.4887H24.5H24.5112H24.5223H24.5332H24.5441H24.5549H24.5656H24.5761H24.5866H24.597H24.6072H24.6174H24.6275H24.6374H24.6473H24.657H24.6666H24.6762H24.6856H24.6949H24.7041H24.7132H24.7222H24.7311H24.7398H24.7485H24.757H24.7655H24.7738H24.782H24.7901H24.7981H24.806H24.8137H24.8214H24.8289H24.8363H24.8436H24.8508H24.8578H24.8648H24.8716H24.8783H24.8849H24.8914H24.8977H24.9039H24.91H24.916H24.9219C25.1165 17.35 25.275 17.5085 25.275 17.7032V29.2969Z" fill="#00AEEF" stroke="#00AEEF" stroke-width="0.2"/>
</g>
<defs>
<clipPath id="clip0_168_295">
<rect width="32" height="32" fill="white"/>
</clipPath>
</defs>
</svg>
