<svg width="16" height="16" viewBox="0 0 16 16" fill="none" xmlns="http://www.w3.org/2000/svg">
<path d="M14.5621 7.34294L14.0773 7.05227C13.8709 6.92854 13.7311 6.72427 13.6682 6.49227C13.6671 6.48801 13.6661 6.48374 13.6645 6.47947C13.5999 6.24534 13.6191 5.99574 13.737 5.78294L14.0117 5.28854C14.2922 4.78294 13.9327 4.16054 13.3546 4.15094L12.7839 4.14134C12.5423 4.13707 12.3183 4.02987 12.1477 3.85921C12.1461 3.85761 12.1439 3.85547 12.1423 3.85387C11.9711 3.68321 11.8639 3.45921 11.8602 3.21761L11.8506 2.64694C11.8405 2.06774 11.2181 1.70827 10.7125 1.98934L10.2181 2.26401C10.0058 2.38187 9.75619 2.40107 9.52152 2.33654C9.51725 2.33547 9.51299 2.33441 9.50872 2.33281C9.27672 2.26934 9.07245 2.13014 8.94872 1.92374L8.65805 1.43894C8.36045 0.94294 7.64205 0.94294 7.34445 1.43894L7.05485 1.92161C6.93005 2.12961 6.72419 2.26987 6.49059 2.33387C6.48792 2.33441 6.48579 2.33547 6.48312 2.33601C6.24685 2.40107 5.99565 2.38187 5.78125 2.26294L5.28845 1.98934C4.78285 1.70827 4.16045 2.06774 4.15085 2.64587L4.14125 3.21654C4.13698 3.45814 4.02978 3.68214 3.85912 3.85281C3.85752 3.85441 3.85538 3.85654 3.85378 3.85814C3.68312 4.02934 3.45912 4.13654 3.21752 4.14027L2.64685 4.14987C2.06818 4.16001 1.70872 4.78241 1.98978 5.28801L2.26445 5.78241C2.38232 5.99521 2.40152 6.24427 2.33698 6.47894C2.33592 6.48321 2.33485 6.48747 2.33325 6.49174C2.26978 6.72374 2.13058 6.92801 1.92418 7.05174L1.43938 7.34241C0.943383 7.64001 0.943383 8.35894 1.43938 8.65601L1.92418 8.94721C2.13058 9.07094 2.27032 9.27521 2.33325 9.50721C2.33432 9.51147 2.33538 9.51574 2.33698 9.52001C2.40152 9.75467 2.38232 10.0037 2.26445 10.2165L1.98978 10.712C1.70925 11.2176 2.06872 11.84 2.64685 11.8496L3.21752 11.8592C3.45912 11.8635 3.68312 11.9707 3.85378 12.1413C3.85538 12.1429 3.85752 12.1451 3.85912 12.1467C4.03032 12.3173 4.13752 12.5413 4.14125 12.7829L4.15085 13.3531C4.16045 13.9312 4.78285 14.2907 5.28845 14.0101L5.78285 13.7355C5.99512 13.6176 6.24472 13.5984 6.47938 13.6629C6.48365 13.664 6.48792 13.6651 6.49218 13.6667C6.72418 13.7301 6.92845 13.8693 7.05219 14.0757L7.34285 14.5605C7.64045 15.0565 8.35885 15.0565 8.65645 14.5605L8.94712 14.0757C9.07085 13.8693 9.27512 13.7296 9.50712 13.6667C9.51139 13.6656 9.51565 13.6645 9.51992 13.6629C9.75405 13.5984 10.0037 13.6176 10.2165 13.7355L10.7109 14.0101C11.2165 14.2907 11.8389 13.9312 11.8485 13.3531L11.8581 12.7829C11.8623 12.5413 11.9695 12.3173 12.1402 12.1467C12.1418 12.1451 12.1439 12.1429 12.1455 12.1413C12.3162 11.9701 12.5402 11.8629 12.7818 11.8592L13.3525 11.8496C13.9306 11.84 14.2901 11.2176 14.0095 10.712L13.7349 10.2176C13.617 10.0048 13.5978 9.75574 13.6623 9.52107C13.6634 9.51681 13.6645 9.51254 13.6661 9.50827C13.7295 9.27627 13.8687 9.07201 14.0751 8.94827L14.5599 8.65707C15.0575 8.35947 15.0575 7.64054 14.5621 7.34294H14.5621ZM11.0442 6.77707L7.54552 10.2757C7.44525 10.376 7.30979 10.432 7.16845 10.432C7.02712 10.432 6.89112 10.376 6.79138 10.2757L4.94978 8.43414C4.74125 8.22561 4.74125 7.88854 4.94978 7.68001C5.15832 7.47148 5.49538 7.47148 5.70392 7.68001L7.16845 9.14454L10.2901 6.02294C10.4986 5.81441 10.8357 5.81441 11.0442 6.02294C11.2527 6.23147 11.2527 6.56854 11.0442 6.77707H11.0442Z" fill="#39B54A"/>
</svg>
