<svg width="24" height="24" viewBox="0 0 24 24" fill="none" xmlns="http://www.w3.org/2000/svg">
<path d="M0.117188 9.80156C0.046875 10.3641 0 10.9359 0 11.5172C0 16.6266 2.79844 21.075 6.94219 23.4328L7.71563 21.8016V10.6594L6.85781 9.80156H0.117188ZM24 10.6594C24 9.80156 23.1422 8.94375 22.2844 8.94375H15.4266C15.8531 7.22813 16.2844 5.51719 16.2844 4.65938C16.2844 2.94375 15.4266 1.23281 15 0.801563C14.9906 0.792188 14.5734 0.375 13.7156 0.375C12.4313 0.375 12.4313 1.65938 12.4313 1.65938C12.4313 1.68281 12.0047 3.80156 12.0047 4.65938C12.0047 5.51719 10.2891 8.94375 9.43125 9.80156L8.57344 10.2281V22.2281L9.43125 22.6547H18.8578C20.5734 22.6547 21.4313 21.7969 21.4313 20.9391C21.4313 20.0813 20.5734 19.2234 19.7156 19.2234C21.4313 19.2234 22.2891 18.3656 22.2891 17.5078C22.2891 16.65 21.4312 15.7922 20.5734 15.7922C22.2891 15.7922 23.1469 14.9344 23.1469 14.0766C23.1469 13.2187 22.2891 12.3609 21.4313 12.3609C23.1422 12.375 24 11.5172 24 10.6594V10.6594Z" fill="white"/>
</svg>
