<svg width="31" height="24" viewBox="0 0 31 24" fill="none" xmlns="http://www.w3.org/2000/svg">
<g clip-path="url(#clip0_592_206)">
<path d="M27.7734 24H3.22656C2.37108 23.9992 1.55088 23.6559 0.945964 23.0456C0.341049 22.4354 0.000839734 21.6079 0 20.7448L0 3.2552C0.000839734 2.39213 0.341049 1.56465 0.945964 0.954362C1.55088 0.344077 2.37108 0.000847189 3.22656 0L27.7734 0C28.6289 0.00105852 29.4489 0.344356 30.0538 0.954595C30.6587 1.56483 30.9989 2.39219 31 3.2552V20.7448C30.9989 21.6078 30.6587 22.4352 30.0538 23.0454C29.4489 23.6556 28.6289 23.9989 27.7734 24V24ZM3.22656 2.0264C2.90365 2.02682 2.5941 2.15642 2.36577 2.38677C2.13745 2.61713 2.00899 2.92943 2.00857 3.2552V20.7448C2.00899 21.0706 2.13745 21.3829 2.36577 21.6132C2.5941 21.8436 2.90365 21.9732 3.22656 21.9736H27.7734C28.0963 21.9732 28.4057 21.8436 28.6339 21.6132C28.8621 21.3828 28.9904 21.0705 28.9906 20.7448V3.2552C28.9904 2.92951 28.8621 2.6172 28.6339 2.38682C28.4057 2.15645 28.0963 2.02682 27.7734 2.0264H3.22656Z" fill="black"/>
<path d="M19.1435 20.4128H4.64976C4.38393 20.4124 4.12911 20.3056 3.94121 20.1159C3.75331 19.9262 3.64767 19.669 3.64746 19.4008V19.4008V15.2736H5.65048V18.3864H18.1364V13.072H11.8832C11.6169 13.072 11.3616 12.9653 11.1733 12.7754C10.985 12.5854 10.8793 12.3278 10.8793 12.0592V12.0592V4.59841C10.8792 4.46534 10.905 4.33356 10.9555 4.21059C11.0059 4.08761 11.0798 3.97587 11.173 3.88174C11.2662 3.78761 11.3769 3.71293 11.4988 3.66198C11.6206 3.61104 11.7513 3.58481 11.8832 3.58481H26.3499C26.4821 3.58439 26.613 3.6103 26.7353 3.66106C26.8575 3.71182 26.9685 3.78643 27.0621 3.8806C27.1557 3.97478 27.2299 4.08667 27.2805 4.20985C27.3311 4.33303 27.3571 4.46507 27.357 4.59841V8.56001H25.3445V5.61121H12.8886V11.044H19.1435C19.4101 11.044 19.6658 11.1508 19.8545 11.3408C20.0431 11.5308 20.1493 11.7886 20.1498 12.0576V19.4C20.1493 19.6689 20.0431 19.9266 19.8544 20.1166C19.6657 20.3065 19.41 20.413 19.1435 20.4128V20.4128Z" fill="black"/>
<path d="M9.25564 4.3096H7.24707V17.3376H9.25564V4.3096Z" fill="black"/>
<path d="M23.7561 6.65201H21.7476V20.3976H23.7561V6.65201Z" fill="black"/>
</g>
<defs>
<clipPath id="clip0_592_206">
<rect width="31" height="24" fill="white"/>
</clipPath>
</defs>
</svg>
