<svg width="188" height="88" viewBox="0 0 188 88" fill="none" xmlns="http://www.w3.org/2000/svg">
<g clip-path="url(#clip0_74_3)">
<path d="M86.2765 22.1718C84.0769 22.1718 81.9268 21.5212 80.0979 20.3021C78.269 19.0831 76.8436 17.3505 76.0018 15.3233C75.1601 13.2961 74.9399 11.0655 75.369 8.91346C75.7981 6.76143 76.8573 4.78466 78.4126 3.23313C79.9679 1.6816 81.9496 0.624998 84.1069 0.196933C86.2642 -0.231133 88.5003 -0.0114274 90.5324 0.828253C92.5646 1.66793 94.3015 3.08988 95.5235 4.91429C96.7455 6.73869 97.3978 8.88361 97.3978 11.0778C97.3978 12.5347 97.1101 13.9773 96.5512 15.3233C95.9923 16.6693 95.1731 17.8923 94.1404 18.9225C93.1077 19.9526 91.8817 20.7698 90.5324 21.3273C89.1831 21.8849 87.737 22.1718 86.2765 22.1718Z" fill="#231F20"/>
<path d="M29.3872 70.4444C28.4294 70.4469 27.4805 70.2605 26.5951 69.896C25.7096 69.5315 24.9052 68.9961 24.2279 68.3204C23.5506 67.6448 23.0138 66.8423 22.6484 65.959C22.283 65.0758 22.0962 64.1292 22.0987 63.1737V58.1381H7.86351C6.79873 58.1568 5.74238 57.9468 4.7661 57.5224C3.78982 57.098 2.91645 56.4692 2.20523 55.6785C0.858232 54.1992 0.124353 52.265 0.15187 50.2668C0.144424 48.6688 0.599326 47.1026 1.462 45.7561L23.3655 10.3905L23.4387 10.285C24.0808 9.32257 24.9533 8.53503 25.9772 7.9936C27.0012 7.45217 28.1443 7.17394 29.3031 7.18406C31.2788 7.214 33.1624 8.02183 34.5435 9.43143C35.9245 10.841 36.691 12.7381 36.6757 14.7091V43.6996C38.3706 43.9908 39.9079 44.87 41.016 46.182C42.1241 47.4941 42.7319 49.1545 42.7319 50.8702C42.7319 52.5858 42.1241 54.2463 41.016 55.5583C39.9079 56.8703 38.3706 57.7496 36.6757 58.0407V63.1818C36.6782 64.1373 36.4914 65.0839 36.126 65.9672C35.7606 66.8504 35.2238 67.6529 34.5465 68.3285C33.8692 69.0042 33.0648 69.5396 32.1794 69.9041C31.2939 70.2686 30.3451 70.455 29.3872 70.4525V70.4444ZM22.0987 43.5968V40.0954L19.8745 43.6131L22.0987 43.5968Z" fill="#231F20"/>
<path d="M29.3873 68.6396C28.6668 68.6428 27.9529 68.5036 27.2866 68.2301C26.6204 67.9565 26.0151 67.554 25.5056 67.0458C24.9962 66.5376 24.5927 65.9338 24.3185 65.2692C24.0443 64.6046 23.9048 63.8924 23.908 63.1737V56.3306H7.86357C7.05173 56.346 6.24603 56.1873 5.50101 55.8652C4.75599 55.5431 4.08903 55.0651 3.54526 54.4636C2.50232 53.3158 1.93516 51.8157 1.95845 50.2668C1.95346 49.0109 2.31131 47.7803 2.9892 46.7221L24.8927 11.3808L24.9333 11.3213C25.4122 10.6001 26.0639 10.0094 26.8292 9.60259C27.5946 9.19581 28.4495 8.9858 29.3167 8.99157C30.7508 9.00275 32.124 9.57164 33.1441 10.5772C33.7059 11.1086 34.1507 11.751 34.45 12.4633C34.7494 13.1756 34.8968 13.9422 34.8828 14.7145V45.3989H35.4416C36.8955 45.3989 38.2898 45.9751 39.3179 47.0006C40.346 48.0262 40.9235 49.4171 40.9235 50.8675C40.9235 52.3178 40.346 53.7088 39.3179 54.7343C38.2898 55.7599 36.8955 56.336 35.4416 56.336H34.8828V63.1737C34.8853 63.8924 34.7452 64.6045 34.4706 65.269C34.1959 65.9334 33.7922 66.5371 33.2826 67.0452C32.773 67.5533 32.1677 67.9557 31.5014 68.2294C30.8352 68.503 30.1213 68.6424 29.4008 68.6396H29.3873ZM23.908 45.3989V33.853L16.5978 45.3989H23.908Z" fill="#009444"/>
<path d="M29.3873 67.7818C28.7811 67.784 28.1805 67.6664 27.6201 67.436C27.0597 67.2056 26.5505 66.8669 26.1219 66.4393C25.6932 66.0117 25.3537 65.5038 25.1227 64.9447C24.8917 64.3857 24.7739 63.7865 24.776 63.1819V55.4756H7.8636C7.17239 55.4906 6.48602 55.3573 5.85096 55.0846C5.2159 54.812 4.64698 54.4064 4.18273 53.8953C3.28789 52.9031 2.80327 51.6094 2.82648 50.2749C2.82106 49.1818 3.13288 48.1105 3.72432 47.1902L25.6088 11.8517L25.6386 11.8084C26.0398 11.2039 26.5858 10.7088 27.227 10.3677C27.8683 10.0266 28.5846 9.85027 29.3113 9.85474C30.5255 9.86822 31.6864 10.3536 32.5474 11.2077C33.0237 11.6601 33.4004 12.2065 33.6536 12.8121C33.9067 13.4177 34.0306 14.0693 34.0175 14.7253V46.2594H35.4362C36.6613 46.2594 37.8363 46.7449 38.7026 47.6091C39.5689 48.4733 40.0556 49.6453 40.0556 50.8675C40.0556 52.0896 39.5689 53.2617 38.7026 54.1259C37.8363 54.9901 36.6613 55.4756 35.4362 55.4756H34.0175V63.1737C34.0175 64.3937 33.5317 65.5637 32.6669 66.4264C31.8022 67.2891 30.6293 67.7737 29.4063 67.7737L29.3873 67.7818ZM24.776 46.2594V30.8955L15.0436 46.2675L24.776 46.2594Z" fill="#39B54A"/>
<path d="M71.7485 70.7826C69.1526 70.7826 66.9338 69.5244 65.5097 67.2406L56.922 53.5328V63.4281C56.922 65.3564 56.1541 67.2057 54.7872 68.5692C53.4203 69.9327 51.5665 70.6987 49.6335 70.6987C47.7004 70.6987 45.8466 69.9327 44.4797 68.5692C43.1129 67.2057 42.345 65.3564 42.345 63.4281V14.544C42.345 12.6157 43.1129 10.7664 44.4797 9.40288C45.8466 8.03937 47.7004 7.27336 49.6335 7.27336C51.5665 7.27336 53.4203 8.03937 54.7872 9.40288C56.1541 10.7664 56.922 12.6157 56.922 14.544V31.5585L66.1743 22.3748C67.5526 21.0552 69.3947 20.3275 71.305 20.348C73.2153 20.3684 75.0413 21.1354 76.3909 22.4842C77.7405 23.8329 78.506 25.6559 78.523 27.5616C78.54 29.4672 77.8071 31.3035 76.4818 32.676L66.8741 41.9896L77.9655 59.7833L78.0035 59.8482C78.6283 60.9343 78.9557 62.1651 78.9529 63.4173C78.9419 65.1541 78.3199 66.832 77.1952 68.1579C76.5513 68.9844 75.7247 69.6512 74.7799 70.1065C73.8352 70.5618 72.7977 70.7932 71.7485 70.7826Z" fill="#231F20"/>
<path d="M71.7484 68.9805C69.7981 68.9805 68.1272 68.0226 67.0395 66.2746L56.5991 49.6092L55.1126 51.0948V63.4145C55.1126 64.8649 54.5351 66.2558 53.507 67.2814C52.4789 68.3069 51.0846 68.8831 49.6307 68.8831C48.1767 68.8831 46.7824 68.3069 45.7543 67.2814C44.7262 66.2558 44.1487 64.8649 44.1487 63.4145V14.544C44.1487 13.0937 44.7262 11.7027 45.7543 10.6772C46.7824 9.6516 48.1767 9.07545 49.6307 9.07545C51.0846 9.07545 52.4789 9.6516 53.507 10.6772C54.5351 11.7027 55.1126 13.0937 55.1126 14.544V35.8959L67.4464 23.6519C68.4765 22.6253 69.8733 22.049 71.3295 22.0498C72.7856 22.0506 74.1818 22.6283 75.2109 23.656C76.24 24.6836 76.8177 26.077 76.8169 27.5296C76.8162 28.9822 76.237 30.3749 75.2068 31.4015L64.5684 41.719L76.4139 60.7168L76.4329 60.752C76.9027 61.5658 77.1488 62.4889 77.1463 63.4281C77.1317 64.7517 76.6517 66.0283 75.79 67.035C75.3118 67.6476 74.6983 68.1418 73.9973 68.4793C73.2963 68.8167 72.5267 68.9882 71.7484 68.9805Z" fill="#92278F"/>
<path d="M71.7484 68.12C70.1209 68.12 68.6941 67.3083 67.7691 65.8336L56.7564 48.2455L54.25 50.7457V63.42C54.25 64.6421 53.7633 65.8142 52.897 66.6784C52.0307 67.5425 50.8558 68.028 49.6306 68.028C48.4055 68.028 47.2305 67.5425 46.3642 66.6784C45.4979 65.8142 45.0112 64.6421 45.0112 63.42V14.544C45.0112 13.3219 45.4979 12.1498 46.3642 11.2856C47.2305 10.4214 48.4055 9.93592 49.6306 9.93592C50.8558 9.93592 52.0307 10.4214 52.897 11.2856C53.7633 12.1498 54.25 13.3219 54.25 14.544V37.9605L68.0539 24.2607C68.9247 23.4052 70.0993 22.9278 71.3216 22.9327C72.5438 22.9376 73.7145 23.4243 74.5785 24.2868C75.4424 25.1493 75.9294 26.3176 75.9332 27.5368C75.9371 28.7561 75.4576 29.9274 74.5992 30.7954L63.4779 41.5864L75.6706 61.1416L75.6896 61.1768C76.0851 61.8614 76.2928 62.6379 76.2918 63.4281C76.2742 64.5549 75.8626 65.6402 75.1281 66.4965C74.7281 67.0084 74.2149 67.4213 73.6287 67.7029C73.0425 67.9845 72.399 68.1272 71.7484 68.12Z" fill="#B9529F"/>
<path d="M86.2088 70.5391C85.2508 70.5423 84.3015 70.3564 83.4158 69.9922C82.5301 69.6279 81.7253 69.0925 81.0479 68.4167C80.3704 67.7409 79.8337 66.9382 79.4685 66.0546C79.1034 65.171 78.9171 64.2241 78.9203 63.2684V27.2805C78.9016 26.3141 79.0763 25.3536 79.4341 24.4554C79.7919 23.5571 80.3257 22.739 81.0042 22.0489C81.6828 21.3589 82.4924 20.8107 83.3858 20.4365C84.2792 20.0623 85.2385 19.8696 86.2075 19.8696C87.1764 19.8696 88.1357 20.0623 89.0291 20.4365C89.9225 20.8107 90.7322 21.3589 91.4107 22.0489C92.0892 22.739 92.623 23.5571 92.9808 24.4554C93.3386 25.3536 93.5133 26.3141 93.4946 27.2805V63.2684C93.4982 64.224 93.3122 65.1708 92.9474 66.0544C92.5825 66.9379 92.046 67.7408 91.3688 68.4166C90.6916 69.0924 89.887 69.6279 89.0014 69.9922C88.1158 70.3564 87.1667 70.5423 86.2088 70.5391Z" fill="#231F20"/>
<path d="M86.2086 68.737C85.4879 68.7398 84.7738 68.6003 84.1074 68.3265C83.441 68.0527 82.8355 67.65 82.3259 67.1417C81.8163 66.6333 81.4126 66.0293 81.1381 65.3645C80.8637 64.6998 80.7238 63.9874 80.7267 63.2684V27.2805C80.7105 26.5523 80.8402 25.8282 81.1083 25.1507C81.3765 24.4732 81.7776 23.856 82.2881 23.3353C82.7986 22.8145 83.4083 22.4008 84.0813 22.1183C84.7543 21.8358 85.4771 21.6903 86.2073 21.6903C86.9375 21.6903 87.6603 21.8358 88.3333 22.1183C89.0063 22.4008 89.616 22.8145 90.1265 23.3353C90.637 23.856 91.0381 24.4732 91.3063 25.1507C91.5744 25.8282 91.7041 26.5523 91.6879 27.2805V63.2684C91.6908 63.9871 91.551 64.6993 91.2767 65.3639C91.0024 66.0285 90.599 66.6324 90.0896 67.1407C89.5803 67.649 88.9751 68.0518 88.3091 68.3258C87.643 68.5997 86.9291 68.7395 86.2086 68.737Z" fill="#A70E13"/>
<path d="M86.2087 67.8765C84.9857 67.8765 83.8128 67.3919 82.948 66.5292C82.0832 65.6665 81.5974 64.4965 81.5974 63.2765V27.2886C81.5974 26.0661 82.0842 24.8937 82.9508 24.0292C83.8174 23.1648 84.9927 22.6792 86.2182 22.6792C87.4437 22.6792 88.619 23.1648 89.4855 24.0292C90.3521 24.8937 90.8389 26.0661 90.8389 27.2886V63.2765C90.8389 64.4965 90.3531 65.6665 89.4883 66.5292C88.6235 67.3919 87.4506 67.8765 86.2277 67.8765H86.2087Z" fill="#ED1C24"/>
<path d="M136.121 70.6987C134.967 70.7006 133.828 70.4294 132.799 69.9073C131.769 69.3852 130.879 68.6271 130.2 67.6952C129.465 68.0822 128.7 68.4366 127.93 68.7505C124.858 69.9976 121.573 70.6337 118.257 70.623C114.928 70.6426 111.629 69.9972 108.554 68.7248C105.48 67.4523 102.692 65.5787 100.354 63.2143C98.1077 60.9324 96.301 58.2579 95.0242 55.324C93.6929 52.2325 93.0108 48.9015 93.0201 45.5367C93.0294 42.172 93.73 38.8448 95.0785 35.7607C97.6955 29.81 102.448 25.0501 108.402 22.4154C111.446 21.0472 114.747 20.3407 118.086 20.3427H118.232C121.947 20.4472 125.583 21.4401 128.833 23.2379V14.4601C128.833 12.5318 129.601 10.6825 130.968 9.319C132.334 7.95548 134.188 7.18948 136.121 7.18948C138.054 7.18948 139.908 7.95548 141.275 9.319C142.642 10.6825 143.41 12.5318 143.41 14.4601V63.4362C143.413 64.3919 143.227 65.3388 142.862 66.2224C142.496 67.1059 141.96 67.9087 141.282 68.5845C140.605 69.2603 139.8 69.7957 138.914 70.16C138.029 70.5242 137.079 70.7101 136.121 70.7069V70.6987ZM118.257 34.9814C116.836 34.9708 115.428 35.2469 114.118 35.7931C112.84 36.3195 111.679 37.0924 110.701 38.0675C109.724 39.0427 108.949 40.2008 108.421 41.4754C107.874 42.783 107.597 44.1875 107.608 45.6046C107.598 46.9988 107.875 48.3801 108.421 49.6634C108.961 50.9302 109.739 52.0821 110.713 53.0565C111.695 54.0301 112.856 54.8039 114.134 55.3349C115.444 55.8816 116.853 56.1577 118.273 56.1466C119.671 56.1555 121.055 55.8792 122.342 55.3349C124.909 54.252 126.953 52.2137 128.038 49.6526C128.572 48.4034 128.849 47.0599 128.852 45.702C128.776 44.2015 128.434 42.7263 127.84 41.3456C127.289 40.0731 126.505 38.9149 125.526 37.9308C124.574 36.9805 123.442 36.2281 122.196 35.7171C120.95 35.2062 119.615 34.947 118.268 34.9543L118.257 34.9814Z" fill="#231F20"/>
<path d="M136.122 68.8966C134.976 68.8985 133.858 68.5422 132.925 67.8778C131.992 67.2134 131.292 66.2743 130.922 65.1923C129.753 65.9267 128.523 66.5604 127.246 67.0864C124.392 68.244 121.338 68.8341 118.257 68.8236C115.168 68.8431 112.105 68.245 109.251 67.0646C106.397 65.8842 103.809 64.1453 101.64 61.9507C99.5472 59.8275 97.8653 57.3369 96.6791 54.6043C95.4468 51.7423 94.8154 48.6588 94.8238 45.5441C94.8322 42.4293 95.4802 39.3493 96.7279 36.4939C99.1637 30.9502 103.59 26.516 109.138 24.0632C111.953 22.8051 115.004 22.1595 118.089 22.1691H118.178C121.691 22.2601 125.126 23.2127 128.182 24.9426C129.031 25.4324 129.853 25.9519 130.64 26.5012V14.4601C130.64 13.0098 131.217 11.6188 132.245 10.5933C133.273 9.56772 134.668 8.99157 136.122 8.99157C137.576 8.99157 138.97 9.56772 139.998 10.5933C141.026 11.6188 141.604 13.0098 141.604 14.4601V63.4362C141.606 64.155 141.466 64.8673 141.191 65.5319C140.917 66.1965 140.513 66.8003 140.004 67.3086C139.494 67.8169 138.889 68.2196 138.222 68.4936C137.556 68.7675 136.842 68.9072 136.122 68.9047V68.8966ZM118.257 33.1657C116.593 33.1623 114.945 33.4946 113.413 34.1426C110.398 35.389 108.003 37.7783 106.753 40.7854C106.107 42.3145 105.778 43.9586 105.788 45.6181C105.778 47.2532 106.104 48.8729 106.745 50.3777C107.377 51.8532 108.284 53.1949 109.42 54.331C110.565 55.4681 111.921 56.3723 113.413 56.9935C114.946 57.6365 116.594 57.9632 118.257 57.9541C119.901 57.9652 121.529 57.6401 123.042 56.999C126.032 55.7339 128.413 53.3599 129.682 50.3777C130.316 48.8907 130.642 47.2909 130.64 45.6749C130.558 43.9395 130.164 42.2328 129.476 40.6366C128.838 39.1574 127.928 37.8103 126.793 36.6644C125.672 35.548 124.341 34.664 122.876 34.0636C121.411 33.4631 119.841 33.1579 118.257 33.1657Z" fill="#A70063"/>
<path d="M136.121 68.0362C134.952 68.0437 133.824 67.6061 132.968 66.8127C132.111 66.0193 131.589 64.9298 131.51 63.7663C127.638 66.5079 123.005 67.976 118.257 67.9658C115.282 67.985 112.333 67.4095 109.584 66.2732C106.835 65.1369 104.343 63.4629 102.253 61.35C100.234 59.3007 98.6123 56.8973 97.4682 54.2606C96.2846 51.5073 95.6782 48.5415 95.6861 45.5457C95.694 42.5499 96.3162 39.5874 97.5143 36.8403C99.8631 31.49 104.136 27.2115 109.49 24.8479C112.192 23.6357 115.123 23.0121 118.086 23.0188H118.156C121.528 23.1126 124.824 24.0336 127.753 25.7003C129.056 26.4426 130.306 27.2744 131.494 28.1897V14.4601C131.494 13.2376 131.981 12.0652 132.847 11.2008C133.714 10.3363 134.889 9.85069 136.115 9.85069C137.34 9.85069 138.515 10.3363 139.382 11.2008C140.248 12.0652 140.735 13.2376 140.735 14.4601V63.4362C140.735 64.6562 140.249 65.8262 139.385 66.6889C138.52 67.5515 137.347 68.0362 136.124 68.0362H136.121ZM118.257 32.3188C116.479 32.3043 114.717 32.6485 113.076 33.3308C109.857 34.6657 107.299 37.2174 105.961 40.4283C105.269 42.0635 104.917 43.8216 104.925 45.5965C104.913 47.3545 105.264 49.0961 105.956 50.7132C106.629 52.2894 107.598 53.7223 108.812 54.9344C111.321 57.4236 114.718 58.8172 118.257 58.8092C120.018 58.8212 121.763 58.4722 123.383 57.7836C126.574 56.4292 129.115 53.8954 130.474 50.7132C131.152 49.1132 131.499 47.3931 131.494 45.656C131.407 43.8079 130.988 41.9904 130.257 40.2903C129.576 38.7138 128.606 37.2784 127.395 36.0583C126.194 34.8625 124.767 33.9155 123.197 33.2719C121.628 32.6282 119.946 32.3007 118.249 32.308L118.257 32.3188Z" fill="#EC008C"/>
<path d="M162.471 70.6987C158.044 70.6987 154.062 69.6407 150.644 67.5545C146.98 65.3249 144.487 62.1807 143.236 58.2139C143.018 57.5135 142.916 56.7824 142.933 56.0492C142.925 54.2309 143.575 52.4709 144.764 51.0921C145.428 50.2986 146.262 49.6635 147.205 49.2333C148.147 48.803 149.174 48.5885 150.21 48.6054C151.834 48.5888 153.416 49.1178 154.702 50.1071C155.81 50.9635 156.689 52.0787 157.263 53.3542L157.336 53.5273C157.634 54.299 158.216 54.928 158.964 55.2862C160.039 55.8618 161.242 56.1612 162.463 56.1574C164.313 56.1574 165.845 55.7678 167.025 55.002C167.665 54.5853 167.839 54.2471 167.839 53.4976C167.839 53.2811 167.538 52.9564 166.99 52.5884C165.663 51.6928 163.922 51.0894 161.806 50.7944C157.051 50.1369 153.069 48.765 149.969 46.714C146.076 44.1434 144.104 40.4012 144.104 35.5929C144.104 32.7869 144.718 30.3138 145.93 28.2438C147.067 26.2843 148.652 24.6202 150.555 23.3867C152.372 22.2173 154.385 21.3833 156.498 20.9244C158.456 20.4843 160.458 20.261 162.465 20.2588C164.235 20.2707 165.998 20.4584 167.73 20.8189C169.573 21.187 171.364 21.7786 173.063 22.5804C174.792 23.3864 176.356 24.5058 177.674 25.8816C179.328 27.6007 180.239 29.8987 180.211 32.2809C180.203 33.9101 179.676 35.4946 178.705 36.8051C177.517 38.4638 175.667 39.4542 173.473 39.6138C174.343 40.0777 175.18 40.6002 175.979 41.1778C177.842 42.53 179.404 44.2529 180.566 46.2378C181.823 48.4464 182.466 50.9498 182.429 53.4895C182.45 56.0036 181.868 58.4861 180.731 60.7303C179.64 62.8715 178.098 64.7518 176.21 66.2422C174.309 67.737 172.149 68.8715 169.838 69.5893C167.454 70.3348 164.969 70.709 162.471 70.6987ZM158.89 35.1627C158.939 35.1924 158.988 35.2195 159.042 35.2465C159.558 35.5058 160.105 35.6986 160.67 35.8202C161.565 36.0258 162.446 36.2098 163.295 36.3614C164.763 36.5984 166.217 36.9173 167.649 37.3165C167.089 36.7029 166.624 36.0099 166.268 35.2601C166.125 35.1809 165.975 35.114 165.821 35.0598C164.748 34.6941 163.62 34.5174 162.487 34.5376C161.724 34.5389 160.961 34.5941 160.206 34.7027C159.81 34.7527 159.426 34.8689 159.069 35.0463C159.007 35.0806 158.947 35.1195 158.89 35.1627Z" fill="#231F20"/>
<path d="M162.471 68.8966C158.38 68.8966 154.718 67.9279 151.588 66.0176C148.416 64.1586 146.053 61.1873 144.959 57.6835C144.8 57.1574 144.726 56.6094 144.739 56.06C144.735 54.6706 145.231 53.3259 146.139 52.2718C146.636 51.681 147.26 51.2085 147.964 50.8888C148.668 50.569 149.434 50.4102 150.208 50.4237C151.431 50.4125 152.622 50.8118 153.59 51.5575C154.463 52.2325 155.154 53.1129 155.603 54.1199L155.633 54.193L155.649 54.2309C156.115 55.3935 156.995 56.3436 158.12 56.8988C159.454 57.6132 160.946 57.9851 162.46 57.9812C164.665 57.9812 166.529 57.4941 168.01 56.5336C168.535 56.2307 168.967 55.7891 169.258 55.2573C169.548 54.7255 169.686 54.1241 169.656 53.5192C169.656 53.1323 169.656 52.2258 168.012 51.1164C166.455 50.0665 164.454 49.3657 162.064 49.0302C157.58 48.4106 153.848 47.1361 150.978 45.242C147.623 43.0232 145.919 39.787 145.919 35.6227C145.919 33.1387 146.462 30.974 147.498 29.1827C148.496 27.4542 149.89 25.9863 151.566 24.8993C153.202 23.846 155.015 23.0953 156.918 22.6832C158.742 22.2733 160.606 22.0646 162.476 22.0609C164.124 22.0719 165.767 22.2478 167.38 22.5858C169.079 22.9256 170.729 23.4708 172.295 24.2093C173.82 24.9198 175.2 25.9061 176.364 27.1181C177.702 28.5031 178.441 30.3575 178.42 32.2809C178.411 33.5332 178.003 34.75 177.254 35.7552C176.576 36.705 175.26 37.8333 172.854 37.8333C171.821 37.8333 169.26 37.4924 167.809 34.3157C167.638 33.9613 167.172 33.6366 166.434 33.3687C165.162 32.9284 163.822 32.7141 162.476 32.7355C161.628 32.7362 160.782 32.7977 159.943 32.9195C159.336 32.9963 158.747 33.1795 158.204 33.4607C157.79 33.6811 157.432 33.9941 157.16 34.3753C157.062 34.5078 156.888 34.8407 156.888 35.5875C156.881 35.6506 156.888 35.7145 156.908 35.7748C156.928 35.8351 156.961 35.8903 157.005 35.9365C157.341 36.3128 157.748 36.6206 158.201 36.843C158.85 37.1719 159.538 37.4174 160.249 37.5736C161.174 37.7846 162.088 37.974 162.962 38.1418C165.125 38.4862 167.252 39.0222 169.32 39.7437C171.313 40.4298 173.195 41.4035 174.905 42.6335C176.567 43.8395 177.961 45.3764 178.998 47.1469C180.097 49.0798 180.659 51.2703 180.626 53.4922C180.645 55.7211 180.13 57.9224 179.125 59.9132C178.151 61.825 176.773 63.504 175.087 64.8351C173.354 66.1898 171.388 67.2169 169.285 67.8657C167.08 68.5567 164.782 68.9045 162.471 68.8966Z" fill="#0083CA"/>
<path d="M162.471 68.0362C158.543 68.0362 155.03 67.1108 152.036 65.2843C149.041 63.5288 146.811 60.722 145.781 57.413C145.647 56.9683 145.585 56.5051 145.599 56.0411C145.597 54.8568 146.022 53.7112 146.795 52.813C147.213 52.3178 147.737 51.922 148.327 51.6542C148.918 51.3864 149.561 51.2536 150.21 51.2652C151.245 51.2552 152.253 51.5926 153.072 52.2231C153.831 52.813 154.432 53.5808 154.822 54.4581L154.838 54.4987L154.854 54.5366C155.393 55.8904 156.415 56.997 157.724 57.643C159.181 58.4198 160.808 58.8233 162.46 58.8173C164.836 58.8173 166.86 58.2761 168.482 57.229C169.128 56.8499 169.66 56.3022 170.018 55.6449C170.376 54.9875 170.549 54.2452 170.516 53.4976C170.516 52.748 170.307 51.6035 168.495 50.3831C166.827 49.2602 164.698 48.5107 162.186 48.1589C157.827 47.5555 154.214 46.3243 151.453 44.4952C148.352 42.4468 146.779 39.4514 146.779 35.5929C146.779 33.2631 147.273 31.2446 148.241 29.5859C149.171 27.9853 150.465 26.6255 152.019 25.6164C153.571 24.6211 155.289 23.9109 157.092 23.5193C158.854 23.124 160.654 22.9235 162.46 22.9213C164.051 22.9327 165.636 23.1022 167.193 23.4273C168.824 23.75 170.408 24.2717 171.91 24.9805C173.343 25.6443 174.64 26.5672 175.735 27.7026C176.916 28.9332 177.567 30.577 177.547 32.2809C177.536 33.3544 177.184 34.3967 176.541 35.2574C175.979 36.0421 174.88 36.9756 172.841 36.9756C171.756 36.9756 169.776 36.5832 168.577 33.9667C168.305 33.3822 167.684 32.9249 166.716 32.5704C165.349 32.0958 163.91 31.8632 162.463 31.8832C161.574 31.8853 160.687 31.9495 159.807 32.0753C159.1 32.1675 158.416 32.3827 157.784 32.7111C157.255 32.9908 156.799 33.388 156.449 33.872C156.178 34.2562 156.023 34.8352 156.023 35.5902C156.008 35.9241 156.125 36.2506 156.349 36.4993C156.755 36.96 157.248 37.3369 157.8 37.6088C158.514 37.9728 159.271 38.2455 160.054 38.4205C160.992 38.637 161.92 38.8291 162.804 38.9942C164.926 39.3323 167.014 39.8575 169.043 40.5636C170.957 41.223 172.764 42.1593 174.406 43.3425C175.973 44.4778 177.288 45.9253 178.266 47.5934C179.285 49.393 179.807 51.4307 179.777 53.4976C179.795 55.5911 179.312 57.6587 178.369 59.5289C177.453 61.3309 176.158 62.9139 174.571 64.1695C172.921 65.4583 171.049 66.435 169.046 67.0512C166.919 67.7171 164.7 68.0493 162.471 68.0362Z" fill="#00AEEF"/>
<path d="M86.3173 20.3697C91.4572 20.3697 95.6239 16.2132 95.6239 11.0859C95.6239 5.9586 91.4572 1.8021 86.3173 1.8021C81.1774 1.8021 77.0107 5.9586 77.0107 11.0859C77.0107 16.2132 81.1774 20.3697 86.3173 20.3697Z" fill="#FFCB05"/>
<path d="M94.7641 11.0859C94.7641 12.7524 94.2687 14.3815 93.3405 15.7672C92.4124 17.1528 91.0932 18.2328 89.5498 18.8706C88.0063 19.5083 86.308 19.6752 84.6695 19.3501C83.031 19.0249 81.5259 18.2224 80.3446 17.044C79.1633 15.8656 78.3588 14.3642 78.0329 12.7297C77.707 11.0953 77.8743 9.40106 78.5136 7.8614C79.1529 6.32174 80.2355 5.00577 81.6246 4.07991C83.0136 3.15404 84.6467 2.65986 86.3173 2.65986C88.5576 2.65986 90.706 3.5476 92.2901 5.12779C93.8741 6.70798 94.7641 8.85118 94.7641 11.0859Z" fill="#FFF200"/>
<path d="M83.5641 10.6881C84.5318 10.6881 85.3163 9.46943 85.3163 7.96605C85.3163 6.46268 84.5318 5.24396 83.5641 5.24396C82.5963 5.24396 81.8118 6.46268 81.8118 7.96605C81.8118 9.46943 82.5963 10.6881 83.5641 10.6881Z" fill="white"/>
<path d="M84.5026 8.70746C84.5026 9.51922 84.0821 10.1659 83.564 10.1659C83.0459 10.1659 82.6228 9.51381 82.6228 8.70746C82.6228 7.90112 83.0432 7.249 83.564 7.249C84.0848 7.249 84.5026 7.8957 84.5026 8.70746Z" fill="#231F20"/>
<path d="M84.0089 9.04028C84.0089 9.42181 83.8108 9.73298 83.564 9.73298C83.3172 9.73298 83.1165 9.42181 83.1165 9.04028C83.1165 8.65876 83.3172 8.34758 83.564 8.34758C83.8108 8.34758 84.0089 8.65605 84.0089 9.04028Z" fill="white"/>
<path d="M89.1029 10.6881C90.0706 10.6881 90.8551 9.46943 90.8551 7.96605C90.8551 6.46268 90.0706 5.24396 89.1029 5.24396C88.1351 5.24396 87.3506 6.46268 87.3506 7.96605C87.3506 9.46943 88.1351 10.6881 89.1029 10.6881Z" fill="white"/>
<path d="M90.0414 8.70746C90.0414 9.51922 89.6209 10.1659 89.1001 10.1659C88.5794 10.1659 88.1616 9.51381 88.1616 8.70746C88.1616 7.90112 88.5821 7.249 89.1001 7.249C89.6182 7.249 90.0414 7.8957 90.0414 8.70746Z" fill="#231F20"/>
<path d="M89.5479 9.04028C89.5479 9.42181 89.3472 9.73298 89.1004 9.73298C88.8535 9.73298 88.6555 9.42181 88.6555 9.04028C88.6555 8.65876 88.8562 8.34758 89.1004 8.34758C89.3445 8.34758 89.5479 8.65605 89.5479 9.04028Z" fill="white"/>
<path d="M86.3172 13.1884C84.5423 13.1985 82.7762 12.9394 81.0793 12.4199C81.8931 15.0581 83.9329 16.9279 86.3172 16.9279C88.7015 16.9279 90.7386 15.0581 91.555 12.4199C89.8582 12.9394 88.0921 13.1985 86.3172 13.1884Z" fill="#231F20"/>
<path d="M86.3173 16.5842C86.9436 16.5833 87.562 16.4457 88.1293 16.181C87.9316 15.8818 87.6626 15.6363 87.3463 15.4663C87.0301 15.2964 86.6765 15.2075 86.3173 15.2075C85.9581 15.2075 85.6045 15.2964 85.2883 15.4663C84.972 15.6363 84.703 15.8818 84.5054 16.181C85.0726 16.4457 85.6911 16.5833 86.3173 16.5842Z" fill="white"/>
<path d="M32.2788 27.2237C32.2788 27.4504 32.1884 27.6679 32.0277 27.8283C31.867 27.9886 31.6489 28.0787 31.4216 28.0787C31.3089 28.0791 31.1973 28.0572 31.0932 28.0144C30.989 27.9715 30.8944 27.9085 30.8147 27.8291C30.735 27.7496 30.6719 27.6552 30.629 27.5513C30.586 27.4474 30.5641 27.336 30.5645 27.2237V14.4682C30.5645 14.356 30.5866 14.2448 30.6297 14.141C30.6728 14.0373 30.7359 13.943 30.8155 13.8636C30.8951 13.7842 30.9896 13.7212 31.0936 13.6783C31.1976 13.6353 31.309 13.6132 31.4216 13.6132C31.6487 13.6139 31.8663 13.7042 32.0269 13.8644C32.1875 14.0246 32.278 14.2417 32.2788 14.4682V27.2237Z" fill="url(#paint0_linear_74_3)"/>
<path d="M52.5276 27.2237C52.5279 27.336 52.506 27.4474 52.463 27.5513C52.4201 27.6552 52.357 27.7496 52.2773 27.8291C52.1976 27.9085 52.103 27.9715 51.9988 28.0144C51.8947 28.0572 51.7831 28.0791 51.6704 28.0787C51.5577 28.0791 51.4461 28.0572 51.342 28.0144C51.2378 27.9715 51.1432 27.9085 51.0635 27.8291C50.9838 27.7496 50.9207 27.6552 50.8778 27.5513C50.8348 27.4474 50.8129 27.336 50.8132 27.2237V14.4682C50.8132 14.356 50.8354 14.2448 50.8785 14.141C50.9216 14.0373 50.9847 13.943 51.0643 13.8636C51.1439 13.7842 51.2384 13.7212 51.3424 13.6783C51.4464 13.6353 51.5578 13.6132 51.6704 13.6132C51.783 13.6132 51.8944 13.6353 51.9984 13.6783C52.1024 13.7212 52.1969 13.7842 52.2765 13.8636C52.3561 13.943 52.4192 14.0373 52.4623 14.141C52.5054 14.2448 52.5276 14.356 52.5276 14.4682V27.2237Z" fill="url(#paint1_linear_74_3)"/>
<path d="M139.027 27.2237C139.027 27.4504 138.936 27.6679 138.776 27.8283C138.615 27.9886 138.397 28.0787 138.169 28.0787C138.057 28.0791 137.945 28.0572 137.841 28.0144C137.737 27.9715 137.642 27.9085 137.563 27.8291C137.483 27.7496 137.42 27.6552 137.377 27.5513C137.334 27.4474 137.312 27.336 137.312 27.2237V14.4682C137.312 14.356 137.334 14.2448 137.378 14.141C137.421 14.0373 137.484 13.943 137.563 13.8636C137.643 13.7842 137.737 13.7212 137.841 13.6783C137.945 13.6353 138.057 13.6132 138.169 13.6132C138.397 13.6139 138.614 13.7042 138.775 13.8644C138.935 14.0246 139.026 14.2417 139.027 14.4682V27.2237Z" fill="url(#paint2_linear_74_3)"/>
<path d="M89.1138 39.8681C89.113 40.0952 89.0221 40.3126 88.8609 40.4729C88.6998 40.6332 88.4815 40.7232 88.2539 40.7232C88.0268 40.7225 87.8092 40.6322 87.6486 40.472C87.488 40.3118 87.3974 40.0947 87.3967 39.8681V27.1073C87.3967 26.8803 87.4869 26.6625 87.6476 26.5017C87.8083 26.341 88.0263 26.2503 88.2539 26.2495C88.4819 26.2495 88.7006 26.3399 88.8619 26.5008C89.0232 26.6616 89.1138 26.8798 89.1138 27.1073V39.8681Z" fill="url(#paint3_linear_74_3)"/>
<path d="M60.7817 36.0745C60.7021 36.154 60.6076 36.217 60.5036 36.26C60.3996 36.303 60.2881 36.3251 60.1755 36.3251C60.0629 36.3251 59.9514 36.303 59.8474 36.26C59.7433 36.217 59.6488 36.154 59.5692 36.0745C59.4893 35.9953 59.4258 35.9011 59.3825 35.7973C59.3392 35.6935 59.3169 35.5822 59.3169 35.4698C59.3169 35.3573 59.3392 35.246 59.3825 35.1422C59.4258 35.0385 59.4893 34.9442 59.5692 34.865L68.6154 25.8518C68.6949 25.772 68.7893 25.7087 68.8933 25.6655C68.9974 25.6223 69.109 25.6001 69.2217 25.6001C69.3344 25.6001 69.446 25.6223 69.55 25.6655C69.6541 25.7087 69.7485 25.772 69.8279 25.8518C69.9881 26.0125 70.078 26.2299 70.078 26.4566C70.078 26.6832 69.9881 26.9006 69.8279 27.0613L60.7817 36.0745Z" fill="url(#paint4_linear_74_3)"/>
<path d="M11.1159 53.7627C11.0034 53.7627 10.8919 53.7406 10.7879 53.6977C10.6839 53.6547 10.5894 53.5917 10.5098 53.5123C10.4303 53.4329 10.3671 53.3386 10.324 53.2349C10.281 53.1312 10.2588 53.02 10.2588 52.9077C10.2588 52.7954 10.281 52.6842 10.324 52.5805C10.3671 52.4767 10.4303 52.3825 10.5098 52.3031C10.5894 52.2237 10.6839 52.1607 10.7879 52.1177C10.8919 52.0748 11.0034 52.0526 11.1159 52.0526H23.9027C24.0155 52.0523 24.1272 52.0741 24.2315 52.1169C24.3358 52.1598 24.4306 52.2227 24.5105 52.3021C24.5904 52.3816 24.6538 52.4759 24.697 52.5798C24.7403 52.6838 24.7625 52.7952 24.7625 52.9077C24.7625 53.0202 24.7403 53.1316 24.697 53.2355C24.6538 53.3394 24.5904 53.4338 24.5105 53.5133C24.4306 53.5927 24.3358 53.6556 24.2315 53.6984C24.1272 53.7412 24.0155 53.7631 23.9027 53.7627H11.1159Z" fill="url(#paint5_linear_74_3)"/>
<path d="M158.106 64.9894C156.438 64.6188 154.842 63.979 153.381 63.0953C151.353 61.9045 149.739 60.1226 148.756 57.9893C148.679 57.8326 148.552 57.7065 148.394 57.6316C148.236 57.5568 148.057 57.5376 147.887 57.5771C147.716 57.6167 147.564 57.7127 147.456 57.8495C147.347 57.9863 147.288 58.1558 147.289 58.3302C147.289 58.4684 147.326 58.6041 147.397 58.7226C148.512 61.094 150.319 63.0744 152.581 64.4049C154.195 65.3858 155.96 66.096 157.805 66.5073C157.858 66.5206 157.913 66.527 157.968 66.5263C158.165 66.5314 158.357 66.4612 158.504 66.33C158.651 66.1987 158.742 66.0165 158.758 65.8204C158.775 65.6244 158.716 65.4294 158.593 65.2754C158.47 65.1215 158.293 65.0201 158.098 64.9921L158.106 64.9894Z" fill="url(#paint6_linear_74_3)"/>
<path d="M174.97 28.3872C173.967 27.3547 172.782 26.5154 171.474 25.9113C170.048 25.2385 168.545 24.7432 166.998 24.4366C166.275 24.2905 165.567 24.1778 164.877 24.0984C164.834 24.0956 164.792 24.0956 164.749 24.0984C164.552 24.0982 164.362 24.1732 164.219 24.3079C164.075 24.4427 163.989 24.6271 163.977 24.8235C163.965 25.0198 164.029 25.2132 164.155 25.3641C164.282 25.5151 164.461 25.6121 164.657 25.6353C165.316 25.7111 165.997 25.8166 166.691 25.9573C168.113 26.2402 169.495 26.6945 170.806 27.3103C171.95 27.8366 172.986 28.5707 173.861 29.4749C173.932 29.5525 174.019 29.6145 174.115 29.6569C174.212 29.6993 174.316 29.7212 174.422 29.7212C174.576 29.7215 174.728 29.6758 174.856 29.5899C174.984 29.5041 175.084 29.382 175.142 29.2392C175.2 29.0965 175.215 28.9397 175.183 28.7889C175.151 28.638 175.075 28.5001 174.964 28.3926L174.97 28.3872Z" fill="url(#paint7_linear_74_3)"/>
<path d="M183.731 22.6995C185.899 22.6995 187.656 20.9465 187.656 18.7841C187.656 16.6217 185.899 14.8687 183.731 14.8687C181.564 14.8687 179.806 16.6217 179.806 18.7841C179.806 20.9465 181.564 22.6995 183.731 22.6995Z" stroke="#231F20" stroke-width="1.54" stroke-miterlimit="10"/>
<path d="M181.974 16.6627H183.799C184.243 16.6396 184.678 16.7923 185.009 17.0875C185.116 17.1984 185.2 17.3294 185.257 17.4729C185.313 17.6164 185.34 17.7696 185.337 17.9236C185.337 18.6271 184.852 19.0411 184.182 19.1602L185.486 20.8919H184.898L183.666 19.2603H182.451V20.9055H181.974V16.6627ZM183.756 18.8274C184.393 18.8274 184.841 18.5 184.841 17.9561V17.9426C184.841 17.423 184.439 17.1092 183.756 17.1092H182.443V18.8274H183.756Z" fill="#231F20"/>
<path d="M12.6431 86.6958C12.6865 86.6958 12.7272 86.7255 12.7652 86.7851C12.7998 86.8364 12.8195 86.8964 12.8221 86.9582C12.8221 87.2288 12.6214 87.4751 12.2145 87.6834C11.8228 87.8911 11.386 87.9998 10.9424 88C10.51 87.9854 10.0895 87.8555 9.72444 87.6239C9.29551 87.3724 8.93723 87.0168 8.68284 86.5903C8.37966 86.0726 8.12279 85.5293 7.91521 84.9667C7.88808 84.8937 7.84739 84.8585 7.79314 84.8585H7.73346C7.27859 84.9461 6.81604 84.9878 6.3528 84.983C5.20898 85.0054 4.07836 84.7362 3.06797 84.201C2.1204 83.6724 1.34398 82.8848 0.830151 81.9307C0.318503 81.0302 0.0338891 80.0191 0.000813155 78.9844C-0.0322628 77.9498 0.187186 76.9226 0.640273 75.9914C1.06444 74.9942 1.77759 74.1462 2.68822 73.5561C3.62313 72.9338 4.79854 72.6217 6.21447 72.6199C8.0011 72.6199 9.38719 73.0898 10.3727 74.0296C11.0401 74.6437 11.5708 75.3907 11.9305 76.2222C12.2903 77.0537 12.4712 77.9513 12.4614 78.8569C12.462 80.0176 12.1661 81.1593 11.6015 82.1743C11.139 83.1164 10.3676 83.8726 9.41522 84.3173C9.25518 84.3958 9.17652 84.477 9.17652 84.5636C9.2708 84.8803 9.39903 85.1861 9.55898 85.4754C9.75546 85.9291 10.0489 86.3345 10.4188 86.6633C10.7154 86.9176 11.0938 87.0569 11.4849 87.0557C11.7041 87.0412 11.9177 86.9803 12.1114 86.8771C12.2755 86.7835 12.4559 86.722 12.6431 86.6958ZM4.29673 83.6084V83.3892C4.28978 83.1505 4.33225 82.9129 4.42148 82.6913C4.51072 82.4697 4.64479 82.2689 4.81534 82.1013C4.98589 81.9337 5.18924 81.803 5.4127 81.7173C5.63617 81.6316 5.87493 81.5928 6.1141 81.6034C6.65247 81.5996 7.17799 81.7674 7.61411 82.0823C8.0916 82.4281 8.4794 82.8827 8.74523 83.4082C8.77235 83.4677 8.80762 83.4975 8.84559 83.4975C8.93782 83.4975 9.15482 83.3297 9.49388 82.9887C9.891 82.5547 10.1865 82.038 10.3592 81.4762C10.6069 80.7128 10.7252 79.9135 10.7091 79.1112C10.7091 77.329 10.2841 75.9319 9.43421 74.9199C9.04881 74.437 8.55728 74.0489 7.99758 73.7857C7.43788 73.5225 6.825 73.3912 6.20632 73.4019C5.60259 73.395 5.00513 73.5246 4.45878 73.7809C3.91242 74.0372 3.43136 74.4137 3.05169 74.882C2.19997 75.8669 1.7741 77.1224 1.7741 78.6485C1.76066 79.4346 1.84171 80.2195 2.01551 80.9864C2.14237 81.547 2.3763 82.078 2.70449 82.5504C2.96074 82.9117 3.2896 83.2158 3.67014 83.4433C3.85738 83.567 4.05976 83.6661 4.27232 83.7383L4.30757 83.6896L4.29673 83.6084ZM7.4812 83.9331C7.4812 83.787 7.31032 83.492 6.97668 83.0483C6.84891 82.8507 6.67509 82.687 6.47008 82.5711C6.26507 82.4552 6.03497 82.3905 5.79945 82.3826C5.24248 82.3826 4.964 82.7055 4.964 83.3513C4.95354 83.5149 4.98044 83.6786 5.04267 83.8303C5.09137 83.8914 5.15213 83.9419 5.22118 83.9787C5.29023 84.0154 5.3661 84.0377 5.44411 84.044C5.80296 84.0995 6.16614 84.1221 6.52911 84.1117C6.80172 84.1163 7.07416 84.0955 7.34286 84.0494C7.43509 84.0359 7.4812 83.998 7.4812 83.9304V83.9331Z" fill="#231F20"/>
<path d="M15.323 83.3351C15.3203 83.4616 15.3465 83.587 15.3996 83.7018C15.4527 83.8167 15.5313 83.918 15.6295 83.998C15.8308 84.1752 16.0908 84.2716 16.3592 84.2686C16.579 84.2535 16.7912 84.1817 16.9749 84.0603C17.129 83.9516 17.3064 83.8803 17.493 83.8519C17.6015 83.8519 17.6585 83.9169 17.6585 84.0494C17.6585 84.182 17.4523 84.4039 17.0454 84.6366C16.6251 84.8755 16.1484 84.9978 15.6648 84.9911C15.283 84.9962 14.9119 84.8658 14.6177 84.6231C14.3506 84.4259 14.1669 84.1365 14.1024 83.8113C14.0626 83.5011 14.0427 82.3682 14.0427 80.4128C14.0427 80.1422 13.7714 79.9609 13.2289 79.8418C12.993 79.7904 12.8763 79.6984 12.8763 79.5712C12.8751 79.5299 12.8847 79.4889 12.9042 79.4524C12.9237 79.4158 12.9524 79.385 12.9875 79.3629C13.0685 79.3116 13.1629 79.2853 13.2588 79.2871C13.2913 79.2871 13.4514 79.3088 13.7416 79.3548C13.9829 79.3941 14.2268 79.4158 14.4713 79.4197C14.5793 79.4124 14.6859 79.3914 14.7886 79.3575C14.8767 79.3283 14.9676 79.3084 15.0599 79.298C15.2389 79.298 15.3311 79.6687 15.3311 80.4128L15.323 83.3351ZM18.0355 80.5345C18.0407 80.4474 18.028 80.3601 17.9981 80.2781C17.9683 80.1961 17.922 80.1209 17.8621 80.0574C17.8022 79.9938 17.7299 79.9431 17.6496 79.9083C17.5694 79.8736 17.4828 79.8556 17.3953 79.8554C17.2244 79.8464 17.0581 79.7973 16.9098 79.7119C16.8783 79.6843 16.8532 79.6501 16.8363 79.6118C16.8195 79.5735 16.8112 79.5319 16.8122 79.4901C16.8122 79.2871 16.9668 79.1843 17.2814 79.1843C17.4502 79.1973 17.6173 79.2263 17.7805 79.2709C18.0476 79.3305 18.3206 79.3595 18.5943 79.3575C18.6919 79.3541 18.789 79.3423 18.8845 79.3223C18.9551 79.3067 19.0267 79.2959 19.0988 79.2898C19.2453 79.2898 19.3212 79.4576 19.3212 79.7904C19.3212 82.3069 19.3429 83.6454 19.3863 83.8059C19.4297 83.9656 19.6576 84.0954 20.0509 84.1956C20.1883 84.2209 20.3198 84.2714 20.4388 84.3444C20.4617 84.3637 20.4801 84.3877 20.4928 84.4148C20.5054 84.4419 20.512 84.4714 20.512 84.5013C20.5088 84.5436 20.4946 84.5843 20.4709 84.6194C20.4471 84.6545 20.4145 84.6828 20.3764 84.7016C20.2719 84.7671 20.1498 84.7992 20.0265 84.7936C19.8763 84.783 19.7269 84.764 19.5789 84.7367C19.4132 84.7061 19.2455 84.6871 19.0771 84.6799C18.9487 84.6833 18.8211 84.7024 18.6974 84.7367C18.6009 84.7655 18.5019 84.7845 18.4017 84.7936C18.3552 84.8003 18.3078 84.7948 18.264 84.7777C18.2203 84.7607 18.1817 84.7326 18.1521 84.6962C18.0901 84.5425 18.0614 84.3774 18.068 84.2118C18.068 83.9547 18.0464 83.4623 18.0464 82.729L18.0355 80.5345Z" fill="#231F20"/>
<path d="M27.136 83.327C27.136 83.7203 27.3991 83.9908 27.9253 84.1388C28.0299 84.1634 28.1285 84.2085 28.2155 84.2714C28.2504 84.3067 28.277 84.3492 28.2934 84.396C28.3099 84.4428 28.3157 84.4926 28.3105 84.5419C28.3085 84.5817 28.2956 84.6202 28.2731 84.6532C28.2506 84.6861 28.2194 84.7122 28.183 84.7286C28.1016 84.7794 28.0077 84.8065 27.9117 84.8071C27.7682 84.8007 27.626 84.7762 27.4886 84.734C27.3488 84.6904 27.2037 84.6659 27.0573 84.661C26.8957 84.6647 26.7352 84.6893 26.5799 84.734C26.4534 84.7713 26.3234 84.7958 26.192 84.8071C26.1101 84.8052 26.0311 84.7767 25.9669 84.7259C25.9369 84.7088 25.9113 84.685 25.892 84.6564C25.8727 84.6277 25.8603 84.5951 25.8557 84.5609C25.8557 84.4743 25.8285 84.431 25.7743 84.431C25.7205 84.4368 25.6691 84.4564 25.6251 84.4878C25.0255 84.8658 24.3299 85.0649 23.6206 85.0615C23.2266 85.0472 22.8394 84.9553 22.4813 84.7909C22.0735 84.6242 21.7237 84.342 21.475 83.9791C21.2123 83.5778 21.0806 83.1052 21.098 82.6262C21.1063 82.3287 21.1842 82.0372 21.3255 81.7751C21.4668 81.5129 21.6675 81.2873 21.9117 81.1163C22.5156 80.6604 23.26 80.4288 24.0166 80.4615C24.3485 80.4725 24.6741 80.5546 24.9714 80.7023C25.3186 80.8647 25.4922 81.0297 25.4922 81.1975C25.4932 81.2367 25.4839 81.2755 25.4654 81.3101C25.4468 81.3448 25.4196 81.374 25.3864 81.395C25.306 81.4475 25.2112 81.474 25.1152 81.4708C24.9683 81.446 24.8269 81.3956 24.6974 81.322C24.4966 81.2264 24.2771 81.1765 24.0546 81.1758C23.6455 81.1627 23.2465 81.3037 22.937 81.5709C22.7898 81.7045 22.6739 81.8688 22.5975 82.0521C22.5211 82.2354 22.4861 82.4333 22.4949 82.6316C22.4819 82.8543 22.5212 83.0769 22.6097 83.2818C22.6983 83.4866 22.8336 83.6679 23.0048 83.8114C23.3345 84.0843 23.7509 84.2311 24.1793 84.2254C24.5829 84.2252 24.974 84.0856 25.2861 83.8303C25.448 83.7087 25.5783 83.5502 25.6661 83.368C25.7539 83.1858 25.7966 82.9852 25.7906 82.7831V80.5589C25.796 80.4077 25.7691 80.2571 25.7116 80.1171C25.654 79.9771 25.5672 79.851 25.4569 79.7471C25.2132 79.5303 24.8934 79.4185 24.5672 79.436C24.0701 79.4438 23.5869 79.6013 23.1811 79.8879C23.0913 79.9622 22.9855 80.015 22.8719 80.0421C22.7515 80.046 22.6331 80.0099 22.5356 79.9393C22.4908 79.91 22.4542 79.8698 22.4295 79.8224C22.4048 79.775 22.3928 79.7221 22.3945 79.6687C22.3945 79.3981 22.6414 79.1735 23.1323 78.9868C23.6467 78.8003 24.1908 78.7086 24.7381 78.7162C25.3627 78.6864 25.9777 78.8781 26.4741 79.2574C26.6754 79.4067 26.8394 79.6004 26.9533 79.8233C27.0672 80.0463 27.1278 80.2925 27.1305 80.5427L27.136 83.327Z" fill="#231F20"/>
<path d="M31.3456 83.5867C31.3408 83.7225 31.3819 83.8559 31.4622 83.9656C31.5986 84.0986 31.779 84.1775 31.9695 84.1875C32.1421 84.1954 32.3087 84.2527 32.4496 84.3525C32.5095 84.4213 32.5406 84.5104 32.5364 84.6014C32.5364 84.7773 32.4035 84.872 32.1322 84.872C31.8872 84.8662 31.6426 84.8463 31.3999 84.8125C31.1573 84.7765 30.9127 84.7557 30.6675 84.7503C30.4412 84.7556 30.2155 84.7764 29.9921 84.8125C29.7684 84.8466 29.5428 84.8664 29.3167 84.872C29.1707 84.8864 29.0236 84.8612 28.8908 84.799C28.8597 84.7741 28.835 84.7422 28.8185 84.7061C28.802 84.6699 28.7943 84.6303 28.7959 84.5906C28.7934 84.5087 28.8215 84.4287 28.8745 84.366C29.0212 84.2697 29.1925 84.2171 29.3682 84.2145C29.4729 84.2112 29.5756 84.1853 29.6692 84.1386C29.7629 84.0919 29.8453 84.0255 29.9107 83.9439C29.9978 83.7966 30.0419 83.6279 30.0382 83.4569V74.606C30.042 74.4291 29.996 74.2547 29.9053 74.1027C29.8402 74.0172 29.7587 73.9454 29.6656 73.8915C29.5724 73.8377 29.4695 73.8027 29.3628 73.7888C29.1853 73.7659 29.0169 73.6968 28.8745 73.5886C28.8235 73.5258 28.7958 73.4475 28.7959 73.3667C28.7969 73.3235 28.8105 73.2816 28.8351 73.246C28.8597 73.2104 28.8941 73.1828 28.9342 73.1665C29.0207 73.1164 29.119 73.0902 29.219 73.0907C29.3504 73.0959 29.481 73.1122 29.6096 73.1394C29.7355 73.1662 29.8634 73.1825 29.9921 73.1881C30.1333 73.1831 30.2739 73.1668 30.4125 73.1394C30.5521 73.1121 30.6935 73.0959 30.8357 73.0907C30.9063 73.0845 30.9774 73.0939 31.044 73.1182C31.1105 73.1425 31.1709 73.1812 31.2208 73.2314C31.3205 73.3783 31.3647 73.5557 31.3456 73.732V83.5867Z" fill="#231F20"/>
<path d="M35.9245 83.4406C35.9113 83.5337 35.9177 83.6284 35.9434 83.7188C35.9691 83.8092 36.0135 83.8933 36.0737 83.9656C36.1874 84.0541 36.3236 84.1094 36.467 84.1252C36.589 84.1374 36.7077 84.1722 36.8169 84.228C36.8543 84.2617 36.8829 84.3039 36.9004 84.351C36.9179 84.3981 36.9237 84.4488 36.9173 84.4986C36.9173 84.6799 36.7599 84.7692 36.4399 84.7692C36.2339 84.764 36.0283 84.7477 35.8241 84.7205C35.6217 84.6936 35.418 84.6773 35.2138 84.6718C35.0198 84.6782 34.8266 84.7 34.6361 84.7367C34.4482 84.7731 34.2577 84.7948 34.0664 84.8017C33.9486 84.8044 33.8335 84.7661 33.7409 84.6934C33.6993 84.6615 33.6654 84.6206 33.6419 84.5737C33.6184 84.5268 33.6059 84.4752 33.6053 84.4228C33.6045 84.3882 33.6109 84.3538 33.6239 84.3217C33.637 84.2896 33.6565 84.2605 33.6812 84.2361C33.7919 84.1578 33.9228 84.1128 34.0583 84.1063C34.2185 84.0954 34.3692 84.026 34.4814 83.9114C34.5859 83.6896 34.6272 83.4434 34.6008 83.1998V80.429C34.6126 80.3452 34.6053 80.2599 34.5795 80.1793C34.5536 80.0987 34.5099 80.025 34.4516 79.9636C34.3219 79.874 34.1735 79.8148 34.0176 79.7904C33.8853 79.7806 33.7597 79.7284 33.6596 79.6416C33.6115 79.5767 33.5866 79.4976 33.589 79.417C33.5884 79.3699 33.5989 79.3234 33.6196 79.2811C33.6403 79.2388 33.6707 79.2019 33.7084 79.1735C33.7896 79.1099 33.89 79.0756 33.9932 79.0761C34.1288 79.0827 34.2634 79.1036 34.3946 79.1383C34.5196 79.1723 34.6478 79.1932 34.7771 79.2005C34.9209 79.1964 35.0642 79.1811 35.2057 79.1545C35.3473 79.1301 35.4906 79.1156 35.6343 79.1113C35.8377 79.1113 35.9408 79.2817 35.9408 79.62C35.9408 79.6741 35.9408 79.7471 35.9408 79.8364C35.9408 79.9257 35.9408 79.9879 35.9408 80.0204L35.9245 83.4406ZM35.2545 76.3215C35.4989 76.3243 35.7326 76.4224 35.9054 76.5949C36.0783 76.7673 36.1766 77.0004 36.1795 77.2442C36.1799 77.3532 36.1558 77.4608 36.1089 77.5592C36.0619 77.6576 35.9933 77.7441 35.9082 77.8124C35.7319 77.9659 35.5048 78.0488 35.2708 78.0451C35.1521 78.0454 35.0346 78.0216 34.9255 77.9751C34.8164 77.9285 34.7179 77.8603 34.6361 77.7746C34.5504 77.6967 34.482 77.6019 34.4352 77.4961C34.3885 77.3903 34.3645 77.2759 34.3648 77.1603C34.3652 77.0476 34.3895 76.9362 34.4363 76.8336C34.483 76.731 34.5511 76.6394 34.6361 76.565C34.7178 76.4855 34.8145 76.423 34.9207 76.3812C35.0269 76.3394 35.1404 76.3191 35.2545 76.3215Z" fill="#231F20"/>
<path d="M40.1667 82.9076C40.1518 83.2032 40.1737 83.4994 40.2318 83.7897C40.242 83.8439 40.2709 83.8928 40.3135 83.9279C40.3561 83.963 40.4098 83.9821 40.4651 83.9818C40.7103 83.9547 40.9408 83.8515 41.1242 83.6869C41.2722 83.5477 41.4518 83.4465 41.6477 83.3919C41.6851 83.3923 41.722 83.4013 41.7554 83.4182C41.7888 83.4351 41.8178 83.4595 41.8403 83.4893C41.897 83.5576 41.9269 83.6442 41.9244 83.7329C41.9244 83.8871 41.7101 84.1414 41.2788 84.4905C40.9691 84.7883 40.5677 84.9733 40.1396 85.0154C39.2734 85.0154 38.8412 84.3841 38.843 83.1213V79.9636C38.843 79.8581 38.8294 79.8039 38.8023 79.7958C38.649 79.7821 38.495 79.7776 38.3412 79.7823C38.1866 79.7988 38.0307 79.7656 37.8963 79.6876C37.8586 79.6536 37.8289 79.6117 37.8092 79.5649C37.7895 79.5182 37.7804 79.4677 37.7824 79.417C37.7782 79.3757 37.7836 79.3339 37.7982 79.2949C37.8127 79.256 37.8361 79.2209 37.8665 79.1924C37.9714 79.1293 38.0859 79.0837 38.2056 79.0571C38.3423 79.0239 38.4724 78.9681 38.5907 78.8921C38.7331 78.7775 38.8607 78.6457 38.9705 78.4997C39.1521 78.2513 39.2703 77.9625 39.315 77.6582C39.3946 77.1426 39.429 76.6212 39.418 76.0996C39.418 75.7776 39.5075 75.6153 39.6893 75.6153C39.871 75.6153 40.0121 75.6613 40.0636 75.7506C40.1233 75.8953 40.1493 76.0517 40.1396 76.2079V78.9462C40.1396 79.0571 40.2101 79.1113 40.3539 79.1113H41.5202C41.7562 79.1113 41.8728 79.2141 41.8728 79.417C41.8728 79.62 41.702 79.7742 41.3629 79.7742H40.3349C40.2589 79.7742 40.2128 79.7742 40.1965 79.8121C40.1744 79.8707 40.166 79.9337 40.1721 79.9961L40.1667 82.9076Z" fill="#231F20"/>
<path d="M47.2708 83.7031C47.2992 83.6986 47.3281 83.7008 47.3555 83.7095C47.3828 83.7182 47.4077 83.7331 47.4282 83.7531C47.4488 83.773 47.4644 83.7975 47.4738 83.8245C47.4832 83.8515 47.4861 83.8804 47.4824 83.9087C47.4824 84.0765 47.2627 84.2876 46.826 84.5392C46.4325 84.7783 45.982 84.9082 45.5213 84.9153C45.1839 84.9021 44.8562 84.7993 44.5719 84.6177C44.2702 84.4629 44.042 84.1954 43.9372 83.8736C43.8286 83.3441 43.7849 82.8035 43.807 82.2636L43.826 80.6184C43.8493 80.4358 43.8003 80.2513 43.6894 80.1043C43.5784 79.9572 43.4143 79.8591 43.2319 79.831C43.0798 79.8112 42.9316 79.7683 42.7925 79.7038C42.7569 79.6743 42.7295 79.6361 42.7129 79.593C42.6963 79.5499 42.691 79.5033 42.6976 79.4576C42.6957 79.3753 42.7225 79.295 42.7735 79.2303C42.7961 79.2001 42.8256 79.1757 42.8596 79.1592C42.8936 79.1427 42.931 79.1346 42.9688 79.1356C43.128 79.1472 43.286 79.1725 43.4408 79.2114C43.5892 79.2505 43.7408 79.2767 43.8938 79.2898C44.0558 79.2779 44.2165 79.2516 44.3739 79.2114C44.5228 79.1749 44.6742 79.1495 44.8269 79.1356C44.8774 79.1412 44.9253 79.1609 44.9652 79.1924C44.9888 79.2048 45.0095 79.2221 45.0259 79.2431C45.0422 79.2641 45.0539 79.2883 45.0601 79.3142C45.0601 79.3575 45.0791 79.7363 45.0954 80.4534C45.1117 81.1704 45.1171 81.8252 45.1171 82.4259C45.111 82.7585 45.1264 83.0911 45.1632 83.4217C45.1788 83.5211 45.2139 83.6165 45.2665 83.7024C45.3191 83.7883 45.3882 83.863 45.4697 83.9223C45.6711 84.0574 45.9109 84.1239 46.1533 84.1117C46.3874 84.1049 46.6152 84.0348 46.8124 83.9087C46.9495 83.8097 47.1056 83.7397 47.2708 83.7031ZM48.8061 79.1356C48.9987 79.1356 49.0936 79.2682 49.0936 79.5361C49.0936 80.0664 49.1018 80.8403 49.118 81.8577C49.1343 82.8751 49.1425 83.5588 49.1425 83.9087C49.1425 85.1318 49.0005 86.0076 48.7166 86.5361C48.5059 86.974 48.19 87.3533 47.7971 87.6401C47.4355 87.8561 47.0194 87.9641 46.5981 87.9513C46.2717 87.9658 45.9463 87.9066 45.646 87.7781C45.4128 87.6645 45.2961 87.5616 45.2961 87.4669C45.3005 87.4125 45.3246 87.3615 45.3639 87.3235C45.3819 87.2994 45.4052 87.2798 45.432 87.2662C45.4589 87.2526 45.4885 87.2454 45.5186 87.2451C45.6129 87.2582 45.7045 87.2865 45.7898 87.3289C45.9351 87.3848 46.0898 87.4124 46.2455 87.4101C46.5711 87.4039 46.8867 87.2971 47.1488 87.1043C47.4373 86.9015 47.6395 86.5985 47.7157 86.2547C47.815 85.7195 47.8569 85.1753 47.8405 84.6312C47.8405 82.0661 47.8341 80.6392 47.8215 80.3505C47.8079 80.061 47.6045 79.8851 47.2084 79.8094C46.8124 79.7336 46.6171 79.6145 46.6171 79.4143C46.6171 79.2141 46.7555 79.1085 47.0376 79.1085C47.2074 79.1153 47.3768 79.1316 47.5448 79.1572C47.7461 79.1864 47.949 79.2027 48.1524 79.2059C48.2796 79.2051 48.4062 79.1887 48.5294 79.1572C48.6207 79.1406 48.7134 79.1334 48.8061 79.1356Z" fill="#231F20"/>
<path d="M56.0078 82.9076C55.9929 83.2032 56.0148 83.4994 56.0729 83.7897C56.0841 83.8439 56.1137 83.8926 56.1567 83.9275C56.1996 83.9625 56.2534 83.9817 56.3089 83.9818C56.5533 83.9546 56.7829 83.8514 56.9653 83.6869C57.1141 83.5474 57.2947 83.4462 57.4915 83.3919C57.5288 83.3929 57.5655 83.4022 57.5988 83.419C57.6321 83.4359 57.6612 83.4599 57.6841 83.4893C57.7388 83.5586 57.7676 83.6447 57.7655 83.7329C57.7655 83.8871 57.5512 84.1414 57.1226 84.4905C56.8123 84.7875 56.4112 84.9723 55.9834 85.0154C55.119 85.0154 54.6859 84.3841 54.6841 83.1213V79.9636C54.6841 79.8581 54.6705 79.8039 54.6434 79.7958C54.4901 79.782 54.3361 79.7775 54.1823 79.7823C54.0277 79.7984 53.8719 79.7653 53.7374 79.6876C53.6997 79.6536 53.67 79.6117 53.6503 79.5649C53.6306 79.5182 53.6215 79.4677 53.6235 79.417C53.6196 79.3754 53.6254 79.3335 53.6405 79.2946C53.6555 79.2556 53.6794 79.2206 53.7103 79.1924C53.8142 79.1292 53.9278 79.0835 54.0466 79.0571C54.1842 79.0238 54.3152 78.9681 54.4345 78.8921C54.5759 78.7772 54.7025 78.6455 54.8116 78.4997C54.9932 78.2513 55.1114 77.9625 55.156 77.6582C55.2425 77.1379 55.2816 76.6108 55.2727 76.0834C55.2727 75.7614 55.3622 75.5991 55.5439 75.5991C55.7257 75.5991 55.8694 75.6451 55.921 75.7343C55.9796 75.8793 56.0046 76.0357 55.9942 76.1916V78.93C55.9942 79.0409 56.0647 79.095 56.2085 79.095H57.3749C57.6109 79.095 57.7275 79.1978 57.7275 79.4008C57.7275 79.6037 57.5593 79.758 57.2175 79.758H56.1922C56.1136 79.758 56.0674 79.7579 56.0512 79.7958C56.029 79.8545 56.0206 79.9175 56.0268 79.9798L56.0078 82.9076Z" fill="#231F20"/>
<path d="M62.016 78.7893C62.9017 78.7804 63.756 79.1162 64.3976 79.7255C64.7125 79.9966 64.9659 80.3316 65.1409 80.708C65.3159 81.0845 65.4086 81.4938 65.4127 81.9088C65.4168 82.3238 65.3323 82.7348 65.1647 83.1147C64.9972 83.4945 64.7504 83.8344 64.441 84.1117C63.7954 84.688 62.9274 84.9748 61.8451 84.9748C60.9931 84.9765 60.1707 84.6632 59.5367 84.0954C59.2125 83.8323 58.9521 83.4995 58.775 83.1218C58.5979 82.7442 58.5088 82.3314 58.5141 81.9145C58.5122 81.5088 58.5908 81.1068 58.7453 80.7315C58.8999 80.3563 59.1274 80.0153 59.4147 79.7282C60.0151 79.1022 60.8822 78.7893 62.016 78.7893ZM62.016 84.2524C62.3033 84.2631 62.5892 84.2074 62.8513 84.0896C63.1134 83.9717 63.3446 83.795 63.5268 83.5732C63.9132 83.0834 64.1123 82.4724 64.0883 81.8496C64.1128 81.2324 63.8959 80.6299 63.4835 80.1692C63.291 79.9554 63.0543 79.7859 62.7896 79.6724C62.525 79.5588 62.2388 79.504 61.9509 79.5117C61.6709 79.4974 61.3914 79.5482 61.1344 79.6599C60.8774 79.7717 60.6499 79.9414 60.4699 80.1557C60.1043 80.6307 59.918 81.2188 59.9436 81.8171C59.9084 82.4616 60.1165 83.0958 60.5268 83.5949C60.7107 83.8103 60.9406 83.982 61.1997 84.0972C61.4589 84.2124 61.7406 84.2682 62.0241 84.2605L62.016 84.2524Z" fill="#231F20"/>
<path d="M70.4844 83.7031C70.6282 83.7031 70.6987 83.7707 70.6987 83.9087C70.6987 84.0467 70.479 84.2876 70.0423 84.5392C69.6488 84.7783 69.1983 84.9082 68.7376 84.9153C68.4002 84.9021 68.0725 84.7993 67.7882 84.6177C67.4858 84.463 67.2568 84.1956 67.1508 83.8736C67.0449 83.3438 67.0021 82.8034 67.0233 82.2636L67.0396 80.6184C67.0623 80.4363 67.0134 80.2526 66.9031 80.1057C66.7928 79.9589 66.6298 79.8604 66.4482 79.831C66.296 79.8117 66.1478 79.7688 66.0088 79.7038C65.9732 79.6743 65.9458 79.6361 65.9292 79.593C65.9126 79.5499 65.9073 79.5033 65.9139 79.4576C65.9123 79.3758 65.9381 79.2958 65.9871 79.2303C66.0104 79.2002 66.0405 79.1759 66.0748 79.1595C66.1092 79.143 66.147 79.1349 66.1851 79.1356C66.3443 79.1472 66.5023 79.1725 66.6571 79.2114C66.8055 79.2505 66.9571 79.2767 67.1101 79.2898C67.2712 79.2778 67.431 79.2516 67.5875 79.2114C67.7372 79.1746 67.8896 79.1493 68.0432 79.1356C68.0937 79.1412 68.1417 79.1609 68.1815 79.1924C68.2048 79.2052 68.2253 79.2226 68.2416 79.2435C68.2579 79.2645 68.2698 79.2885 68.2765 79.3142C68.2765 79.3575 68.2954 79.7363 68.309 80.4534C68.3226 81.1704 68.3307 81.8252 68.3307 82.4259C68.3238 82.7586 68.3401 83.0913 68.3795 83.4217C68.3951 83.5211 68.4302 83.6165 68.4828 83.7024C68.5354 83.7883 68.6045 83.863 68.686 83.9223C68.8863 84.0576 69.1253 84.1241 69.3669 84.1117C69.6018 84.105 69.8306 84.0349 70.0287 83.9087C70.1647 83.8094 70.3199 83.7394 70.4844 83.7031ZM72.0224 79.1356C72.2123 79.1356 72.3099 79.2682 72.3099 79.5361C72.3099 80.0664 72.3181 80.8403 72.3344 81.8577C72.3506 82.8751 72.3588 83.5588 72.3588 83.9087C72.3588 85.1318 72.2159 86.0076 71.9302 86.5361C71.7212 86.9744 71.4061 87.3538 71.0134 87.6401C70.6517 87.8559 70.2357 87.9638 69.8144 87.9513C69.4881 87.9658 69.1626 87.9066 68.8623 87.7781C68.6291 87.6645 68.5124 87.5616 68.5124 87.4669C68.5168 87.413 68.5398 87.3623 68.5775 87.3235C68.5959 87.2992 68.6197 87.2795 68.647 87.2659C68.6743 87.2523 68.7044 87.2452 68.7349 87.2451C68.8292 87.2582 68.9208 87.2865 69.0061 87.3289C69.1514 87.3848 69.3061 87.4124 69.4618 87.4101C69.7865 87.4039 70.1013 87.297 70.3624 87.1043C70.6524 86.903 70.8551 86.5994 70.9293 86.2547C71.0312 85.7198 71.074 85.1754 71.0568 84.6312C71.0568 82.0661 71.0504 80.6392 71.0378 80.3505C71.0215 80.061 70.8181 79.8851 70.4247 79.8094C70.0314 79.7336 69.8334 79.6145 69.8334 79.4143C69.8334 79.2141 69.9718 79.1085 70.2539 79.1085C70.4237 79.1155 70.593 79.1318 70.7611 79.1572C70.9615 79.1863 71.1635 79.2025 71.366 79.2059C71.4941 79.2051 71.6216 79.1887 71.7457 79.1572C71.837 79.1405 71.9297 79.1332 72.0224 79.1356Z" fill="#231F20"/>
<path d="M75.5487 80.0935C75.5578 80.2389 75.6207 80.3757 75.725 80.4777C76.0705 80.755 76.4485 80.9894 76.8507 81.1758C77.3485 81.3991 77.7883 81.7333 78.1364 82.1526C78.3482 82.4491 78.4638 82.8033 78.4673 83.1673C78.4724 83.4283 78.4114 83.6864 78.29 83.9176C78.1686 84.1489 77.9908 84.3459 77.7729 84.4905C77.2409 84.8383 76.6127 85.0106 75.9772 84.983C75.5584 84.9795 75.1451 84.8873 74.7647 84.7124C74.3606 84.5365 74.1599 84.3579 74.1599 84.1712C74.1599 83.9845 74.1599 83.8384 74.1273 83.63C74.0948 83.4217 74.092 83.2377 74.092 83.1078C74.092 82.8372 74.2195 82.7019 74.4691 82.7019C74.5065 82.7024 74.5434 82.7106 74.5774 82.7259C74.6115 82.7413 74.642 82.7635 74.6671 82.7912C74.7918 82.9773 74.8887 83.1806 74.9546 83.3946C75.039 83.671 75.2055 83.9154 75.432 84.0954C75.6192 84.2217 75.8407 84.2878 76.0667 84.2848C76.2022 84.2877 76.3368 84.2638 76.463 84.2146C76.5891 84.1654 76.7043 84.0918 76.8018 83.998C76.9013 83.9036 76.9796 83.7891 77.0315 83.6623C77.0834 83.5354 77.1078 83.399 77.1029 83.262C77.0991 83.0633 77.0263 82.872 76.8968 82.7209C76.5704 82.423 76.1915 82.1881 75.7792 82.0282C75.1698 81.7395 74.7729 81.4572 74.5884 81.1812C74.4103 80.9154 74.3159 80.6026 74.3172 80.2829C74.3177 80.0673 74.3724 79.8554 74.4761 79.6663C74.5799 79.4772 74.7295 79.3171 74.9112 79.2005C75.3137 78.9096 75.8004 78.7576 76.2973 78.7676C76.735 78.7677 77.1693 78.8446 77.5803 78.9949C77.9953 79.1464 78.2042 79.3088 78.2042 79.4792C78.2062 79.6088 78.2171 79.7381 78.2367 79.8662C78.256 79.988 78.2669 80.1109 78.2693 80.2342C78.2712 80.3416 78.2409 80.4471 78.1825 80.5372C78.1606 80.5763 78.1287 80.6088 78.0901 80.6316C78.0515 80.6544 78.0076 80.6667 77.9628 80.6671C77.9133 80.6731 77.8631 80.6677 77.8161 80.6512C77.7691 80.6348 77.7265 80.6079 77.6915 80.5724C77.6222 80.4719 77.5734 80.3589 77.5478 80.2396C77.5134 80.0955 77.4403 79.9636 77.3362 79.8581C77.2193 79.7532 77.0866 79.6673 76.9429 79.6037C76.7728 79.5257 76.5876 79.4859 76.4004 79.4874C76.1933 79.4898 75.9922 79.557 75.8253 79.6795C75.7494 79.7214 75.6846 79.7808 75.6365 79.8529C75.5883 79.9249 75.5582 80.0074 75.5487 80.0935Z" fill="#231F20"/>
<path d="M83.0379 76.7653C83.0235 76.257 83.0875 75.7496 83.2277 75.2608C83.3636 74.8596 83.5816 74.491 83.8679 74.1785C84.1687 73.8409 84.5168 73.5483 84.9014 73.3099C85.127 73.1401 85.3843 73.0169 85.6582 72.9473C85.7368 72.9473 85.7748 73.0555 85.7748 73.2693C85.7748 73.2991 85.7233 73.3559 85.6175 73.4398C85.1519 73.7769 84.8023 74.2495 84.6165 74.7927C84.4297 75.3573 84.3381 75.9489 84.3453 76.5434V79.2059C84.3453 79.2709 84.3887 79.3034 84.4782 79.3034C84.5162 79.3034 84.6066 79.2952 84.7495 79.279C84.8918 79.2632 85.0348 79.255 85.178 79.2546C85.4954 79.2546 85.6554 79.3629 85.6554 79.5794C85.6561 79.6316 85.6416 79.6829 85.6137 79.727C85.5858 79.7712 85.5456 79.8064 85.4981 79.8283C85.386 79.8922 85.2583 79.924 85.1292 79.9203C84.603 79.9203 84.3399 80.1314 84.3399 80.5535V83.3946C84.3214 83.565 84.3466 83.7372 84.4131 83.8952C84.472 83.9677 84.5364 84.0355 84.6057 84.0981C84.7577 84.1971 84.9342 84.2524 85.1157 84.2578C85.2843 84.2612 85.4494 84.3067 85.5958 84.3904C85.6265 84.4172 85.6507 84.4506 85.6667 84.4881C85.6827 84.5256 85.6899 84.5662 85.688 84.6068C85.688 84.8206 85.528 84.9316 85.2106 84.9316C84.9734 84.925 84.7374 84.8969 84.5053 84.8477C84.2274 84.794 83.9449 84.7668 83.6617 84.7665C83.4114 84.7741 83.1619 84.8012 82.9158 84.8477C82.715 84.887 82.5122 84.915 82.3082 84.9316C81.9637 84.9316 81.7901 84.8098 81.7901 84.5717C81.7888 84.5366 81.7949 84.5016 81.808 84.4689C81.8211 84.4363 81.8409 84.4068 81.8661 84.3823C81.995 84.3057 82.1419 84.2647 82.2919 84.2632C82.4739 84.2486 82.6506 84.1951 82.81 84.1063C82.8591 84.0769 82.9015 84.0376 82.9347 83.9911C82.9678 83.9445 82.9909 83.8916 83.0026 83.8357C83.0283 83.6012 83.0383 83.3653 83.0325 83.1294V80.5129C83.0325 80.1205 82.7883 79.9257 82.3001 79.9257C81.923 79.9257 81.7332 79.8067 81.7332 79.5685C81.7332 79.3304 81.9257 79.2438 82.3082 79.2438C82.4406 79.2435 82.5729 79.2517 82.7042 79.2682C82.829 79.2844 82.905 79.2925 82.9348 79.2925C82.948 79.2943 82.9615 79.293 82.9742 79.2888C82.9868 79.2845 82.9984 79.2774 83.0078 79.268C83.0173 79.2585 83.0244 79.2471 83.0287 79.2344C83.033 79.2218 83.0342 79.2083 83.0325 79.1951L83.0379 76.7653Z" fill="#231F20"/>
<path d="M89.9031 78.7892C90.788 78.7805 91.6414 79.1164 92.282 79.7255C92.5974 79.9962 92.8514 80.3309 93.0269 80.7073C93.2024 81.0837 93.2955 81.4931 93.2998 81.9082C93.3042 82.3233 93.2198 82.7345 93.0522 83.1145C92.8846 83.4945 92.6378 83.8344 92.3281 84.1117C91.6753 84.6943 90.8063 84.9848 89.7213 84.983C88.8701 84.985 88.0484 84.6716 87.4157 84.1036C87.091 83.8409 86.8303 83.5081 86.6532 83.1303C86.4761 82.7526 86.3871 82.3397 86.3931 81.9226C86.3904 81.5169 86.4686 81.1146 86.6232 80.7392C86.7779 80.3639 87.0057 80.023 87.2937 79.7363C87.8994 79.1049 88.7693 78.7892 89.9031 78.7892ZM89.9031 84.2524C90.19 84.2631 90.4755 84.2074 90.7371 84.0895C90.9988 83.9717 91.2295 83.795 91.4112 83.5732C91.7986 83.0838 91.9986 82.4727 91.9754 81.8496C91.9988 81.2326 91.782 80.6305 91.3706 80.1692C91.178 79.9556 90.9412 79.7861 90.6766 79.6726C90.412 79.5591 90.1259 79.5042 89.838 79.5117C89.558 79.497 89.2783 79.5476 89.0213 79.6594C88.7642 79.7711 88.5368 79.9411 88.357 80.1557C87.9914 80.6307 87.8051 81.2188 87.8307 81.8171C87.7955 82.4616 88.0036 83.0959 88.4139 83.5949C88.5978 83.8104 88.8277 83.982 89.0868 84.0972C89.346 84.2124 89.6277 84.2682 89.9112 84.2605L89.9031 84.2524Z" fill="#231F20"/>
<path d="M96.2505 80.751L96.283 80.981C96.4376 80.7349 96.5666 80.4738 96.6682 80.2017C96.8276 79.794 97.0591 79.4183 97.3518 79.0923C97.5341 78.8962 97.7864 78.7795 98.0543 78.7676C98.2027 78.7582 98.3507 78.7921 98.4802 78.865C98.5215 78.8869 98.5565 78.9191 98.5817 78.9584C98.6069 78.9978 98.6214 79.043 98.6239 79.0896C98.6296 79.2117 98.5954 79.3323 98.5263 79.4333C98.4226 79.5513 98.3062 79.6574 98.1791 79.7498C97.5085 80.2419 96.9852 80.907 96.6655 81.6737C96.3915 82.27 96.2332 82.9127 96.199 83.5678C96.1836 83.7324 96.2166 83.8978 96.2939 84.044C96.4197 84.1606 96.5792 84.2345 96.7496 84.2551C96.9176 84.2831 97.0776 84.3468 97.2189 84.4418C97.2517 84.4711 97.2781 84.507 97.2963 84.547C97.3145 84.5871 97.3242 84.6305 97.3246 84.6745C97.3246 84.8369 97.2297 84.918 97.0371 84.918C96.8229 84.9104 96.6097 84.885 96.3997 84.8423C96.1094 84.7922 95.8154 84.7677 95.5208 84.7692C95.3072 84.7698 95.0943 84.7943 94.8861 84.8423C94.7509 84.8784 94.613 84.9038 94.4738 84.918C94.3448 84.9244 94.2167 84.8934 94.1049 84.8287C94.0684 84.8119 94.0367 84.7863 94.0125 84.7543C93.9883 84.7223 93.9724 84.6848 93.9663 84.6452C93.9601 84.6055 93.9638 84.565 93.9771 84.5272C93.9904 84.4893 94.0129 84.4554 94.0425 84.4283C94.1762 84.3365 94.3249 84.2687 94.4819 84.228C94.6495 84.1904 94.8029 84.106 94.9241 83.9845C95.0031 83.7365 95.0316 83.4752 95.0082 83.216V80.7294C95.0101 80.5803 94.9717 80.4336 94.897 80.3045C94.789 80.1572 94.6308 80.0543 94.4521 80.015C94.3098 79.9856 94.1755 79.9256 94.0588 79.8391C94.0179 79.7929 93.9956 79.7331 93.9964 79.6714C93.9964 79.4901 94.1239 79.4008 94.3843 79.4008C94.5044 79.4059 94.6241 79.4195 94.7423 79.4414C94.8579 79.4627 94.9748 79.4763 95.0922 79.482C95.1834 79.4783 95.2741 79.4675 95.3635 79.4495C95.5097 79.4262 95.6576 79.4153 95.8056 79.417C96.1013 79.417 96.2532 79.7309 96.2532 80.3587L96.2505 80.751Z" fill="#231F20"/>
<path d="M102.972 76.7653C102.959 76.2571 103.023 75.7499 103.162 75.2608C103.299 74.8601 103.517 74.4917 103.802 74.1785C104.103 73.8415 104.451 73.549 104.835 73.3099C105.062 73.1394 105.32 73.0161 105.595 72.9473C105.671 72.9473 105.712 73.0555 105.712 73.2693C105.712 73.2991 105.657 73.3559 105.554 73.4398C105.087 73.7759 104.736 74.2487 104.551 74.7927C104.365 75.3576 104.273 75.949 104.279 76.5434V79.2059C104.279 79.2709 104.32 79.3034 104.41 79.3034C104.448 79.3034 104.54 79.3034 104.681 79.279C104.822 79.2631 104.964 79.255 105.107 79.2546C105.427 79.2546 105.584 79.3629 105.584 79.5794C105.585 79.6313 105.571 79.6823 105.543 79.7265C105.516 79.7706 105.476 79.806 105.429 79.8283C105.316 79.8922 105.188 79.924 105.058 79.9203C104.532 79.9203 104.271 80.1314 104.271 80.5535V83.3946C104.251 83.565 104.277 83.7376 104.344 83.8952C104.403 83.9677 104.468 84.0355 104.537 84.0981C104.689 84.1971 104.866 84.2524 105.047 84.2578C105.216 84.2612 105.381 84.3067 105.527 84.3904C105.558 84.4172 105.582 84.4506 105.598 84.4881C105.614 84.5256 105.621 84.5662 105.619 84.6068C105.619 84.8206 105.459 84.9316 105.139 84.9316C104.903 84.9248 104.668 84.8968 104.437 84.8477C104.158 84.794 103.874 84.7668 103.59 84.7665C103.341 84.7742 103.092 84.8014 102.847 84.8477C102.646 84.8868 102.444 84.9148 102.24 84.9316C101.895 84.9316 101.722 84.8098 101.722 84.5717C101.72 84.5014 101.747 84.4335 101.795 84.3823C101.925 84.3059 102.072 84.2648 102.223 84.2632C102.405 84.2482 102.582 84.1947 102.741 84.1063C102.79 84.0769 102.833 84.0376 102.866 83.9911C102.899 83.9445 102.922 83.8916 102.934 83.8357C102.958 83.6011 102.967 83.3652 102.961 83.1294V80.5129C102.961 80.1205 102.717 79.9257 102.231 79.9257C101.852 79.9257 101.665 79.8067 101.665 79.5685C101.665 79.3304 101.854 79.2438 102.24 79.2438C102.371 79.2435 102.502 79.2517 102.633 79.2682C102.76 79.2844 102.836 79.2925 102.863 79.2925C102.877 79.2943 102.89 79.293 102.903 79.2888C102.916 79.2845 102.927 79.2774 102.936 79.268C102.946 79.2585 102.953 79.2471 102.957 79.2344C102.962 79.2218 102.963 79.2083 102.961 79.1951L102.972 76.7653Z" fill="#231F20"/>
<path d="M108.763 83.3351C108.761 83.4612 108.787 83.5863 108.839 83.7011C108.892 83.8158 108.97 83.9173 109.067 83.998C109.269 84.1758 109.53 84.2722 109.799 84.2686C110.019 84.2535 110.231 84.1817 110.415 84.0603C110.569 83.9512 110.746 83.8798 110.933 83.8519C111.042 83.8519 111.096 83.9169 111.096 84.0494C111.096 84.182 110.892 84.4039 110.486 84.6366C110.065 84.8755 109.589 84.9978 109.105 84.9911C108.723 84.9967 108.352 84.8662 108.058 84.6231C107.79 84.4262 107.605 84.1368 107.54 83.8113C107.493 83.5119 107.47 82.3872 107.472 80.4371C107.472 80.1665 107.201 79.9852 106.658 79.8662C106.419 79.8148 106.303 79.7228 106.303 79.5956C106.302 79.5542 106.311 79.5133 106.331 79.4767C106.35 79.4402 106.379 79.4093 106.414 79.3873C106.495 79.3367 106.589 79.3104 106.685 79.3115C106.718 79.3115 106.881 79.3331 107.168 79.3791C107.409 79.4183 107.653 79.44 107.898 79.4441C108.006 79.4372 108.113 79.4163 108.215 79.3818C108.303 79.353 108.394 79.333 108.486 79.3223C108.668 79.3223 108.758 79.693 108.758 80.4371L108.763 83.3351ZM111.476 80.5345C111.481 80.4473 111.469 80.3599 111.439 80.2777C111.409 80.1954 111.363 80.1202 111.303 80.0565C111.243 79.9929 111.171 79.9421 111.09 79.9075C111.01 79.8729 110.923 79.8552 110.835 79.8554C110.665 79.8451 110.499 79.7961 110.35 79.7119C110.318 79.6843 110.293 79.6501 110.276 79.6118C110.26 79.5735 110.251 79.5319 110.252 79.4901C110.252 79.2871 110.41 79.1843 110.722 79.1843C110.89 79.1971 111.057 79.2261 111.221 79.2709C111.488 79.3304 111.761 79.3594 112.034 79.3575C112.131 79.3541 112.227 79.3423 112.322 79.3223C112.393 79.3071 112.464 79.2962 112.536 79.2898C112.685 79.2898 112.759 79.4576 112.759 79.7904C112.759 82.3069 112.781 83.6454 112.826 83.8059C112.87 83.9656 113.098 84.0954 113.491 84.1956C113.628 84.2207 113.758 84.2712 113.876 84.3444C113.9 84.3632 113.919 84.387 113.932 84.4142C113.945 84.4414 113.952 84.4711 113.952 84.5013C113.948 84.5437 113.933 84.5844 113.909 84.6194C113.885 84.6545 113.852 84.6828 113.814 84.7016C113.709 84.7674 113.587 84.7996 113.464 84.7936C113.315 84.7829 113.166 84.764 113.019 84.7367C112.853 84.7063 112.686 84.6874 112.517 84.6799C112.389 84.6831 112.261 84.7022 112.137 84.7367C112.04 84.7656 111.94 84.7846 111.839 84.7936C111.793 84.7998 111.746 84.7941 111.703 84.777C111.66 84.76 111.622 84.7321 111.592 84.6962C111.53 84.5424 111.501 84.3775 111.505 84.2118C111.505 83.9547 111.484 83.4623 111.484 82.729L111.476 80.5345Z" fill="#231F20"/>
<path d="M115.761 80.4371C115.773 80.2766 115.731 80.1168 115.642 79.9825C115.506 79.8554 115.329 79.7789 115.143 79.7661C114.891 79.7228 114.766 79.6091 114.766 79.4278C114.77 79.3824 114.783 79.3382 114.806 79.2985C114.828 79.2588 114.859 79.2244 114.896 79.1978C114.994 79.1197 115.118 79.0802 115.243 79.0869C115.351 79.0944 115.457 79.1135 115.561 79.1437C115.684 79.1775 115.81 79.1966 115.938 79.2005C116.077 79.1918 116.215 79.1756 116.353 79.1518C116.488 79.1287 116.625 79.1124 116.762 79.1031C116.81 79.0994 116.858 79.1103 116.899 79.1345C116.94 79.1587 116.973 79.195 116.993 79.2384C117.049 79.413 117.075 79.5962 117.069 79.7796C117.069 80.2342 117.085 80.7185 117.085 81.2299L117.036 83.5678C117.025 83.6739 117.038 83.7812 117.074 83.8817C117.131 83.9405 117.197 83.9898 117.27 84.0278C117.391 84.096 117.523 84.1435 117.66 84.1685C117.774 84.1784 117.881 84.2261 117.964 84.3038C118.008 84.3634 118.03 84.4356 118.029 84.5094C118.029 84.6907 117.888 84.78 117.601 84.78C117.396 84.779 117.192 84.7609 116.99 84.7259C116.786 84.6916 116.579 84.6744 116.372 84.6745C116.159 84.6772 115.946 84.6917 115.734 84.7178C115.542 84.7429 115.348 84.7582 115.154 84.7638C114.883 84.7638 114.733 84.661 114.733 84.4553C114.73 84.3774 114.756 84.3011 114.807 84.2416C114.898 84.1704 115.011 84.1348 115.127 84.1414C115.248 84.148 115.369 84.1188 115.474 84.0575C115.577 83.9614 115.657 83.8441 115.71 83.7139C115.754 83.5187 115.771 83.3185 115.761 83.1186V80.4371ZM120.799 83.5867C120.778 83.7513 120.82 83.9177 120.918 84.0521C121.044 84.1454 121.191 84.2067 121.346 84.2307C121.553 84.2794 121.656 84.366 121.656 84.5013C121.656 84.6745 121.553 84.7719 121.349 84.7719L120.856 84.7421C120.565 84.7232 120.313 84.7151 120.12 84.7151C119.842 84.7102 119.565 84.731 119.29 84.7773C119.146 84.8057 119 84.8256 118.854 84.8368C118.754 84.8358 118.659 84.8004 118.582 84.7367C118.543 84.7101 118.511 84.6742 118.489 84.6322C118.466 84.5902 118.455 84.5434 118.455 84.4959C118.457 84.4564 118.467 84.4178 118.485 84.3827C118.504 84.3477 118.529 84.317 118.561 84.293C118.627 84.2302 118.716 84.1961 118.808 84.1983C118.976 84.1996 119.141 84.1465 119.277 84.0467C119.345 83.993 119.4 83.9237 119.436 83.8446C119.471 83.7654 119.488 83.6789 119.483 83.5921C119.483 82.2771 119.491 81.4653 119.507 81.1569C119.524 80.843 119.529 80.6671 119.529 80.6292C119.529 80.2017 119.337 79.9906 118.943 79.9906C118.669 80.0416 118.417 80.1758 118.222 80.3749C118.04 80.5632 117.809 80.6972 117.554 80.7618C117.497 80.7528 117.445 80.723 117.408 80.6779C117.383 80.6554 117.364 80.6283 117.35 80.5981C117.336 80.5679 117.328 80.5353 117.327 80.5021C117.327 80.309 117.579 80.015 118.083 79.6199C118.494 79.2622 119.014 79.0542 119.559 79.0301C119.822 79.0237 120.08 79.1004 120.297 79.2492C120.493 79.3765 120.64 79.5677 120.712 79.7904C120.79 80.0933 120.825 80.4058 120.815 80.7185V81.2408L120.799 83.5867Z" fill="#231F20"/>
<path d="M130.341 76.584C130.401 76.6644 130.47 76.7372 130.547 76.8004C130.595 76.839 130.635 76.887 130.663 76.9415C130.692 76.996 130.709 77.0557 130.713 77.117C130.713 77.2361 130.621 77.2983 130.442 77.2983C130.393 77.2983 130.295 77.2983 130.146 77.2767C129.997 77.255 129.875 77.2577 129.785 77.2577C129.254 77.2577 128.646 77.5391 127.962 78.102C127.279 78.6648 126.938 79.5352 126.94 80.7131C126.937 81.6502 127.291 82.5535 127.93 83.2404C128.21 83.584 128.562 83.8616 128.962 84.0534C129.362 84.2452 129.8 84.3464 130.244 84.3498C131.156 84.3401 132.039 84.0246 132.75 83.4541C133.537 82.8588 133.929 82.1373 133.927 81.2894C133.943 81.0131 133.903 80.7363 133.81 80.4755C133.717 80.2148 133.572 79.9754 133.385 79.7715C133.239 79.6032 133.06 79.4666 132.858 79.3702C132.657 79.2739 132.439 79.2198 132.216 79.2114C131.914 79.207 131.622 79.3195 131.402 79.5252C131.289 79.6312 131.201 79.7599 131.143 79.9027C131.084 80.0455 131.057 80.1991 131.063 80.3532C131.066 80.4729 131.099 80.5898 131.158 80.6939C131.217 80.7981 131.301 80.8864 131.402 80.9512C131.524 81.0378 131.584 81.1136 131.584 81.1758C131.581 81.2181 131.569 81.2592 131.548 81.2958C131.526 81.3325 131.497 81.3636 131.462 81.3869C131.393 81.4463 131.306 81.4798 131.215 81.4816C131.104 81.4747 130.997 81.441 130.902 81.3835C130.808 81.326 130.729 81.2463 130.672 81.1514C130.5 80.9075 130.413 80.6136 130.425 80.3153C130.426 79.9161 130.525 79.5232 130.713 79.1708C130.974 78.7286 131.327 78.3475 131.749 78.0533C132.255 77.6732 132.831 77.3973 133.444 77.2415C134.257 77.0512 135.091 76.9657 135.926 76.9871C136.693 77.0102 137.458 76.9088 138.191 76.6868C138.769 76.4866 139.057 76.1727 139.057 75.7397C139.047 75.6588 139.019 75.5811 138.975 75.5125C138.929 75.4398 138.901 75.3572 138.894 75.2716C138.894 75.0795 139.01 74.9848 139.244 74.9848C139.316 74.9886 139.386 75.0127 139.445 75.0543C139.504 75.096 139.55 75.1535 139.577 75.2202C139.664 75.3738 139.709 75.5473 139.708 75.7235C139.691 76.1036 139.545 76.4666 139.292 76.7517C138.975 77.1338 138.583 77.447 138.14 77.6717C137.629 77.9492 137.072 78.1325 136.496 78.2129C135.663 78.3149 134.823 78.3592 133.984 78.3455C133.6 78.3213 133.214 78.3532 132.839 78.4402C132.682 78.5024 132.603 78.5538 132.603 78.5917C132.603 78.6296 132.652 78.6485 132.753 78.6485C133.241 78.6485 133.7 78.9056 134.131 79.4197C134.553 79.9569 134.783 80.62 134.783 81.303C134.783 81.9859 134.553 82.6491 134.131 83.1863C133.658 83.7677 133.048 84.2218 132.354 84.5067C131.665 84.8204 130.917 84.9872 130.16 84.9965C128.862 85.0432 127.596 84.5831 126.633 83.7139C126.186 83.3156 125.83 82.8255 125.59 82.2772C125.351 81.7289 125.233 81.1353 125.244 80.5372C125.249 80.0395 125.357 79.548 125.561 79.0939C125.766 78.6398 126.062 78.233 126.433 77.899C127.165 77.1535 128.141 76.6946 129.183 76.6056C129.281 76.5948 129.329 76.5731 129.329 76.5407C129.307 76.4653 129.268 76.3959 129.216 76.3377L127.01 73.2504C126.97 73.2051 126.944 73.1483 126.937 73.088C126.937 72.9798 127.043 72.9121 127.254 72.8878C127.622 72.8568 127.99 72.8441 128.358 72.8499H132.156C132.317 72.8441 132.477 72.8604 132.633 72.8986C132.692 72.922 132.744 72.9586 132.786 73.0055C132.828 73.0525 132.858 73.1085 132.875 73.1692C132.943 73.385 132.973 73.6114 132.962 73.8375C132.962 74.3462 132.924 74.6493 132.845 74.7629C132.808 74.8163 132.759 74.8595 132.701 74.8884C132.643 74.9173 132.579 74.9309 132.514 74.928C132.362 74.928 132.243 74.8116 132.121 74.5735C131.999 74.3354 131.912 74.2542 131.792 74.2542H129.5C129.178 74.2542 129.015 74.3543 129.015 74.5492C129.02 74.6629 129.06 74.7724 129.129 74.863L130.341 76.584Z" fill="#231F20"/>
<path d="M145.401 83.5867C145.396 83.7225 145.437 83.8559 145.518 83.9656C145.654 84.0986 145.834 84.1775 146.025 84.1875C146.198 84.1955 146.366 84.2527 146.508 84.3525C146.566 84.4222 146.596 84.5109 146.592 84.6014C146.592 84.7773 146.459 84.872 146.19 84.872C145.944 84.8663 145.699 84.8464 145.455 84.8125C145.213 84.7765 144.968 84.7557 144.723 84.7503C144.497 84.7556 144.271 84.7764 144.048 84.8125C143.824 84.8467 143.598 84.8665 143.372 84.872C143.226 84.8864 143.079 84.8612 142.946 84.799C142.915 84.7741 142.89 84.7422 142.874 84.7061C142.857 84.6699 142.85 84.6303 142.851 84.5906C142.849 84.5087 142.877 84.4287 142.93 84.366C143.077 84.2639 143.25 84.2065 143.429 84.201C143.534 84.1977 143.636 84.1718 143.73 84.1251C143.824 84.0784 143.906 84.0119 143.972 83.9304C144.059 83.783 144.103 83.6144 144.099 83.4433V74.606C144.102 74.4295 144.057 74.2555 143.969 74.1027C143.836 73.9313 143.641 73.8187 143.426 73.7888C143.249 73.7651 143.081 73.6962 142.938 73.5886C142.887 73.5258 142.859 73.4475 142.859 73.3667C142.86 73.3235 142.874 73.2816 142.899 73.246C142.923 73.2104 142.958 73.1828 142.998 73.1665C143.08 73.1186 143.174 73.0926 143.269 73.0907C143.4 73.0959 143.531 73.1122 143.66 73.1394C143.786 73.1662 143.913 73.1825 144.042 73.1881C144.183 73.1831 144.324 73.1668 144.463 73.1394C144.602 73.1121 144.744 73.0959 144.886 73.0907C144.957 73.0845 145.028 73.0939 145.095 73.1182C145.162 73.1425 145.223 73.1811 145.274 73.2314C145.371 73.3793 145.414 73.5561 145.396 73.732L145.401 83.5867Z" fill="#231F20"/>
<path d="M152.554 81.5141C152.644 81.5247 152.735 81.5015 152.809 81.4491C152.859 81.3816 152.883 81.2976 152.874 81.2137C152.866 80.7748 152.691 80.3552 152.386 80.0394C152.193 79.8484 151.962 79.7012 151.707 79.6077C151.453 79.5143 151.181 79.477 150.91 79.4982C150.376 79.5329 149.874 79.7632 149.5 80.1449C149.251 80.3791 149.058 80.6648 148.932 80.9817C148.807 81.2987 148.752 81.6393 148.773 81.9795C148.779 82.2794 148.851 82.5743 148.983 82.8435C149.116 83.1128 149.306 83.3498 149.54 83.538C150.003 83.981 150.619 84.2291 151.26 84.2307C151.809 84.2114 152.344 84.0561 152.817 83.7789C152.946 83.6971 153.088 83.6385 153.237 83.6057C153.323 83.6021 153.407 83.6323 153.471 83.6896C153.499 83.716 153.522 83.7483 153.537 83.7843C153.552 83.8203 153.559 83.859 153.557 83.8979C153.557 84.0982 153.254 84.339 152.649 84.6258C152.065 84.9046 151.427 85.0497 150.78 85.0506C150.336 85.0605 149.895 84.9796 149.483 84.813C149.072 84.6464 148.699 84.3976 148.387 84.0819C148.075 83.7833 147.827 83.4234 147.66 83.0249C147.493 82.6263 147.41 82.1977 147.416 81.7657C147.419 81.3587 147.516 80.9578 147.701 80.5948C147.885 80.2318 148.152 79.9166 148.48 79.6741C149.147 79.1099 149.994 78.8011 150.869 78.8028C152.014 78.8028 152.872 79.0959 153.444 79.6822C153.72 79.9572 153.938 80.2848 154.084 80.6455C154.231 81.0062 154.304 81.3927 154.298 81.7819C154.298 81.9578 154.255 82.0525 154.165 82.1039C154.01 82.1567 153.846 82.1779 153.682 82.1662H149.915C149.608 82.1662 149.456 82.0525 149.456 81.8279C149.456 81.6033 149.614 81.5032 149.931 81.5032L152.554 81.5141Z" fill="#231F20"/>
<path d="M160.824 83.327C160.824 83.7202 161.087 83.9908 161.614 84.1387C161.718 84.1638 161.817 84.2088 161.904 84.2713C161.939 84.3066 161.965 84.3492 161.982 84.396C161.998 84.4428 162.004 84.4926 161.999 84.5419C161.996 84.5816 161.983 84.6198 161.961 84.6526C161.938 84.6855 161.907 84.7117 161.871 84.7286C161.79 84.7793 161.696 84.8065 161.6 84.8071C161.456 84.8007 161.313 84.7761 161.174 84.734C161.035 84.6898 160.889 84.6653 160.743 84.661C160.582 84.6647 160.423 84.6893 160.268 84.734C160.142 84.771 160.012 84.7955 159.88 84.8071C159.798 84.8051 159.719 84.7766 159.655 84.7259C159.625 84.7092 159.599 84.6856 159.579 84.6569C159.56 84.6281 159.548 84.5952 159.544 84.5608C159.544 84.4742 159.517 84.4309 159.463 84.4309C159.409 84.4363 159.357 84.4559 159.313 84.4878C158.714 84.8655 158.018 85.0645 157.309 85.0614C156.915 85.0478 156.528 84.9558 156.17 84.7908C155.761 84.6249 155.411 84.3425 155.163 83.9791C154.899 83.5786 154.766 83.1056 154.784 82.6261C154.793 82.3288 154.871 82.0375 155.012 81.7755C155.153 81.5135 155.354 81.2878 155.597 81.1163C156.201 80.6604 156.946 80.4288 157.702 80.4615C158.035 80.4725 158.362 80.5546 158.66 80.7023C159.007 80.8646 159.178 81.0297 159.178 81.1975C159.179 81.2367 159.17 81.2755 159.151 81.3101C159.132 81.3447 159.105 81.374 159.072 81.395C158.992 81.4482 158.897 81.4747 158.801 81.4707C158.654 81.4463 158.512 81.3959 158.383 81.3219C158.182 81.2263 157.963 81.1764 157.74 81.1758C157.331 81.1626 156.932 81.3037 156.623 81.5709C156.475 81.7042 156.359 81.8684 156.282 82.0517C156.205 82.2351 156.169 82.433 156.178 82.6316C156.165 82.8542 156.204 83.0769 156.293 83.2817C156.381 83.4865 156.516 83.6679 156.688 83.8113C157.018 84.0842 157.436 84.231 157.865 84.2253C158.268 84.2249 158.658 84.0853 158.969 83.8303C159.132 83.7093 159.263 83.5509 159.351 83.3686C159.439 83.1863 159.482 82.9855 159.476 82.7831V80.5589C159.482 80.4077 159.455 80.2571 159.397 80.1171C159.34 79.9771 159.253 79.851 159.143 79.7471C158.899 79.5305 158.579 79.4187 158.253 79.436C157.756 79.4437 157.273 79.6012 156.867 79.8878C156.776 79.9624 156.669 80.0152 156.555 80.0421C156.435 80.0454 156.318 80.0093 156.221 79.9392C156.176 79.91 156.14 79.8697 156.115 79.8224C156.09 79.775 156.078 79.722 156.08 79.6687C156.08 79.3981 156.324 79.1735 156.815 78.9868C157.331 78.8003 157.876 78.7086 158.424 78.7162C159.048 78.6859 159.662 78.8777 160.157 79.2574C160.359 79.4064 160.523 79.5999 160.638 79.8229C160.752 80.0459 160.813 80.2922 160.816 80.5426L160.824 83.327Z" fill="#231F20"/>
<path d="M165.001 80.751L165.034 80.981C165.19 80.7357 165.319 80.4744 165.419 80.2017C165.579 79.794 165.81 79.4183 166.103 79.0923C166.285 78.8962 166.537 78.7795 166.805 78.7676C166.954 78.7582 167.102 78.7921 167.231 78.865C167.272 78.8876 167.307 78.9198 167.333 78.959C167.358 78.9982 167.374 79.043 167.378 79.0896C167.383 79.212 167.347 79.3327 167.277 79.4333C167.174 79.5513 167.057 79.6574 166.93 79.7498C166.261 80.2431 165.738 80.9079 165.416 81.6737C165.142 82.27 164.984 82.9127 164.95 83.5678C164.935 83.7324 164.968 83.8978 165.045 84.044C165.171 84.1606 165.33 84.2345 165.501 84.2551C165.669 84.2831 165.829 84.3468 165.97 84.4418C166.003 84.4711 166.029 84.507 166.047 84.547C166.066 84.5871 166.075 84.6305 166.076 84.6745C166.076 84.8369 165.981 84.918 165.788 84.918C165.574 84.9104 165.361 84.885 165.151 84.8423C164.86 84.7921 164.566 84.7676 164.272 84.7692C164.058 84.7698 163.845 84.7943 163.637 84.8423C163.502 84.8784 163.364 84.9038 163.225 84.918C163.096 84.9244 162.968 84.8934 162.856 84.8287C162.819 84.8119 162.788 84.7863 162.763 84.7543C162.739 84.7223 162.723 84.6848 162.717 84.6452C162.711 84.6055 162.715 84.565 162.728 84.5272C162.741 84.4893 162.764 84.4554 162.793 84.4283C162.927 84.3365 163.076 84.2687 163.233 84.228C163.401 84.1895 163.555 84.1052 163.678 83.9845C163.755 83.7362 163.783 83.475 163.759 83.216V80.7294C163.761 80.5803 163.723 80.4336 163.648 80.3045C163.54 80.1572 163.382 80.0543 163.203 80.015C163.061 79.9856 162.927 79.9256 162.81 79.8391C162.769 79.7929 162.747 79.7331 162.747 79.6714C162.747 79.4901 162.878 79.4008 163.135 79.4008C163.255 79.4059 163.375 79.4195 163.493 79.4414C163.61 79.4629 163.728 79.4765 163.846 79.482C163.937 79.478 164.028 79.4672 164.117 79.4495C164.262 79.4261 164.409 79.4152 164.557 79.417C164.855 79.417 165.004 79.7309 165.004 80.3587L165.001 80.751Z" fill="#231F20"/>
<path d="M169.046 80.4371C169.057 80.2766 169.015 80.1168 168.926 79.9825C168.79 79.8554 168.614 79.7789 168.427 79.7661C168.178 79.7228 168.05 79.6091 168.05 79.4278C168.054 79.3824 168.068 79.3382 168.09 79.2985C168.112 79.2588 168.143 79.2244 168.181 79.1978C168.279 79.1201 168.402 79.0807 168.528 79.0869C168.635 79.0944 168.742 79.1135 168.845 79.1437C168.968 79.1775 169.095 79.1966 169.222 79.2005C169.362 79.1918 169.502 79.1755 169.64 79.1518C169.775 79.1286 169.91 79.1123 170.047 79.1031C170.094 79.0994 170.142 79.1103 170.183 79.1345C170.225 79.1587 170.257 79.195 170.277 79.2384C170.335 79.4127 170.361 79.5961 170.353 79.7796C170.353 80.2342 170.37 80.7185 170.37 81.2299L170.321 83.5678C170.309 83.6742 170.323 83.7819 170.361 83.8817C170.416 83.9413 170.482 83.9907 170.554 84.0278C170.675 84.096 170.807 84.1435 170.945 84.1685C171.058 84.1784 171.165 84.2261 171.248 84.3038C171.292 84.3634 171.315 84.4356 171.313 84.5094C171.313 84.6907 171.172 84.78 170.885 84.78C170.683 84.7839 170.482 84.7712 170.283 84.7421C170.079 84.7079 169.873 84.6907 169.667 84.6907C169.453 84.6934 169.239 84.7078 169.027 84.734C168.834 84.7591 168.64 84.7745 168.446 84.78C168.175 84.78 168.026 84.6772 168.026 84.4716C168.023 84.3937 168.049 84.3174 168.099 84.2578C168.19 84.1867 168.304 84.1511 168.419 84.1577C168.541 84.1642 168.661 84.1351 168.766 84.0738C168.869 83.9776 168.95 83.8604 169.002 83.7302C169.048 83.5315 169.065 83.3275 169.054 83.124L169.046 80.4371ZM174.08 83.5867C174.059 83.7513 174.102 83.9177 174.2 84.0521C174.326 84.1454 174.473 84.2067 174.628 84.2307C174.834 84.2794 174.937 84.366 174.937 84.5013C174.937 84.6745 174.834 84.7719 174.631 84.7719L174.137 84.7421C173.847 84.7232 173.595 84.7151 173.402 84.7151C173.124 84.7102 172.846 84.731 172.572 84.7773C172.428 84.8057 172.282 84.8256 172.135 84.8368C172.036 84.8358 171.94 84.8004 171.864 84.7367C171.825 84.7101 171.792 84.6742 171.77 84.6322C171.748 84.5902 171.736 84.5434 171.737 84.4959C171.738 84.4564 171.749 84.4178 171.767 84.3827C171.785 84.3477 171.811 84.317 171.842 84.293C171.909 84.2307 171.998 84.1967 172.089 84.1983C172.258 84.1996 172.423 84.1465 172.559 84.0467C172.627 83.993 172.681 83.9237 172.717 83.8446C172.753 83.7654 172.769 83.6789 172.765 83.5921C172.765 82.2771 172.773 81.4653 172.789 81.1569C172.805 80.8484 172.813 80.6725 172.813 80.6292C172.813 80.2017 172.618 79.9906 172.225 79.9906C171.95 80.0416 171.698 80.1758 171.503 80.3749C171.322 80.5625 171.092 80.6964 170.839 80.7618C170.78 80.7535 170.727 80.7235 170.69 80.6779C170.665 80.6553 170.646 80.6281 170.633 80.5979C170.619 80.5677 170.612 80.5351 170.611 80.5021C170.611 80.3099 170.86 80.015 171.365 79.6199C171.776 79.2622 172.296 79.0542 172.841 79.0301C173.104 79.0237 173.362 79.1004 173.578 79.2492C173.775 79.3765 173.922 79.5677 173.993 79.7904C174.072 80.0933 174.107 80.4058 174.096 80.7185V81.2408L174.08 83.5867Z" fill="#231F20"/>
<path d="M179.21 83.1538C179.456 83.1434 179.697 83.2288 179.882 83.3919C179.974 83.4788 180.046 83.5845 180.093 83.7018C180.14 83.819 180.16 83.9451 180.154 84.0711C180.153 84.176 180.128 84.2794 180.081 84.3732C180.034 84.467 179.966 84.5488 179.882 84.6123C179.713 84.7569 179.497 84.8349 179.275 84.8315C179.159 84.8298 179.045 84.805 178.939 84.7585C178.834 84.712 178.738 84.6448 178.659 84.5609C178.575 84.4855 178.507 84.3934 178.46 84.2904C178.413 84.1875 178.389 84.0759 178.388 83.9629C178.387 83.8564 178.409 83.7509 178.452 83.6535C178.495 83.556 178.558 83.4687 178.637 83.3973C178.788 83.2437 178.994 83.1561 179.21 83.1538ZM178.42 73.5101C178.419 73.4079 178.44 73.3066 178.482 73.2132C178.523 73.1198 178.585 73.0364 178.662 72.9689C178.825 72.8182 179.041 72.7376 179.264 72.7444C179.372 72.7414 179.48 72.7631 179.578 72.8076C179.677 72.8521 179.764 72.9184 179.834 73.0014C179.976 73.1549 180.056 73.3554 180.059 73.5642C180.059 74.0675 180.003 75.2752 179.893 77.1874C179.783 79.0995 179.72 80.2468 179.703 80.6292C179.703 80.9029 179.67 81.1756 179.603 81.441C179.577 81.5161 179.526 81.5799 179.458 81.6214C179.39 81.6629 179.31 81.6795 179.231 81.6683C179.001 81.6683 178.876 81.5195 178.86 81.2164L178.42 73.5101Z" fill="#231F20"/>
<path d="M181.38 83.1538C181.627 83.143 181.869 83.2284 182.055 83.3919C182.147 83.4786 182.219 83.5843 182.266 83.7016C182.313 83.8189 182.333 83.945 182.326 84.0711C182.326 84.176 182.301 84.2794 182.254 84.3733C182.207 84.4672 182.139 84.549 182.055 84.6123C181.886 84.7567 181.67 84.8346 181.447 84.8314C181.332 84.8299 181.218 84.8052 181.112 84.7587C181.006 84.7122 180.911 84.6449 180.832 84.5608C180.747 84.4855 180.679 84.3934 180.633 84.2904C180.586 84.1874 180.561 84.0759 180.56 83.9628C180.559 83.8565 180.58 83.7512 180.623 83.6537C180.666 83.5562 180.728 83.4688 180.807 83.3973C180.958 83.2437 181.164 83.1561 181.38 83.1538ZM180.604 73.5101C180.602 73.408 180.622 73.3068 180.664 73.2134C180.705 73.12 180.766 73.0366 180.842 72.9689C181.007 72.8178 181.224 72.7371 181.447 72.7443C181.555 72.742 181.663 72.7639 181.761 72.8084C181.86 72.8529 181.947 72.9188 182.017 73.0014C182.158 73.1552 182.237 73.3556 182.239 73.5642C182.239 74.0675 182.184 75.2752 182.074 77.1874C181.964 79.0995 181.9 80.2468 181.884 80.6292C181.883 80.9027 181.85 81.1751 181.786 81.441C181.76 81.516 181.708 81.5796 181.64 81.621C181.572 81.6624 181.491 81.6791 181.412 81.6683C181.182 81.6683 181.057 81.5194 181.04 81.2164L180.604 73.5101Z" fill="#231F20"/>
</g>
<defs>
<linearGradient id="paint0_linear_74_3" x1="31.4216" y1="13.6917" x2="31.4216" y2="28.1004" gradientUnits="userSpaceOnUse">
<stop stop-color="white"/>
<stop offset="0.06" stop-color="white" stop-opacity="0.86"/>
<stop offset="0.16" stop-color="white" stop-opacity="0.66"/>
<stop offset="0.26" stop-color="white" stop-opacity="0.48"/>
<stop offset="0.37" stop-color="white" stop-opacity="0.33"/>
<stop offset="0.48" stop-color="white" stop-opacity="0.21"/>
<stop offset="0.59" stop-color="white" stop-opacity="0.12"/>
<stop offset="0.71" stop-color="white" stop-opacity="0.05"/>
<stop offset="0.84" stop-color="white" stop-opacity="0.01"/>
<stop offset="1" stop-color="white" stop-opacity="0"/>
</linearGradient>
<linearGradient id="paint1_linear_74_3" x1="895.495" y1="4648.66" x2="895.495" y2="5418.95" gradientUnits="userSpaceOnUse">
<stop stop-color="white"/>
<stop offset="0.06" stop-color="white" stop-opacity="0.86"/>
<stop offset="0.16" stop-color="white" stop-opacity="0.66"/>
<stop offset="0.26" stop-color="white" stop-opacity="0.48"/>
<stop offset="0.37" stop-color="white" stop-opacity="0.33"/>
<stop offset="0.48" stop-color="white" stop-opacity="0.21"/>
<stop offset="0.59" stop-color="white" stop-opacity="0.12"/>
<stop offset="0.71" stop-color="white" stop-opacity="0.05"/>
<stop offset="0.84" stop-color="white" stop-opacity="0.01"/>
<stop offset="1" stop-color="white" stop-opacity="0"/>
</linearGradient>
<linearGradient id="paint2_linear_74_3" x1="1528.65" y1="4648.66" x2="1528.65" y2="5418.95" gradientUnits="userSpaceOnUse">
<stop stop-color="white"/>
<stop offset="0.06" stop-color="white" stop-opacity="0.86"/>
<stop offset="0.16" stop-color="white" stop-opacity="0.66"/>
<stop offset="0.26" stop-color="white" stop-opacity="0.48"/>
<stop offset="0.37" stop-color="white" stop-opacity="0.33"/>
<stop offset="0.48" stop-color="white" stop-opacity="0.21"/>
<stop offset="0.59" stop-color="white" stop-opacity="0.12"/>
<stop offset="0.71" stop-color="white" stop-opacity="0.05"/>
<stop offset="0.84" stop-color="white" stop-opacity="0.01"/>
<stop offset="1" stop-color="white" stop-opacity="0"/>
</linearGradient>
<linearGradient id="paint3_linear_74_3" x1="1164.98" y1="5340.1" x2="1164.98" y2="6110.82" gradientUnits="userSpaceOnUse">
<stop stop-color="white"/>
<stop offset="0.06" stop-color="white" stop-opacity="0.86"/>
<stop offset="0.16" stop-color="white" stop-opacity="0.66"/>
<stop offset="0.26" stop-color="white" stop-opacity="0.48"/>
<stop offset="0.37" stop-color="white" stop-opacity="0.33"/>
<stop offset="0.48" stop-color="white" stop-opacity="0.21"/>
<stop offset="0.59" stop-color="white" stop-opacity="0.12"/>
<stop offset="0.71" stop-color="white" stop-opacity="0.05"/>
<stop offset="0.84" stop-color="white" stop-opacity="0.01"/>
<stop offset="1" stop-color="white" stop-opacity="0"/>
</linearGradient>
<linearGradient id="paint4_linear_74_3" x1="-5733.55" y1="24456" x2="-6139.03" y2="24862.5" gradientUnits="userSpaceOnUse">
<stop stop-color="white"/>
<stop offset="0.06" stop-color="white" stop-opacity="0.86"/>
<stop offset="0.16" stop-color="white" stop-opacity="0.66"/>
<stop offset="0.26" stop-color="white" stop-opacity="0.48"/>
<stop offset="0.37" stop-color="white" stop-opacity="0.33"/>
<stop offset="0.48" stop-color="white" stop-opacity="0.21"/>
<stop offset="0.59" stop-color="white" stop-opacity="0.12"/>
<stop offset="0.71" stop-color="white" stop-opacity="0.05"/>
<stop offset="0.84" stop-color="white" stop-opacity="0.01"/>
<stop offset="1" stop-color="white" stop-opacity="0"/>
</linearGradient>
<linearGradient id="paint5_linear_74_3" x1="-3148.59" y1="49136.4" x2="-3239.86" y2="49136.4" gradientUnits="userSpaceOnUse">
<stop stop-color="white"/>
<stop offset="0.06" stop-color="white" stop-opacity="0.86"/>
<stop offset="0.16" stop-color="white" stop-opacity="0.66"/>
<stop offset="0.26" stop-color="white" stop-opacity="0.48"/>
<stop offset="0.37" stop-color="white" stop-opacity="0.33"/>
<stop offset="0.48" stop-color="white" stop-opacity="0.21"/>
<stop offset="0.59" stop-color="white" stop-opacity="0.12"/>
<stop offset="0.71" stop-color="white" stop-opacity="0.05"/>
<stop offset="0.84" stop-color="white" stop-opacity="0.01"/>
<stop offset="1" stop-color="white" stop-opacity="0"/>
</linearGradient>
<linearGradient id="paint6_linear_74_3" x1="9945.47" y1="4534.15" x2="10284.2" y2="4534.15" gradientUnits="userSpaceOnUse">
<stop stop-color="white"/>
<stop offset="0.06" stop-color="white" stop-opacity="0.86"/>
<stop offset="0.16" stop-color="white" stop-opacity="0.66"/>
<stop offset="0.26" stop-color="white" stop-opacity="0.48"/>
<stop offset="0.37" stop-color="white" stop-opacity="0.33"/>
<stop offset="0.48" stop-color="white" stop-opacity="0.21"/>
<stop offset="0.59" stop-color="white" stop-opacity="0.12"/>
<stop offset="0.71" stop-color="white" stop-opacity="0.05"/>
<stop offset="0.84" stop-color="white" stop-opacity="0.01"/>
<stop offset="1" stop-color="white" stop-opacity="0"/>
</linearGradient>
<linearGradient id="paint7_linear_74_3" x1="174.549" y1="26.9017" x2="164.269" y2="26.9017" gradientUnits="userSpaceOnUse">
<stop offset="0.16" stop-color="white"/>
<stop offset="0.22" stop-color="white" stop-opacity="0.86"/>
<stop offset="0.3" stop-color="white" stop-opacity="0.66"/>
<stop offset="0.38" stop-color="white" stop-opacity="0.48"/>
<stop offset="0.47" stop-color="white" stop-opacity="0.33"/>
<stop offset="0.56" stop-color="white" stop-opacity="0.21"/>
<stop offset="0.65" stop-color="white" stop-opacity="0.12"/>
<stop offset="0.75" stop-color="white" stop-opacity="0.05"/>
<stop offset="0.86" stop-color="white" stop-opacity="0.01"/>
<stop offset="1" stop-color="white" stop-opacity="0"/>
</linearGradient>
<clipPath id="clip0_74_3">
<rect width="187.865" height="88" fill="white"/>
</clipPath>
</defs>
</svg>
